<?xml version="1.0" encoding="UTF-8"?>
<svg width="60px" height="60px" viewBox="0 0 60 60" version="1.1" xmlns="http://www.w3.org/2000/svg" xmlns:xlink="http://www.w3.org/1999/xlink">
    <title>icon/设备图/空调/on</title>
    <defs>
        <radialGradient cx="24.6982732%" cy="9.06850245%" fx="24.6982732%" fy="9.06850245%" r="191.313008%" gradientTransform="translate(0.246983,0.090685),scale(0.447368,1.000000),rotate(28.379029),translate(-0.246983,-0.090685)" id="radialGradient-1">
            <stop stop-color="#F5F5F8" offset="0%"></stop>
            <stop stop-color="#1E1D23" offset="100%"></stop>
        </radialGradient>
        <linearGradient x1="50%" y1="0%" x2="50%" y2="98.9729021%" id="linearGradient-2">
            <stop stop-color="#EDEFFF" offset="0%"></stop>
            <stop stop-color="#33334A" stop-opacity="0.2" offset="100%"></stop>
        </linearGradient>
        <path d="M1.05263158,0.192982456 L38.9473684,0.192982456 C39.5286842,0.192982456 40,0.664298246 40,1.24561404 L40,17.0350877 C40,17.6164035 39.5286842,18.0877193 38.9473684,18.0877193 L1.05263158,18.0877193 C0.471315789,18.0877193 0,17.6164035 0,17.0350877 L0,1.24561404 C0,0.664298246 0.471315789,0.192982456 1.05263158,0.192982456" id="path-3"></path>
        <filter x="-28.8%" y="-64.3%" width="157.5%" height="228.5%" filterUnits="objectBoundingBox" id="filter-4">
            <feGaussianBlur stdDeviation="6.5" in="SourceAlpha" result="shadowBlurInner1"></feGaussianBlur>
            <feOffset dx="0" dy="10" in="shadowBlurInner1" result="shadowOffsetInner1"></feOffset>
            <feComposite in="shadowOffsetInner1" in2="SourceAlpha" operator="arithmetic" k2="-1" k3="1" result="shadowInnerInner1"></feComposite>
            <feColorMatrix values="0 0 0 0 0.924496936   0 0 0 0 0.920198171   0 0 0 0 1  0 0 0 0.4 0" type="matrix" in="shadowInnerInner1"></feColorMatrix>
        </filter>
        <linearGradient x1="50%" y1="0%" x2="50%" y2="100%" id="linearGradient-5">
            <stop stop-color="#FFFFFF" stop-opacity="0" offset="0%"></stop>
            <stop stop-color="#FFFFFF" offset="97.8066934%"></stop>
        </linearGradient>
        <linearGradient x1="50%" y1="0%" x2="50%" y2="97.8066934%" id="linearGradient-6">
            <stop stop-color="#FFFFFF" stop-opacity="0" offset="0%"></stop>
            <stop stop-color="#FFFFFF" offset="100%"></stop>
        </linearGradient>
        <filter id="filter-7">
            <feColorMatrix in="SourceGraphic" type="matrix" values="0 0 0 0 1.000000 0 0 0 0 0.963179 0 0 0 0 0.795084 0 0 0 1.000000 0"></feColorMatrix>
        </filter>
        <linearGradient x1="50%" y1="0%" x2="50%" y2="100%" id="linearGradient-8">
            <stop stop-color="#FFFBE7" offset="0%"></stop>
            <stop stop-color="#FFDD43" offset="100%"></stop>
        </linearGradient>
        <filter x="-27.5%" y="-27.5%" width="155.0%" height="155.0%" filterUnits="objectBoundingBox" id="filter-9">
            <feOffset dx="0" dy="0.2" in="SourceAlpha" result="shadowOffsetOuter1"></feOffset>
            <feColorMatrix values="0 0 0 0 0   0 0 0 0 0   0 0 0 0 0  0 0 0 0.5 0" type="matrix" in="shadowOffsetOuter1" result="shadowMatrixOuter1"></feColorMatrix>
            <feMerge>
                <feMergeNode in="shadowMatrixOuter1"></feMergeNode>
                <feMergeNode in="SourceGraphic"></feMergeNode>
            </feMerge>
        </filter>
        <linearGradient x1="50%" y1="0%" x2="50%" y2="83.62242%" id="linearGradient-10">
            <stop stop-color="#FFFCEA" offset="0%"></stop>
            <stop stop-color="#F9D73A" offset="100%"></stop>
        </linearGradient>
    </defs>
    <g id="icon/设备图/空调/on" stroke="none" stroke-width="1" fill="none" fill-rule="evenodd">
        <g id="空调" transform="translate(10.000000, 20.000000)">
            <g id="Fill-1">
                <use fill="url(#radialGradient-1)" fill-rule="evenodd" xlink:href="#path-3"></use>
                <use fill="black" fill-opacity="1" filter="url(#filter-4)" xlink:href="#path-3"></use>
                <path stroke="url(#linearGradient-2)" stroke-width="0.3" d="M38.9473684,0.342982456 C39.1966076,0.342982456 39.422264,0.444023233 39.5856116,0.607370842 C39.7489592,0.77071845 39.85,0.99637489 39.85,1.24561404 L39.85,1.24561404 L39.85,17.0350877 C39.85,17.2843269 39.7489592,17.5099833 39.5856116,17.6733309 C39.422264,17.8366785 39.1966076,17.9377193 38.9473684,17.9377193 L38.9473684,17.9377193 L1.05263158,17.9377193 C0.803392434,17.9377193 0.577735994,17.8366785 0.414388386,17.6733309 C0.251040777,17.5099833 0.15,17.2843269 0.15,17.0350877 L0.15,17.0350877 L0.15,1.24561404 C0.15,0.99637489 0.251040777,0.77071845 0.414388386,0.607370842 C0.577735994,0.444023233 0.803392434,0.342982456 1.05263158,0.342982456 L1.05263158,0.342982456 Z" stroke-linejoin="square"></path>
            </g>
            <path d="M38.9739737,18.3572673 C39.0671316,18.3572673 39.1721316,18.3754252 39.2897632,18.4114778 L37.9692368,18.1144102 C37.7455526,18.0362523 37.5105526,17.9962523 37.2734474,17.9962523 L2.52739474,17.9962523 C2.24871053,17.9962523 1.97292105,18.0515155 1.71555263,18.159147 L0.651078947,18.4385831 C0.781078947,18.3843726 0.910815789,18.3572673 1.04002632,18.3572673 L38.9739737,18.3572673 Z" id="Fill-3备份" fill="#14141D" fill-rule="nonzero" transform="translate(19.970421, 18.217418) scale(1, -1) translate(-19.970421, -18.217418) "></path>
            <circle id="椭圆形" fill="#FFF8E5" cx="3.28947368" cy="2.95614035" r="1"></circle>
            <path d="M37.3684211,13.5964912 L37.3684211,16.754386 L2.63157895,16.754386 L2.63157895,13.5964912 L37.3684211,13.5964912 Z M37.3684211,12.8070175 L37.3684211,13.0701754 L2.63157895,13.0701754 L2.63157895,12.8070175 L37.3684211,12.8070175 Z M37.3684211,12.0175439 L37.3684211,12.2807018 L2.63157895,12.2807018 L2.63157895,12.0175439 L37.3684211,12.0175439 Z" id="形状结合" fill="#16171A"></path>
            <polygon id="路径" fill-opacity="0.8" fill="url(#linearGradient-5)" fill-rule="nonzero" points="39.1803089 19.9122535 1.00991738 19.9122535 3.63973825 14.6072923 36.5504881 14.6072923"></polygon>
            <polygon id="路径备份" fill-opacity="0.95" fill="url(#linearGradient-6)" fill-rule="nonzero" points="37.1803089 15.7191052 3.00991738 15.7191052 3.63973825 13.5964912 36.5504881 13.5964912"></polygon>
            <g id="icon/env/refrigeration" transform="translate(27.403509, 2.736842)" filter="url(#filter-7)">
                <g filter="url(#filter-9)" transform="translate(5.994651, 0.192402)">
                    <path d="M2.00512104,0.166666667 C2.09729981,0.166666667 2.16899441,0.238361266 2.16899441,0.330540037 L2.16899441,0.648044693 L2.3943203,0.422718808 C2.45577281,0.361266294 2.56843575,0.361266294 2.62988827,0.422718808 C2.69134078,0.484171322 2.69134078,0.596834264 2.62988827,0.658286778 L2.12802607,1.16014898 C2.11778399,1.17039106 2.09729981,1.18063315 2.08705773,1.19087523 L2.08705773,1.8566108 L2.65037244,1.52886406 C2.65037244,1.50837989 2.65037244,1.4981378 2.66061453,1.47765363 L2.84497207,0.791433892 C2.86545624,0.699255121 2.95763501,0.648044693 3.04981378,0.668528864 C3.14199255,0.689013035 3.19320298,0.781191806 3.17271881,0.873370577 L3.09078212,1.18063315 L3.36731844,1.01675978 C3.44925512,0.975791434 3.55167598,0.996275605 3.59264432,1.07821229 C3.64385475,1.16014898 3.61312849,1.26256983 3.53119181,1.30353818 L3.25465549,1.46741155 L3.56191806,1.54934823 C3.65409683,1.5698324 3.70530726,1.66201117 3.68482309,1.75418994 C3.66433892,1.84636872 3.57216015,1.89757914 3.47998138,1.87709497 L2.79376164,1.70297952 C2.77327747,1.70297952 2.76303538,1.69273743 2.74255121,1.68249534 L2.16899441,2.01024209 L2.73230912,2.33798883 C2.74255121,2.32774674 2.76303538,2.31750466 2.78351955,2.31750466 L3.46973929,2.13314711 C3.56191806,2.11266294 3.65409683,2.16387337 3.67458101,2.25605214 C3.69506518,2.34823091 3.64385475,2.44040968 3.55167598,2.46089385 L3.24441341,2.54283054 L3.52094972,2.70670391 C3.60288641,2.74767225 3.63361266,2.8603352 3.58240223,2.9320298 C3.53119181,3.01396648 3.42877095,3.03445065 3.35707635,2.99348231 L3.10102421,2.82960894 L3.18296089,3.13687151 C3.20344507,3.22905028 3.15223464,3.32122905 3.06005587,3.34171322 C2.96787709,3.36219739 2.87569832,3.31098696 2.85521415,3.21880819 L2.67085661,2.53258845 C2.67085661,2.51210428 2.66061453,2.5018622 2.66061453,2.48137803 L2.09729981,2.15363128 L2.09729981,2.80912477 C2.1075419,2.81936685 2.12802607,2.82960894 2.13826816,2.83985102 L2.64013035,3.34171322 C2.70158287,3.40316574 2.70158287,3.51582868 2.64013035,3.57728119 C2.57867784,3.63873371 2.4660149,3.63873371 2.40456238,3.57728119 L2.1792365,3.35195531 L2.1792365,3.66945996 C2.1792365,3.76163873 2.1075419,3.83333333 2.01536313,3.83333333 C1.92318436,3.83333333 1.85148976,3.76163873 1.85148976,3.66945996 L1.85148976,3.35195531 L1.62616387,3.57728119 C1.56471136,3.63873371 1.45204842,3.63873371 1.3905959,3.57728119 C1.32914339,3.51582868 1.32914339,3.40316574 1.3905959,3.34171322 L1.8924581,2.83985102 C1.90270019,2.82960894 1.92318436,2.81936685 1.93342644,2.80912477 L1.93342644,2.15363128 L1.35986965,2.48137803 C1.35986965,2.5018622 1.35986965,2.51210428 1.34962756,2.53258845 L1.16527002,3.21880819 C1.14478585,3.31098696 1.05260708,3.36219739 0.960428305,3.34171322 C0.868249534,3.32122905 0.817039106,3.22905028 0.837523277,3.13687151 L0.919459963,2.82960894 L0.64292365,2.99348231 C0.550744879,3.03445065 0.448324022,3.01396648 0.40735568,2.9320298 C0.356145251,2.85009311 0.386871508,2.74767225 0.468808194,2.70670391 L0.745344507,2.54283054 L0.438081937,2.46089385 C0.345903166,2.44040968 0.294692737,2.34823091 0.315176909,2.25605214 C0.33566108,2.16387337 0.427839851,2.11266294 0.520018622,2.13314711 L1.20623836,2.31750466 C1.22672253,2.31750466 1.23696462,2.32774674 1.25744879,2.33798883 L1.83100559,2.01024209 L1.25744879,1.68249534 C1.2472067,1.69273743 1.22672253,1.70297952 1.20623836,1.70297952 L0.520018622,1.88733706 C0.427839851,1.90782123 0.33566108,1.8566108 0.315176909,1.76443203 C0.294692737,1.67225326 0.345903166,1.58007449 0.438081937,1.55959032 L0.745344507,1.47765363 L0.468808194,1.31378026 C0.386871508,1.27281192 0.356145251,1.16014898 0.40735568,1.08845438 C0.458566108,1.00651769 0.560986965,0.98603352 0.632681564,1.02700186 L0.909217877,1.19087523 L0.827281192,0.883612663 C0.80679702,0.791433892 0.858007449,0.699255121 0.95018622,0.67877095 C1.04236499,0.658286778 1.13454376,0.709497207 1.15502793,0.801675978 L1.33938547,1.48789572 C1.33938547,1.50837989 1.34962756,1.51862197 1.34962756,1.53910615 L1.92318436,1.86685289 L1.92318436,1.2113594 L1.92318436,1.20111732 C1.91294227,1.19087523 1.8924581,1.18063315 1.88221601,1.17039106 L1.38035382,0.668528864 C1.3189013,0.60707635 1.3189013,0.494413408 1.38035382,0.432960894 C1.44180633,0.37150838 1.55446927,0.37150838 1.61592179,0.432960894 L1.84124767,0.658286778 L1.84124767,0.330540037 C1.84124767,0.238361266 1.91294227,0.166666667 2.00512104,0.166666667 Z" fill="url(#linearGradient-10)"></path>
                </g>
            </g>
        </g>
    </g>
</svg>