<?xml version="1.0" encoding="UTF-8"?>
<svg width="60px" height="60px" viewBox="0 0 60 60" version="1.1" xmlns="http://www.w3.org/2000/svg" xmlns:xlink="http://www.w3.org/1999/xlink">
    <title>icon/设备图/预约屏/on</title>
    <defs>
        <circle id="path-1" cx="30" cy="30" r="30"></circle>
        <mask id="mask-2" maskContentUnits="userSpaceOnUse" maskUnits="objectBoundingBox" x="0" y="0" width="60" height="60" fill="white">
            <use xlink:href="#path-1"></use>
        </mask>
    </defs>
    <g id="icon/设备图/预约屏/on" stroke="none" stroke-width="1" fill="none" fill-rule="evenodd">
        <g id="编组-2">
            <use id="椭圆形" stroke="" mask="url(#mask-2)" stroke-width="6" opacity="0" stroke-dasharray="2,2" xlink:href="#path-1"></use>
            <g id="编组" transform="translate(10.000000, 16.400000)">
                <rect id="矩形" fill="#696969" x="0" y="0" width="40" height="27" rx="2"></rect>
                <rect id="矩形备份" fill="#F8F8F8" fill-rule="nonzero" x="2.63645379" y="0.576013141" width="34.7270924" height="25.8479737" rx="0.5"></rect>
                <g id="编组-3" transform="translate(6.338593, 6.428640)" fill-rule="nonzero">
                    <path d="M1.35304619,4.10296191 C1.75841225,4.10296191 2.08389198,3.96966587 2.32948539,3.70307377 C2.57507879,3.43648167 2.69787549,3.06946105 2.69787549,2.60201189 L2.69787549,2.60201189 L2.69787549,1.50368898 C2.69787549,1.0380658 2.5741658,0.671045173 2.32674643,0.402627104 C2.07932705,0.134209035 1.75293433,0 1.34756827,0 C0.940376228,0 0.613983508,0.134209035 0.368390105,0.402627104 C0.122796702,0.671045173 2.06945572e-13,1.0380658 2.06945572e-13,1.50368898 L2.06945572e-13,1.50368898 L2.06945572e-13,2.60201189 C2.06945572e-13,3.06946105 0.123253195,3.43648167 0.369759585,3.70307377 C0.616265975,3.96966587 0.944028175,4.10296191 1.35304619,4.10296191 Z M1.35304619,3.4894349 C1.17592678,3.4894349 1.03897878,3.41959142 0.942202202,3.27990447 C0.845425619,3.14021751 0.797037328,2.93981695 0.797037328,2.67870277 L0.797037328,2.67870277 L0.797037328,1.42152018 C0.797037328,1.16588393 0.844969126,0.967765827 0.940832722,0.827165886 C1.03669632,0.686565945 1.17227483,0.616265975 1.34756827,0.616265975 C1.52103572,0.616265975 1.65661424,0.686565945 1.75430381,0.827165886 C1.85199338,0.967765827 1.90083816,1.16588393 1.90083816,1.42152018 L1.90083816,1.42152018 L1.90083816,2.67870277 C1.90083816,2.93981695 1.85290636,3.14021751 1.75704277,3.27990447 C1.66117917,3.41959142 1.52651364,3.4894349 1.35304619,3.4894349 Z M4.61514741,4.10296191 C5.01503556,4.10296191 5.34325425,4.00025092 5.59980349,3.79482893 C5.85635274,3.58940693 5.98462736,3.30227264 5.98462736,2.93342604 C5.98462736,2.7179612 5.92071829,2.5266905 5.79290016,2.35961394 C5.66508204,2.19253739 5.49252756,2.06426277 5.27523675,1.97479008 C5.45418213,1.88896934 5.59478207,1.76982458 5.69703657,1.61735581 C5.79929107,1.46488705 5.85041832,1.29005011 5.85041832,1.092845 C5.85041832,0.74225813 5.73538201,0.472470581 5.50530938,0.283482348 C5.27523675,0.0944941162 4.97669012,0 4.60966949,0 C4.22621511,0 3.91488667,0.0944941162 3.67568417,0.283482348 C3.43648167,0.472470581 3.31688043,0.74225813 3.31688043,1.092845 C3.31688043,1.29005011 3.37029014,1.46488705 3.47710958,1.61735581 C3.58392901,1.76982458 3.73137636,1.88896934 3.9194516,1.97479008 C3.69303092,2.06426277 3.51362904,2.19253739 3.38124598,2.35961394 C3.24886292,2.5266905 3.18267139,2.7179612 3.18267139,2.93342604 C3.18267139,3.30227264 3.31688043,3.58940693 3.58529849,3.79482893 C3.85371656,4.00025092 4.19699954,4.10296191 4.61514741,4.10296191 Z M4.61514741,1.67076553 C4.46541761,1.67076553 4.34490337,1.62100776 4.25360471,1.52149222 C4.16230604,1.42197668 4.11665671,1.29096309 4.11665671,1.12845147 C4.11665671,0.967765827 4.16139306,0.842230166 4.25086575,0.751844489 C4.34033844,0.661458813 4.45993969,0.616265975 4.60966949,0.616265975 C4.74113957,0.616265975 4.847959,0.6623718 4.9301278,0.754583449 C5.0122966,0.846795099 5.05338099,0.971417774 5.05338099,1.12845147 C5.05338099,1.29278907 5.01320958,1.42425914 4.93286676,1.5228617 C4.85252394,1.62146425 4.74661749,1.67076553 4.61514741,1.67076553 Z M4.61514741,3.4894349 C4.43072411,3.4894349 4.27962483,3.43556869 4.16184955,3.32783626 C4.04407428,3.22010384 3.98518664,3.07585196 3.98518664,2.8950806 C3.98518664,2.7179612 4.04453077,2.57233983 4.16321903,2.4582165 C4.28190729,2.34409317 4.43072411,2.28703151 4.60966949,2.28703151 C4.77218111,2.28703151 4.90867261,2.34409317 5.019144,2.4582165 C5.12961538,2.57233983 5.18485107,2.7179612 5.18485107,2.8950806 C5.18485107,3.07585196 5.13098486,3.22010384 5.02325244,3.32783626 C4.91552001,3.43556869 4.77948501,3.4894349 4.61514741,3.4894349 Z M7.37054106,1.64611489 L7.37054106,0.944941162 L6.57076477,0.944941162 L6.57076477,1.64611489 L7.37054106,1.64611489 Z M7.37054106,4.04544376 L7.37054106,3.34427002 L6.57076477,3.34427002 L6.57076477,4.04544376 L7.37054106,4.04544376 Z M9.36724282,4.10296191 C9.77991278,4.10296191 10.1181743,3.99842494 10.3820275,3.78935101 C10.6458806,3.58027707 10.7778072,3.29314277 10.7778072,2.92794812 C10.7778072,2.70152744 10.721202,2.50843076 10.6079916,2.3486581 C10.4947813,2.18888544 10.3340957,2.06974069 10.1259347,1.99122384 C10.308532,1.90357712 10.4523274,1.78351938 10.5573209,1.63105061 C10.6623144,1.47858185 10.7148111,1.3110488 10.7148111,1.12845147 C10.7148111,0.765082796 10.5933839,0.48616538 10.3505294,0.291699228 C10.107675,0.0972330761 9.77991278,0 9.36724282,0 C8.99657025,0 8.68524181,0.101341516 8.4332575,0.304024548 C8.18127319,0.506707579 8.06075895,0.764169809 8.07171479,1.07641124 L8.07171479,1.07641124 L8.07719271,1.092845 L8.8495794,1.092845 C8.8495794,0.954071028 8.89933717,0.839947699 8.99885271,0.75047501 C9.09836826,0.66100232 9.22116496,0.616265975 9.36724282,0.616265975 C9.54071028,0.616265975 9.6758323,0.665567253 9.77260888,0.764169809 C9.86938547,0.862772365 9.91777376,0.986938547 9.91777376,1.13666835 C9.91777376,1.31561373 9.87166793,1.4543877 9.77945628,1.55299026 C9.68724463,1.65159281 9.5461882,1.70089409 9.35628698,1.70089409 L9.35628698,1.70089409 L8.91531444,1.70089409 L8.91531444,2.30072631 L9.35628698,2.30072631 C9.56079599,2.30072631 9.71600371,2.35139706 9.82191016,2.45273858 C9.92781661,2.5540801 9.98076983,2.70974432 9.98076983,2.91973124 C9.98076983,3.08406883 9.92416466,3.22010384 9.81095432,3.32783626 C9.69774398,3.43556869 9.54984015,3.4894349 9.36724282,3.4894349 C9.20107925,3.4894349 9.06550074,3.43876414 8.96050728,3.33742262 C8.85551381,3.23608111 8.80301708,3.11054545 8.80301708,2.96081564 L8.80301708,2.96081564 L8.02515247,2.96081564 L8.01967455,2.9772494 C8.01054469,3.33331418 8.14201476,3.60994913 8.41408478,3.80715425 C8.68615479,4.00435936 9.00387414,4.10296191 9.36724282,4.10296191 Z M12.6019544,4.10296191 C13.0073205,4.10296191 13.3328002,3.96966587 13.5783936,3.70307377 C13.8239871,3.43648167 13.9467838,3.06946105 13.9467838,2.60201189 L13.9467838,2.60201189 L13.9467838,1.50368898 C13.9467838,1.0380658 13.8230741,0.671045173 13.5756547,0.402627104 C13.3282353,0.134209035 13.0018426,0 12.5964765,0 C12.1892845,0 11.8628918,0.134209035 11.6172984,0.402627104 C11.371705,0.671045173 11.2489083,1.0380658 11.2489083,1.50368898 L11.2489083,1.50368898 L11.2489083,2.60201189 C11.2489083,3.06946105 11.3721615,3.43648167 11.6186678,3.70307377 C11.8651742,3.96966587 12.1929364,4.10296191 12.6019544,4.10296191 Z M12.6019544,3.4894349 C12.424835,3.4894349 12.287887,3.41959142 12.1911105,3.27990447 C12.0943339,3.14021751 12.0459456,2.93981695 12.0459456,2.67870277 L12.0459456,2.67870277 L12.0459456,1.42152018 C12.0459456,1.16588393 12.0938774,0.967765827 12.189741,0.827165886 C12.2856046,0.686565945 12.4211831,0.616265975 12.5964765,0.616265975 C12.769944,0.616265975 12.9055225,0.686565945 13.0032121,0.827165886 C13.1009016,0.967765827 13.1497464,1.16588393 13.1497464,1.42152018 L13.1497464,1.42152018 L13.1497464,2.67870277 C13.1497464,2.93981695 13.1018146,3.14021751 13.005951,3.27990447 C12.9100874,3.41959142 12.7754219,3.4894349 12.6019544,3.4894349 Z" id="08:30" fill="#FAAD14"></path>
                    <path d="M0.539785165,6.85026431 L0.539785165,5.30218142 L-1.02140518e-13,5.35878025 L-1.02140518e-13,5.51809549 L0.332256111,5.51495111 L0.332256111,6.85026431 L0.539785165,6.85026431 Z M1.42053847,7.07136031 C1.56006507,6.88890245 1.64163447,6.65922019 1.66739323,6.38016698 L2.59256194,6.38016698 L2.59256194,6.80733305 C2.59256194,6.86958338 2.56680319,6.90178183 2.51743223,6.90178183 C2.43586283,6.90178183 2.34570718,6.8974887 2.24696528,6.89319557 L2.28989654,7.04560156 L2.56680319,7.04560156 C2.68701072,7.04560156 2.74926105,6.98335123 2.74926105,6.86099713 L2.74926105,5.18238475 L1.51928037,5.18238475 L1.51928037,6.22990756 C1.51498725,6.52613328 1.44415066,6.77084147 1.3024775,6.96403216 L1.42053847,7.07136031 Z M2.59256194,5.70614616 L1.67597948,5.70614616 L1.67597948,5.33049761 L2.59256194,5.33049761 L2.59256194,5.70614616 Z M2.59256194,6.23634725 L1.67597948,6.23634725 L1.67597948,5.84996589 L2.59256194,5.84996589 L2.59256194,6.23634725 Z M3.8948382,6.85026431 L3.8948382,5.30218142 L3.35505304,5.35878025 L3.35505304,5.51809549 L3.68730915,5.51495111 L3.68730915,6.85026431 L3.8948382,6.85026431 Z M4.94516999,7.05633437 L4.94516999,6.89104901 L5.96049436,6.89104901 L5.96049436,7.05418781 L6.11719347,7.05418781 L6.11719347,5.18238475 L4.79061745,5.18238475 L4.79061745,7.05633437 L4.94516999,7.05633437 Z M5.96049436,5.94441466 L4.94516999,5.94441466 L4.94516999,5.33264417 L5.96049436,5.33264417 L5.96049436,5.94441466 Z M5.96049436,6.74078959 L4.94516999,6.74078959 L4.94516999,6.09467408 L5.96049436,6.09467408 L5.96049436,6.74078959 Z M8.85306366,5.9250956 L8.85306366,5.16521224 L7.45565105,5.16521224 L7.45565105,5.9250956 L8.85306366,5.9250956 Z M8.70065767,5.48290359 L7.60805703,5.48290359 L7.60805703,5.29829916 L8.70065767,5.29829916 L8.70065767,5.48290359 Z M8.70065767,5.79415524 L7.60805703,5.79415524 L7.60805703,5.60740425 L8.70065767,5.60740425 L8.70065767,5.79415524 Z M9.08489248,7.00910998 L9.08489248,6.86743682 L8.27563817,6.86743682 L8.27563817,6.64848738 L8.9088743,6.64848738 L8.9088743,6.51540046 L8.27563817,6.51540046 L8.27563817,6.30074415 L8.98829713,6.30074415 L8.98829713,6.16336411 L8.27563817,6.16336411 L8.27563817,5.99378562 L8.1167925,5.99378562 L8.1167925,6.16336411 L7.58015171,6.16336411 C7.59947078,6.11184659 7.61878985,6.06032907 7.63596236,6.00451843 L7.49643575,5.97231999 C7.41915948,6.20844193 7.31612445,6.40163261 7.18947722,6.54759891 L7.29251225,6.66780644 C7.37837478,6.56262485 7.45350449,6.44027075 7.52004795,6.30074415 L8.1167925,6.30074415 L8.1167925,6.51540046 L7.52004795,6.51540046 L7.52004795,6.64848738 L8.1167925,6.64848738 L8.1167925,6.86743682 L7.26246037,6.86743682 L7.26246037,7.00910998 L9.08489248,7.00910998 Z M10.3127266,6.54115922 L10.3127266,6.39519292 L10.1732,6.39519292 L10.1732,5.48719672 L10.3019938,5.48719672 L10.3019938,5.34337699 L10.1732,5.34337699 L10.1732,5.10725504 L10.0229406,5.10725504 L10.0229406,5.34337699 L9.60436076,5.34337699 L9.60436076,5.10296191 L9.45410134,5.10296191 L9.45410134,5.34337699 L9.32101442,5.34337699 L9.32101442,5.48719672 L9.45410134,5.48719672 L9.45410134,6.39519292 L9.29740223,6.39519292 L9.29740223,6.54115922 L10.3127266,6.54115922 Z M10.3170197,7.07136031 C10.4586929,6.88246276 10.5445554,6.64848738 10.5746073,6.36514104 L10.9910405,6.36514104 L10.9910405,6.80518648 C10.9910405,6.86958338 10.9631352,6.90178183 10.9073246,6.90178183 C10.8386346,6.90178183 10.7656514,6.8974887 10.6862286,6.89319557 L10.7291598,7.04560156 L10.9566955,7.04560156 C11.0811962,7.04560156 11.1455931,6.98335123 11.1455931,6.86099713 L11.1455931,5.17809162 L10.4329341,5.17809162 L10.4329341,6.18268317 C10.428641,6.48320201 10.3578044,6.7343499 10.2161313,6.93398027 C10.1624672,6.83953149 10.0851909,6.72576365 9.98430243,6.59696986 L9.8640949,6.67209957 C9.96069024,6.80089336 10.0379665,6.92110089 10.0937772,7.03057561 L10.207545,6.94900622 C10.2053984,6.95329934 10.2032519,6.95759247 10.1989587,6.96188559 L10.3170197,7.07136031 Z M10.9910405,5.69970647 L10.5853401,5.69970647 L10.5853401,5.32405792 L10.9910405,5.32405792 L10.9910405,5.69970647 Z M10.0229406,5.70185303 L9.60436076,5.70185303 L9.60436076,5.48719672 L10.0229406,5.48719672 L10.0229406,5.70185303 Z M10.0229406,6.04959626 L9.60436076,6.04959626 L9.60436076,5.83708651 L10.0229406,5.83708651 L10.0229406,6.04959626 Z M10.9910405,6.22346787 L10.5831935,6.22346787 C10.5831935,6.20629537 10.5853401,6.18912286 10.5853401,6.16980379 L10.5853401,5.84137963 L10.9910405,5.84137963 L10.9910405,6.22346787 Z M10.0229406,6.39519292 L9.60436076,6.39519292 L9.60436076,6.18482974 L10.0229406,6.18482974 L10.0229406,6.39519292 Z M9.40687695,7.05848094 C9.5142051,6.94471309 9.60865388,6.80947961 9.69022328,6.65492706 L9.56572262,6.5948233 C9.48629978,6.74078959 9.391851,6.86529025 9.28452285,6.97047185 L9.40687695,7.05848094 Z M13.3608463,6.97261841 L13.3608463,6.82021243 L13.0088099,6.82021243 L13.0088099,5.89933684 L12.2854181,5.89933684 L12.3970394,5.37128231 L13.2792769,5.37128231 L13.2792769,5.22102289 L11.534121,5.22102289 L11.534121,5.37128231 L12.2424869,5.37128231 L12.1308656,5.89933684 L11.6435957,5.89933684 L11.6435957,6.04959626 L12.0986671,6.04959626 L11.9376749,6.82021243 L11.4525516,6.82021243 L11.4525516,6.97261841 L13.3608463,6.97261841 Z M12.8521108,6.82021243 L12.0922274,6.82021243 L12.2532197,6.04959626 L12.8521108,6.04959626 L12.8521108,6.82021243 Z" id="1月1日星期五" fill="#4D4D4D"></path>
                </g>
                <circle id="椭圆形" stroke="#FFFFFF" stroke-width="0.2" fill="#FFFFFF" cx="38.7305079" cy="13.5" r="1"></circle>
                <circle id="椭圆形备份" fill="#D8D8D8" cx="1.41253009" cy="13.5" r="1"></circle>
            </g>
        </g>
    </g>
</svg>