<?xml version="1.0" encoding="UTF-8"?>
<svg width="60px" height="60px" viewBox="0 0 60 60" version="1.1" xmlns="http://www.w3.org/2000/svg" xmlns:xlink="http://www.w3.org/1999/xlink">
    <title>icon/设备图/摄像头/off</title>
    <defs>
        <linearGradient x1="50%" y1="0%" x2="50%" y2="100%" id="linearGradient-1">
            <stop stop-color="#B3B3B3" offset="0%"></stop>
            <stop stop-color="#FFFFFF" offset="100%"></stop>
        </linearGradient>
        <linearGradient x1="50%" y1="0%" x2="50%" y2="100%" id="linearGradient-2">
            <stop stop-color="#A2A2A2" offset="0%"></stop>
            <stop stop-color="#696969" offset="100%"></stop>
        </linearGradient>
        <radialGradient cx="50%" cy="50%" fx="50%" fy="50%" r="50%" id="radialGradient-3">
            <stop stop-color="#666666" offset="0%"></stop>
            <stop stop-color="#262626" offset="100%"></stop>
        </radialGradient>
    </defs>
    <g id="icon/设备图/摄像头/off" stroke="none" stroke-width="1" fill="none" fill-rule="evenodd">
        <g id="camera-off">
            <path d="M30,60 C46.5685425,60 60,46.5685425 60,30 C60,13.4314575 46.5685425,0 30,0 C13.4314575,0 0,13.4314575 0,30 C0,46.5685425 13.4314575,60 30,60 Z" id="椭圆形"></path>
            <path d="M31.803,56.937 L31.999,59.924 C31.338,59.967 30.672,59.997 30,59.997 L30,59.997 L30,56.997 C30.604,56.997 31.205,56.977 31.803,56.937 L31.803,56.937 Z M26.2694,56.741 C26.8614,56.823 27.4594,56.886 28.0594,56.929 L28.0594,56.929 L27.8484,59.912 C27.1794,59.864 26.5164,59.797 25.8594,59.706 L25.8594,59.706 Z M35.3707,56.4637 L35.9637,59.4027 C35.3147,59.5327 34.6557,59.6367 33.9917,59.7247 L33.9917,59.7247 L33.5967,56.7597 C34.1927,56.6807 34.7837,56.5817 35.3707,56.4637 L35.3707,56.4637 Z M22.7755,56.0202 C23.3525,56.1802 23.9355,56.3212 24.5245,56.4422 L24.5245,56.4422 L23.9195,59.3802 C23.2635,59.2442 22.6175,59.0812 21.9775,58.9032 L21.9775,58.9032 Z M38.8562,55.5119 L39.8372,58.3379 C39.2102,58.5559 38.5742,58.7539 37.9282,58.9309 L37.9282,58.9309 L37.1392,56.0439 C37.7182,55.8859 38.2902,55.7079 38.8562,55.5119 L38.8562,55.5119 Z M19.3442,54.8133 C19.8942,55.0503 20.4532,55.2683 21.0192,55.4683 L21.0192,55.4683 L20.0232,58.2913 C19.3932,58.0693 18.7712,57.8293 18.1602,57.5663 L18.1602,57.5663 Z M42.1623,54.1091 L43.5123,56.7791 C42.9183,57.0801 42.3173,57.3671 41.7023,57.6281 L41.7023,57.6281 L40.5313,54.8671 C41.0833,54.6331 41.6273,54.3801 42.1623,54.1091 L42.1623,54.1091 Z M16.1133,53.1585 C16.6283,53.4665 17.1533,53.7585 17.6863,54.0335 L17.6863,54.0335 L16.3203,56.6945 C15.7263,56.3885 15.1403,56.0695 14.5703,55.7265 L14.5703,55.7265 Z M45.2787,52.2614 L46.9747,54.7294 C46.4267,55.1074 45.8647,55.4654 45.2897,55.8064 L45.2897,55.8064 L43.7617,53.2324 C44.2777,52.9254 44.7827,52.6024 45.2787,52.2614 L45.2787,52.2614 Z M13.1387,51.0859 C13.6067,51.4609 14.0877,51.8209 14.5807,52.1639 L14.5807,52.1639 L12.8687,54.6189 C12.3217,54.2369 11.7877,53.8389 11.2677,53.4219 L11.2677,53.4219 Z M48.1323,50.0029 L50.1463,52.2259 C49.6533,52.6729 49.1393,53.0989 48.6173,53.5129 L48.6173,53.5129 L46.7583,51.1679 C47.2293,50.7949 47.6873,50.4069 48.1323,50.0029 L48.1323,50.0029 Z M10.4702,48.6406 C10.8852,49.0756 11.3142,49.4956 11.7572,49.9016 L11.7572,49.9016 L9.7312,52.1106 C9.2402,51.6606 8.7672,51.1896 8.3062,50.7066 L8.3062,50.7066 Z M50.6011,47.4501 L52.8841,49.3871 C52.4521,49.8951 52.0041,50.3891 51.5401,50.8671 L51.5401,50.8671 L49.3911,48.7851 C49.8091,48.3531 50.2131,47.9081 50.6011,47.4501 L50.6011,47.4501 Z M8.1865,45.912 C8.5405,46.396 8.9115,46.87 9.2975,47.33 L9.2975,47.33 L7.0015,49.254 C6.5735,48.743 6.1635,48.218 5.7695,47.679 L5.7695,47.679 Z M52.7534,44.5394 L55.2724,46.1534 C54.9124,46.7144 54.5384,47.2674 54.1424,47.8024 L54.1424,47.8024 L51.7324,46.0224 C52.0884,45.5404 52.4294,45.0444 52.7534,44.5394 L52.7534,44.5394 Z M6.2441,42.8407 C6.5301,43.3687 6.8341,43.8867 7.1541,44.3947 L7.1541,44.3947 L4.6241,45.9917 C4.2691,45.4287 3.9261,44.8577 3.6071,44.2707 L3.6071,44.2707 Z M54.4995,41.3617 L57.2135,42.6217 C56.9325,43.2287 56.6345,43.8247 56.3145,44.4077 L56.3145,44.4077 L53.6875,42.9667 C53.9765,42.4407 54.2475,41.9047 54.4995,41.3617 L54.4995,41.3617 Z M4.7388,39.5517 C4.9508,40.1137 5.1818,40.6667 5.4308,41.2117 L5.4308,41.2117 L2.7108,42.4557 C2.4348,41.8517 2.1758,41.2377 1.9388,40.6127 L1.9388,40.6127 Z M55.8033,37.9728 L58.6683,38.8578 C58.4713,39.4968 58.2473,40.1248 58.0083,40.7448 L58.0083,40.7448 L55.2153,39.6728 C55.4303,39.1128 55.6263,38.5458 55.8033,37.9728 L55.8033,37.9728 Z M3.6953,36.1142 C3.8303,36.6992 3.9863,37.2792 4.1593,37.8522 L4.1593,37.8522 L1.2933,38.7222 C1.1003,38.0872 0.9323,37.4412 0.7813,36.7882 L0.7813,36.7882 Z M56.6386,34.4283 L59.5916,34.9163 C59.4826,35.5773 59.3496,36.2303 59.1986,36.8763 L59.1986,36.8763 L56.2866,36.1933 C56.4236,35.6103 56.5406,35.0213 56.6386,34.4283 L56.6386,34.4283 Z M3.1191,32.5497 C3.1751,33.1487 3.2511,33.7447 3.3461,34.3367 L3.3461,34.3367 L0.3901,34.8137 C0.2841,34.1587 0.2001,33.4967 0.1371,32.8287 L0.1371,32.8287 Z M56.9838,30.9593 L59.9728,31.0643 C59.9498,31.7343 59.9118,32.4013 59.8458,33.0603 L59.8458,33.0603 L56.8608,32.7573 C56.9218,32.1613 56.9618,31.5623 56.9838,30.9593 L56.9838,30.9593 Z M0.03,28.8267 L3.02,28.9417 C3.007,29.2907 3,29.6407 3,29.9907 C3,30.2477 3.003,30.4997 3.01,30.7507 L3.01,30.7507 L0.021,30.8327 C0.014,30.5547 6.23279206e-13,30.2777 6.23279206e-13,29.9967 C6.23279206e-13,29.6047 0.015,29.2157 0.03,28.8267 L0.03,28.8267 Z M59.8548,27.0574 C59.9188,27.7154 59.9558,28.3824 59.9758,29.0524 L59.9758,29.0524 L56.9868,29.1454 C56.9678,28.5424 56.9298,27.9434 56.8718,27.3474 L56.8718,27.3474 Z M0.4299,24.9545 L3.3799,25.4545 C3.2799,26.0445 3.1999,26.6395 3.1389,27.2385 L3.1389,27.2385 L0.1539,26.9355 C0.2219,26.2675 0.3189,25.6095 0.4299,24.9545 L0.4299,24.9545 Z M59.1962,23.1081 C59.3472,23.7541 59.4802,24.4071 59.5902,25.0681 L59.5902,25.0681 L56.6372,25.5561 C56.5392,24.9631 56.4212,24.3751 56.2842,23.7931 L56.2842,23.7931 Z M1.3567,21.0527 L4.2197,21.9457 C4.0417,22.5177 3.8827,23.0957 3.7417,23.6797 L3.7417,23.6797 L0.8327,22.9827 C0.9897,22.3317 1.1587,21.6867 1.3567,21.0527 L1.3567,21.0527 Z M58.0146,19.2641 C58.2526,19.8841 58.4756,20.5121 58.6726,21.1521 L58.6726,21.1521 L55.8076,22.0351 C55.6306,21.4611 55.4346,20.8941 55.2206,20.3351 L55.2206,20.3351 Z M2.8242,17.2875 L5.5352,18.5575 C5.2812,19.1005 5.0442,19.6525 4.8272,20.2115 L4.8272,20.2115 L2.0392,19.1265 C2.2822,18.5035 2.5422,17.8895 2.8242,17.2875 L2.8242,17.2875 Z M56.3464,15.6405 C56.6654,16.2245 56.9604,16.8235 57.2404,17.4305 L57.2404,17.4305 L54.5244,18.6855 C54.2724,18.1405 54.0024,17.6035 53.7144,17.0775 L53.7144,17.0775 Z M4.7785,13.7612 L7.2925,15.3832 C6.9665,15.8872 6.6585,16.4032 6.3675,16.9272 L6.3675,16.9272 L3.7485,15.4752 C4.0725,14.8912 4.4175,14.3212 4.7785,13.7612 L4.7785,13.7612 Z M54.1797,12.2433 C54.5737,12.7793 54.9477,13.3323 55.3067,13.8953 L55.3067,13.8953 L52.7847,15.5033 C52.4617,14.9973 52.1217,14.5013 51.7657,14.0173 L51.7657,14.0173 Z M7.181,10.5325 L9.457,12.4755 C9.067,12.9325 8.692,13.4015 8.333,13.8825 L8.333,13.8825 L5.929,12.0915 C6.328,11.5565 6.749,11.0395 7.181,10.5325 L7.181,10.5325 Z M51.5959,9.1851 C52.0589,9.6651 52.5069,10.1591 52.9369,10.6681 L52.9369,10.6681 L50.6479,12.5991 C50.2609,12.1401 49.8579,11.6941 49.4419,11.2621 L49.4419,11.2621 Z M9.9829,7.6576 L11.9829,9.8876 C11.5359,10.2886 11.1019,10.7036 10.6819,11.1346 L10.6819,11.1346 L8.5399,9.0426 C9.0059,8.5656 9.4859,8.1026 9.9829,7.6576 L9.9829,7.6576 Z M48.6551,6.5109 C49.1771,6.9259 49.6891,7.3529 50.1831,7.8009 L50.1831,7.8009 L48.1641,10.0199 C47.7201,9.6159 47.2621,9.2269 46.7921,8.8529 L46.7921,8.8529 Z M13.0996,5.2115 L14.7896,7.6855 C14.2936,8.0245 13.8106,8.3785 13.3376,8.7495 L13.3376,8.7495 L11.4906,6.3975 C12.0136,5.9855 12.5476,5.5875 13.0996,5.2115 L13.0996,5.2115 Z M45.3478,4.2207 C45.9218,4.5627 46.4818,4.9247 47.0298,5.3027 L47.0298,5.3027 L45.3278,7.7657 C44.8338,7.4247 44.3288,7.0997 43.8128,6.7927 L43.8128,6.7927 Z M16.5753,3.1694 L17.9163,5.8444 C17.3803,6.1134 16.8533,6.4004 16.3363,6.7044 L16.3363,6.7044 L14.8193,4.1244 C15.3923,3.7874 15.9783,3.4694 16.5753,3.1694 L16.5753,3.1694 Z M41.7571,2.3904 C42.3721,2.6524 42.9731,2.9404 43.5661,3.2424 L43.5661,3.2424 L42.2111,5.9094 C41.6771,5.6374 41.1331,5.3834 40.5811,5.1484 L40.5811,5.1484 Z M20.2465,1.6274 L21.2185,4.4564 C20.6515,4.6514 20.0915,4.8654 19.5395,5.0974 L19.5395,5.0974 L18.3765,2.3334 C18.9885,2.0754 19.6145,1.8444 20.2465,1.6274 L20.2465,1.6274 Z M37.9394,1.0671 C38.5854,1.2441 39.2214,1.4421 39.8484,1.6601 L39.8484,1.6601 L38.8664,4.4861 C38.3004,4.2891 37.7284,4.1111 37.1494,3.9531 L37.1494,3.9531 Z M24.1394,0.5727 L24.7214,3.5117 C24.1324,3.6287 23.5474,3.7647 22.9694,3.9207 L22.9694,3.9207 L22.1924,1.0297 C22.8334,0.8577 23.4824,0.7037 24.1394,0.5727 L24.1394,0.5727 Z M33.9708,0.2663 C34.6348,0.3543 35.2938,0.4573 35.9438,0.5883 L35.9438,0.5883 L35.3528,3.5273 C34.7658,3.4093 34.1738,3.3103 33.5778,3.2323 L33.5778,3.2323 Z M28.1111,0.0628 L28.2971,3.0498 C27.6961,3.0868 27.0981,3.1448 26.5041,3.2208 L26.5041,3.2208 L26.1211,0.2548 C26.7781,0.1698 27.4411,0.1038 28.1111,0.0628 L28.1111,0.0628 Z M30.118,-5.32907052e-14 C30.79,0.003 31.455,0.034 32.115,0.08 L32.115,0.08 L31.908,3.063 C31.31,3.021 30.71,2.999 30.106,2.997 L30.106,2.997 Z" id="形状结合"></path>
            <g transform="translate(30.000000, 29.705882) rotate(-180.000000) translate(-30.000000, -29.705882) translate(14.000000, 16.705882)" fill-rule="nonzero">
                <path d="M29.193776,12.086398 C29.0842559,19.334791 23.1771176,25.1533492 15.9278973,25.1533492 C8.67867701,25.1533492 2.77153877,19.334791 2.66201865,12.086398 L2.66201865,3.69774746 L29.193776,3.69774746 L29.193776,12.086398 Z" id="路径" fill="url(#linearGradient-1)"></path>
                <path d="M28.8909366,3.90670664 L2.96485802,3.90670664 C2.73533319,3.90490344 2.5208975,3.79204255 2.38946322,3.60386727 C2.00557329,2.66307103 1.44186134,1.80618771 0.729903453,1.08121529 L0.0485148751,0.387713142 C-0.00724605676,0.313426902 -0.0156259648,0.213799639 0.0269424764,0.13124266 C0.0695109175,0.0486856812 0.155532892,-0.00226561259 0.248388861,7.87354054e-05 L31.6074058,7.87354054e-05 C31.6991715,7.87260272e-05 31.7830612,0.0519254023 31.8241,0.134003122 C31.8651389,0.216080842 31.8562824,0.314300603 31.801223,0.387713142 L30.9563011,1.29623125 C30.4109105,1.88477585 29.9594333,2.55382019 29.6177511,3.27982913 L29.4602746,3.61598084 C29.3274694,3.79784746 29.1161294,3.90576575 28.8909366,3.90670664 L28.8909366,3.90670664 Z" id="路径" fill="url(#linearGradient-2)"></path>
                <g id="编组-4" transform="translate(9.142782, 6.559580)">
                    <path d="M6.78360114,13.427897 C3.12074803,13.427897 0.151418897,10.4585678 0.151418897,6.79571473 C0.151418897,3.13286162 3.12074803,0.163532488 6.78360114,0.163532488 C10.4464543,0.163532488 13.4157834,3.13286162 13.4157834,6.79571473 C13.4107789,10.4564929 10.4443793,13.4228925 6.78360114,13.427897 L6.78360114,13.427897 Z" id="路径" fill="#A7A7A7"></path>
                    <path d="M6.78360114,13.5732599 C3.03623769,13.5715873 -0.000557527726,10.5329843 -9.9475983e-15,6.78562053 C0.000557527726,3.03825674 3.03825677,0.00055751406 6.78562055,-1.52056145e-13 C10.5329843,-0.000557514061 13.5715873,3.03623771 13.5732599,6.78360116 C13.5699205,10.532042 10.532042,13.5699205 6.78360114,13.5732599 Z M6.78360114,0.308895403 C3.20684021,0.313912302 0.311055927,3.21692547 0.314952807,6.79368779 C0.318857558,10.3704501 3.220967,13.2671401 6.79773036,13.2643574 C10.3744937,13.2615706 13.2720891,10.3603652 13.2704212,6.78360116 C13.2654079,3.20457826 10.3626276,0.305867011 6.78360114,0.305867011 L6.78360114,0.308895403 Z" id="形状" fill="#373840"></path>
                    <path d="M6.78360114,12.6041739 C4.42939922,12.6041739 2.30700719,11.1860369 1.40609312,9.01103789 C0.505179056,6.83603892 1.00316256,4.33250682 2.6678347,2.66783468 C4.33250684,1.00316255 6.83603895,0.505179056 9.01103791,1.40609313 C11.1860369,2.30700721 12.6041739,4.42939925 12.6041739,6.78360116 C12.6008354,9.99683088 9.99683085,12.6008355 6.78360114,12.6041739 L6.78360114,12.6041739 Z" id="路径" fill="#6D6D6D"></path>
                    <path d="M6.78360114,10.5842353 C4.68456889,10.5842353 2.98296706,8.8826334 2.98296706,6.78360115 C2.98296706,4.6845689 4.68456892,2.98296706 6.78360117,2.98296706 C8.88263343,2.98296706 10.5842353,4.68456891 10.5842353,6.78360116 C10.5825653,8.88194131 8.88194128,10.5825653 6.78360114,10.5842353 L6.78360114,10.5842353 Z" id="路径" fill="url(#radialGradient-3)"></path>
                    <path d="M3.25855086,4.08227396 C3.25855086,4.47501851 3.46807755,4.83792944 3.80820431,5.03430172 C4.14833106,5.230674 4.5673845,5.230674 4.90751126,5.03430172 C5.24763801,4.83792944 5.45716471,4.47501851 5.45716471,4.08227396 C5.45716471,3.47514351 4.96498823,2.98296704 4.35785778,2.98296704 C3.75072733,2.98296704 3.25855086,3.47514351 3.25855086,4.08227396 L3.25855086,4.08227396 Z" id="路径" fill="#FFFFFF"></path>
                    <path d="M9.10637913,9.4122469 C9.10633939,9.59079363 9.20157011,9.75579462 9.3561895,9.84507946 C9.51080888,9.93436431 9.7013193,9.93436431 9.85593868,9.84507946 C10.0105581,9.75579462 10.1057888,9.59079363 10.1057491,9.4122469 C10.1057888,9.23370017 10.0105581,9.06869918 9.85593868,8.97941434 C9.7013193,8.89012949 9.51080888,8.89012949 9.3561895,8.97941434 C9.20157011,9.06869918 9.10633939,9.23370017 9.10637913,9.4122469 L9.10637913,9.4122469 Z" id="路径" fill="#FFFFFF"></path>
                </g>
                <path d="M15.2510513,22.6282366 C15.2510513,23.001212 15.5534077,23.3035684 15.9263831,23.3035684 C16.2993586,23.3035684 16.6017149,23.001212 16.6017149,22.6282366 C16.6017149,22.2552611 16.2993586,21.9529048 15.9263831,21.9529048 C15.5534077,21.9529048 15.2510513,22.2552611 15.2510513,22.6282366 L15.2510513,22.6282366 Z" id="路径" fill="#666666"></path>
            </g>
        </g>
    </g>
</svg>