<?xml version="1.0" encoding="utf-8"?>
<!-- Generator: Adobe Illustrator 23.0.3, SVG Export Plug-In . SVG Version: 6.00 Build 0)  -->
<svg version="1.1" id="图层_1" xmlns="http://www.w3.org/2000/svg" xmlns:xlink="http://www.w3.org/1999/xlink" x="0px" y="0px"
	 viewBox="0 0 1024 1024" style="enable-background:new 0 0 1024 1024;" xml:space="preserve">
<style type="text/css">
	.st0{clip-path:url(#SVGID_2_);}
</style>
<g>
	<defs>
		<path id="SVGID_1_" d="M514.2,0c11.5,0.1,22.8,0.6,34.1,1.4l-3.5,50.9c-10.2-0.7-20.5-1.1-30.8-1.1L514.2,0z M480,1.1l3.2,51
			c-10.3,0.6-20.5,1.6-30.6,2.9L446,4.4C457.2,2.9,468.5,1.8,480,1.1z M580,4.6c11.3,1.5,22.6,3.3,33.7,5.5l-10.1,50.2
			c-10-2-20.1-3.7-30.3-5L580,4.6z M412.1,9.8l9.9,50.2c-10.1,2-20,4.3-29.9,7l-13.3-49.3C389.8,14.7,400.9,12,412.1,9.8z
			 M647.8,18.2c11,3,21.9,6.4,32.6,10.1l-16.8,48.2c-9.7-3.4-19.4-6.4-29.3-9.1L647.8,18.2z M345.7,27.8l16.6,48.3
			c-9.7,3.3-19.2,7-28.7,10.9l-19.9-47.2C324.2,35.4,334.9,31.5,345.7,27.8z M712.9,40.8c10.5,4.5,20.8,9.4,30.9,14.5l-23.1,45.5
			c-9.1-4.6-18.4-9-27.8-13L712.9,40.8z M283,54.1l22.9,45.7c-9.2,4.6-18.1,9.5-27,14.7l-25.9-44C262.8,64.7,272.8,59.2,283,54.1z
			 M774.2,72.1c9.8,5.8,19.4,12,28.7,18.5l-29.1,42c-8.4-5.8-17.1-11.4-25.9-16.6L774.2,72.1z M223.7,89l28.9,42.2
			c-8.5,5.8-16.7,11.8-24.8,18.2l-31.5-40.1C205.1,102.2,214.2,95.4,223.7,89z M830.7,111.1c8.9,7.1,17.7,14.4,26.1,22L822.3,171
			c-7.6-6.9-15.4-13.5-23.4-19.9L830.7,111.1z M170.4,130.7l34.1,38.1c-7.6,6.8-15,13.9-22.2,21.3l-36.6-35.7
			C153.8,146.2,162,138.3,170.4,130.7z M880.9,156.8c7.9,8.2,15.6,16.6,22.9,25.3l-39.1,33c-6.6-7.8-13.5-15.4-20.6-22.8
			L880.9,156.8z M122.6,179.8l38.9,33.2c-6.7,7.8-13.1,15.8-19.2,24l-41-30.6C108,197.3,115.2,188.4,122.6,179.8z M925,209
			c6.7,9.1,13.1,18.6,19.2,28.2l-43.1,27.4c-5.5-8.6-11.3-17.1-17.4-25.4L925,209z M81.6,234.9l42.9,27.7
			c-5.6,8.6-10.8,17.4-15.8,26.4L64,264.1C69.5,254.2,75.4,244.4,81.6,234.9z M962,267c5.4,10,10.5,20.2,15.3,30.5l-46.4,21.4
			c-4.3-9.3-8.9-18.5-13.8-27.4L962,267z M48.2,295.1l46.3,21.7c-4.3,9.3-8.4,18.7-12.1,28.2l-47.6-18.5
			C39,315.8,43.4,305.3,48.2,295.1z M990.5,328.8c4.1,10.6,7.9,21.3,11.2,32.2l-48.9,15.1c-3-9.8-6.4-19.5-10-29L990.5,328.8z
			 M23.2,359.3L72,374.6c-3,9.8-5.8,19.6-8.2,29.6l-49.7-11.9C16.9,381.2,19.8,370.1,23.2,359.3z M1010.7,394.4
			c2.6,11,4.8,22.2,6.7,33.5l-50.4,8.3c-1.7-10.1-3.7-20.2-6-30.1L1010.7,394.4z M7.3,425.9l50.4,8.5c-1.7,10.1-3.1,20.2-4.1,30.4
			l-51-5.2C3.8,448.3,5.4,437.1,7.3,425.9z M1021.9,461.8c1.1,11.2,1.7,22.6,2.1,34l-51,1.6c-0.3-10.3-1-20.5-2-30.7L1021.9,461.8z
			 M0.5,492l51,2c-0.2,6-0.3,11.9-0.3,17.9c0,4.4,0.1,8.7,0.2,13l-51,1.4C0.2,521.5,0,516.8,0,512C0,505.3,0.3,498.6,0.5,492z
			 M972.9,528.4l51,1.8c-0.4,11.4-1,22.8-2.2,34.1l-51-5.2C971.9,548.9,972.5,538.7,972.9,528.4z M53.3,555.5
			c1,10.2,2.3,20.4,3.9,30.5l-50.5,8.1c-1.8-11.2-3.2-22.5-4.3-33.9L53.3,555.5z M967,587.6l50.4,8.3c-1.9,11.3-4.1,22.4-6.7,33.5
			L961,617.7C963.4,607.8,965.3,597.7,967,587.6z M63.1,616.4c2.3,10,5,19.9,7.9,29.7l-48.9,14.8c-3.3-10.8-6.2-21.9-8.7-33
			L63.1,616.4z M952.8,648.1l48.9,15.1c-3.4,10.9-7.2,21.6-11.3,32.2l-47.7-18.3C946.4,667.6,949.7,657.9,952.8,648.1z M80.9,675
			c3.6,9.6,7.6,19,11.8,28.3l-46.4,21.2c-4.7-10.3-9.1-20.8-13.2-31.5L80.9,675z M930.5,705.9l46.3,21.5
			c-4.8,10.4-9.9,20.5-15.3,30.5l-44.9-24.6C921.6,724.3,926.2,715.2,930.5,705.9z M106.6,731.2c4.9,9,10.1,17.9,15.5,26.5L78.9,785
			c-6.1-9.6-11.9-19.4-17.4-29.4L106.6,731.2z M900.7,760.2l43,27.5c-6.1,9.6-12.5,19-19.3,28.1l-41.1-30.4
			C889.3,777.2,895.2,768.8,900.7,760.2z M139.8,783.6c6,8.3,12.4,16.3,19,24.2l-39.2,32.8c-7.3-8.7-14.3-17.7-21-26.9L139.8,783.6z
			 M863.9,809.8l39,33.1c-7.4,8.7-15,17.1-22.9,25.3l-36.7-35.5C850.4,825.3,857.3,817.7,863.9,809.8z M178.8,830.2
			c7.1,7.4,14.4,14.6,22,21.5l-34.6,37.7c-8.4-7.7-16.5-15.7-24.3-24L178.8,830.2z M821.8,853.4l34.4,37.9
			c-8.4,7.6-17.2,14.9-26.1,22l-31.7-40C806.4,866.9,814.2,860.3,821.8,853.4z M224.3,871.9c8,6.4,16.2,12.5,24.6,18.4l-29.2,41.9
			c-9.3-6.5-18.5-13.3-27.3-20.4L224.3,871.9z M773.1,892l29,42.1c-9.4,6.5-19,12.6-28.8,18.4l-26.1-43.9
			C756,903.3,764.6,897.8,773.1,892z M275.1,907.3c8.8,5.3,17.8,10.2,26.9,14.9l-23.3,45.4c-10.1-5.2-20.1-10.7-29.9-16.5
			L275.1,907.3z M719.9,923.5l23,45.6c-10.1,5.1-20.4,10-30.9,14.5l-20-47.1C701.4,932.4,710.7,928.1,719.9,923.5z M330.3,935.5
			c9.4,4,18.9,7.8,28.6,11.2l-17,48.2c-10.8-3.8-21.4-7.9-31.8-12.4L330.3,935.5z M663.4,947.4l16.7,48.2
			c-10.7,3.7-21.6,7.1-32.6,10.1l-13.5-49.3C644,953.8,653.7,950.8,663.4,947.4z M388.9,956.1c9.9,2.7,19.8,5.1,29.9,7.2l-10.3,50.1
			c-11.2-2.3-22.2-5.1-33.2-8.1L388.9,956.1z M603.9,963.7l10.1,50.2c-11.1,2.2-22.3,4-33.7,5.5l-6.7-50.6
			C583.8,967.4,593.9,965.7,603.9,963.7z M448.5,968.4c10.1,1.4,20.3,2.5,30.6,3.2l-3.6,50.9c-11.4-0.8-22.7-2-34-3.5L448.5,968.4z
			 M543,971.8l3.3,51c-11.3,0.7-22.7,1.2-34.1,1.2v-51.2C522.5,972.8,532.8,972.4,543,971.8z"/>
	</defs>
	<clipPath id="SVGID_2_">
		<use xlink:href="#SVGID_1_"  style="overflow:visible;"/>
	</clipPath>
	<g class="st0">
		<defs>
			<rect id="SVGID_3_" x="-17.1" y="-17" width="1058.1" height="1058.1"/>
		</defs>
		<clipPath id="SVGID_4_">
			<use xlink:href="#SVGID_3_"  style="overflow:visible;"/>
		</clipPath>
		<g style="clip-path:url(#SVGID_4_);">
			
				<image style="overflow:visible;" width="62" height="61" xlink:href="752FA08A0200FFB2.png"  transform="matrix(17.0667 0 0 17.3456 -17.0667 -17.0411)">
			</image>
		</g>
	</g>
</g>
</svg>
