<?xml version="1.0" encoding="UTF-8"?>
<svg width="60px" height="60px" viewBox="0 0 60 60" version="1.1" xmlns="http://www.w3.org/2000/svg" xmlns:xlink="http://www.w3.org/1999/xlink">
    <title>icon/设备图/控制平板/on</title>
    <defs>
        <circle id="path-1" cx="30" cy="30" r="30"></circle>
        <mask id="mask-2" maskContentUnits="userSpaceOnUse" maskUnits="objectBoundingBox" x="0" y="0" width="60" height="60" fill="white">
            <use xlink:href="#path-1"></use>
        </mask>
        <rect id="path-3" x="0" y="0" width="40" height="27" rx="2"></rect>
        <filter x="-28.8%" y="-42.6%" width="157.5%" height="185.2%" filterUnits="objectBoundingBox" id="filter-4">
            <feGaussianBlur stdDeviation="6.5" in="SourceAlpha" result="shadowBlurInner1"></feGaussianBlur>
            <feOffset dx="0" dy="10" in="shadowBlurInner1" result="shadowOffsetInner1"></feOffset>
            <feComposite in="shadowOffsetInner1" in2="SourceAlpha" operator="arithmetic" k2="-1" k3="1" result="shadowInnerInner1"></feComposite>
            <feColorMatrix values="0 0 0 0 0.924496936   0 0 0 0 0.920198171   0 0 0 0 1  0 0 0 0.4 0" type="matrix" in="shadowInnerInner1"></feColorMatrix>
        </filter>
    </defs>
    <g id="icon/设备图/控制平板/on" stroke="none" stroke-width="1" fill="none" fill-rule="evenodd">
        <g id="编组-2">
            <use id="椭圆形" stroke="" mask="url(#mask-2)" stroke-width="6" opacity="0" stroke-dasharray="2,2" xlink:href="#path-1"></use>
            <g id="编组" transform="translate(10.000000, 16.500000)">
                <g id="矩形">
                    <use fill="#333333" fill-rule="evenodd" xlink:href="#path-3"></use>
                    <use fill="black" fill-opacity="1" filter="url(#filter-4)" xlink:href="#path-3"></use>
                </g>
                <rect id="矩形备份" fill="#F6F6F6" fill-rule="nonzero" x="2.63645379" y="0.576013141" width="34.7270924" height="25.8479737" rx="0.5"></rect>
                <rect id="矩形" fill="#FAAD14" x="12" y="17.1192256" width="16" height="3" rx="0.6"></rect>
                <path d="M17.587759,19.2054014 C17.7015961,19.1476334 17.7827262,19.0652289 17.8311494,18.9581881 C17.8685288,18.8749342 17.8935899,18.7687429 17.9063328,18.6396143 L17.9063328,18.6396143 L18.247844,18.6396143 L18.247844,19.1913842 L18.368902,19.1913842 L18.368902,18.6396143 L18.6377783,18.6396143 L18.6377783,18.5223792 L18.368902,18.5223792 L18.368902,18.2165483 L18.5727893,18.2165483 L18.5727893,18.0993131 L17.5686446,18.0993131 L17.5686446,18.2165483 L17.7929206,18.2165483 L17.7929206,18.4943447 L17.7916463,18.5223792 L17.5023812,18.5223792 L17.5023812,18.6396143 L17.7827262,18.6396143 C17.7725318,18.7322131 17.7555412,18.8107947 17.7317544,18.8753589 C17.6943751,18.9671082 17.6247136,19.0431412 17.52277,19.1034578 L17.52277,19.1034578 L17.587759,19.2054014 Z M18.247844,18.5223792 L17.9139786,18.5223792 L17.9152529,18.5083619 L17.9152529,18.2165483 L18.247844,18.2165483 L18.247844,18.5223792 Z M18.8365684,19.2143215 C18.9079289,19.1480581 18.9678208,19.0703261 19.016244,18.9811255 C19.0604196,19.0303982 19.0977989,19.0758481 19.128382,19.1174751 L19.128382,19.1174751 L19.2099369,19.0219029 C19.1759557,18.9768778 19.1296563,18.9237822 19.0710387,18.862616 C19.1296563,18.7122492 19.162788,18.5355469 19.1704338,18.3325092 L19.1704338,18.3325092 L19.1704338,18.2649715 L18.9894838,18.2649715 C18.9988287,18.1995577 19.009023,18.1226752 19.0200669,18.0343241 L19.0200669,18.0343241 L18.9015575,18.0241297 C18.8939117,18.0895435 18.8828678,18.1698241 18.8684258,18.2649715 L18.8684258,18.2649715 L18.7601107,18.2649715 L18.7601107,18.3809324 L18.8493114,18.3809324 C18.8280731,18.4981675 18.8021624,18.6149779 18.7715793,18.7313636 C18.8242502,18.7814859 18.8781954,18.8350063 18.9334148,18.8919248 C18.8875402,18.9811255 18.8297722,19.0567336 18.7601107,19.1187493 L18.7601107,19.1187493 L18.8365684,19.2143215 Z M19.8088557,18.595014 L19.9197194,18.5414936 C19.8585532,18.4021706 19.7965375,18.2798383 19.7336723,18.1744965 L19.7336723,18.1744965 L19.6304544,18.2241941 C19.6686832,18.2921565 19.6996911,18.3511988 19.7234779,18.4013211 C19.6087913,18.4191612 19.4902819,18.4319042 19.3679495,18.43955 C19.435912,18.3452521 19.5055734,18.2212207 19.576934,18.0674557 L19.576934,18.0674557 L19.4622474,18.0292269 C19.3492599,18.2874841 19.2613335,18.426807 19.1984683,18.4471957 L19.1984683,18.4471957 L19.2175827,18.5567851 C19.4197709,18.5440422 19.6041189,18.526202 19.7706268,18.5032647 C19.7833698,18.5312992 19.7961128,18.5618823 19.8088557,18.595014 L19.8088557,18.595014 Z M18.9843867,18.7746896 L18.9015575,18.6956833 C18.9253443,18.6132789 18.9482816,18.5083619 18.9703694,18.3809324 L18.9703694,18.3809324 L19.0582958,18.3809324 C19.05065,18.524503 19.0260136,18.6557554 18.9843867,18.7746896 L18.9843867,18.7746896 Z M19.3755953,19.2092243 L19.3755953,19.1378638 L19.7247522,19.1378638 L19.7247522,19.2092243 L19.8407131,19.2092243 L19.8407131,18.6498087 L19.2609087,18.6498087 L19.2609087,19.2092243 L19.3755953,19.2092243 Z M19.7247522,19.0244515 L19.3755953,19.0244515 L19.3755953,18.7606724 L19.7247522,18.7606724 L19.7247522,19.0244515 Z M20.0815549,18.5644309 C20.1605612,18.5211049 20.2344703,18.4752302 20.3032823,18.426807 L20.3032823,18.426807 L20.3032823,18.5274763 L20.936607,18.5274763 L20.936607,18.4319042 C21.0028704,18.4803274 21.0738062,18.5240782 21.1494143,18.5631566 L21.1494143,18.5631566 L21.2156777,18.4459214 C21.0083923,18.3448273 20.8240443,18.2059292 20.6626335,18.0292269 L20.6626335,18.0292269 L20.5734329,18.0292269 C20.4264642,18.1948853 20.2408418,18.3342082 20.0165658,18.4471957 L20.0165658,18.4471957 L20.0815549,18.5644309 Z M20.9111211,18.4127898 L20.3223967,18.4127898 C20.4362338,18.3303853 20.5347793,18.2386361 20.6180332,18.137542 C20.7029862,18.2386361 20.8006822,18.3303853 20.9111211,18.4127898 L20.9111211,18.4127898 Z M21.0092419,19.2066757 L21.1099112,19.1353152 C21.0453469,19.0401678 20.9557215,18.9305784 20.8410349,18.806547 L20.8410349,18.806547 L20.746737,18.8664389 C20.7951603,18.9199593 20.837212,18.9700816 20.8728923,19.0168057 C20.7012872,19.0371945 20.5245849,19.052486 20.3427854,19.0626804 C20.4183936,18.9828245 20.484657,18.8906505 20.5415755,18.7861583 L20.5415755,18.7861583 L21.1353971,18.7861583 L21.1353971,18.6689231 L20.1032179,18.6689231 L20.1032179,18.7861583 L20.401403,18.7861583 C20.3538293,18.8745094 20.2952117,18.9590377 20.2255503,19.039743 C20.2119578,19.0541851 20.1911443,19.0652289 20.1631098,19.0728747 L20.1631098,19.0728747 L20.1962415,19.1773669 C20.4952761,19.1595268 20.7433389,19.1353152 20.9404299,19.1047321 C20.9608186,19.1336161 20.983756,19.1675973 21.0092419,19.2066757 L21.0092419,19.2066757 Z M22.0821985,18.3643665 L22.1777706,18.2981032 C22.1361437,18.2199464 22.075827,18.1286219 21.9968207,18.0241297 L21.9968207,18.0241297 L21.9063457,18.0903931 C21.9802549,18.1923367 22.0388725,18.2836612 22.0821985,18.3643665 L22.0821985,18.3643665 Z M21.6030635,18.314669 L21.6858927,18.2305655 C21.6323723,18.1710984 21.5639851,18.1082332 21.4807311,18.0419698 L21.4807311,18.0419698 L21.3966276,18.1222504 C21.4858283,18.1902129 21.5546402,18.2543524 21.6030635,18.314669 L21.6030635,18.314669 Z M22.4262582,19.2117729 L22.4976188,19.1072807 C22.3718883,19.0410173 22.2605998,18.9526662 22.1637534,18.8422273 C22.2911829,18.6561802 22.3752864,18.4144888 22.4160639,18.1171533 L22.4160639,18.1171533 L22.3013773,18.0929416 C22.265697,18.3537474 22.1934869,18.5695281 22.0847471,18.7402836 C21.9751577,18.5848196 21.8910542,18.3936753 21.8324366,18.1668508 L21.8324366,18.1668508 L21.7279444,18.2254684 C21.7984554,18.4692835 21.893178,18.6740203 22.0121123,18.8396787 C21.9186639,18.9543653 21.8018535,19.0439907 21.6616811,19.108555 L21.6616811,19.108555 L21.7279444,19.2117729 C21.8681169,19.1489077 21.9891749,19.0580079 22.0911186,18.9390737 C22.1896641,19.0537603 22.3013773,19.14466 22.4262582,19.2117729 L22.4262582,19.2117729 Z M21.4985713,19.1595268 C21.5869224,19.0983606 21.6684773,19.0316725 21.7432359,18.9594624 L21.7432359,18.9594624 L21.7101043,18.8307586 C21.6684773,18.8723856 21.6323723,18.9067916 21.6017892,18.9339765 L21.6017892,18.9339765 L21.6017892,18.4115155 L21.307427,18.4115155 L21.307427,18.5274763 L21.4858283,18.5274763 L21.4858283,18.9849483 C21.4858283,19.0104342 21.4747844,19.0316725 21.4526966,19.0486631 L21.4526966,19.0486631 L21.4985713,19.1595268 Z" id="开始会议" fill="#FFFFFF" fill-rule="nonzero"></path>
                <circle id="椭圆形" stroke="#FFFFFF" stroke-width="0.2" fill="#FFFFFF" cx="38.7305079" cy="13.5" r="1"></circle>
                <circle id="椭圆形备份" fill="#D8D8D8" cx="1.41253009" cy="13.5" r="1"></circle>
            </g>
        </g>
    </g>
</svg>