<?xml version="1.0" encoding="UTF-8"?>
<svg width="60px" height="60px" viewBox="0 0 60 60" version="1.1" xmlns="http://www.w3.org/2000/svg" xmlns:xlink="http://www.w3.org/1999/xlink">
    <title>icon/设备图/窗帘/off</title>
    <defs>
        <linearGradient x1="50%" y1="0%" x2="50%" y2="100%" id="linearGradient-1">
            <stop stop-color="#9F9F9F" offset="0%"></stop>
            <stop stop-color="#333333" offset="62.9117399%"></stop>
            <stop stop-color="#8C8C8C" offset="100%"></stop>
        </linearGradient>
        <linearGradient x1="50%" y1="0%" x2="50%" y2="100%" id="linearGradient-2">
            <stop stop-color="#FFFFFF" offset="0%"></stop>
            <stop stop-color="#B3B3B3" offset="100%"></stop>
        </linearGradient>
    </defs>
    <g id="icon/设备图/窗帘/off" stroke="none" stroke-width="1" fill="none" fill-rule="evenodd">
        <g id="编组-2" fill-rule="nonzero">
            <g id="编组" transform="translate(14.000000, 14.000000)">
                <path d="M31.2593775,-5.47117907e-14 C30.9298586,-5.47117907e-14 20.7399144,-5.47117907e-14 0.689545091,-5.47117907e-14 C0.287459337,-5.47117907e-14 2.31163237e-13,0.459696709 2.31163237e-13,0.919393473 C2.31163237e-13,1.37909024 0.229848382,1.83878695 0.689545091,1.83878695 L31.2593775,1.83878695 C31.7190742,1.83878695 31.9607376,1.47110229 31.9607376,0.996789482 C31.9607376,0.522476676 31.7536559,-5.47117907e-14 31.2593775,-5.47117907e-14 Z" id="路径" fill="url(#linearGradient-1)"></path>
                <path d="M5.74620911,20.6863527 C6.20590582,20.6863527 6.4357542,20.9162011 6.4357542,21.3758978 L6.4357542,21.3758978 L6.4357542,21.8355946 C6.4357542,22.065443 6.20590582,22.5251397 5.74620911,22.5251397 L5.74620911,22.5251397 L1.60893856,22.5251397 C1.14924185,22.5251397 0.919393473,22.2952913 0.919393473,21.8355946 L0.919393473,21.8355946 L0.919393473,21.3758978 C0.919393473,20.9162011 1.37909024,20.6863527 1.83878695,20.6863527 L1.83878695,20.6863527 Z M30.339984,20.6863527 C30.7996807,20.6863527 31.0295291,20.9162011 31.0295291,21.3758978 L31.0295291,21.3758978 L31.0295291,21.8355946 C31.0295291,22.065443 30.7996807,22.5251397 30.339984,22.5251397 L30.339984,22.5251397 L26.2027135,22.5251397 C25.7430168,22.5251397 25.5131684,22.2952913 25.5131684,21.8355946 L25.5131684,21.8355946 L25.5131684,21.3758978 C25.5131684,21.1460494 25.7430168,20.6863527 26.2027135,20.6863527 L26.2027135,20.6863527 Z" id="形状结合" fill="#666666"></path>
                <path d="M6.20590582,23.2146848 C6.4357542,27.1221069 9.19393457,30.5698324 9.19393457,30.5698324 C9.19393457,30.5698324 8.96408624,32.6384676 7.35514768,31.0295291 C5.74620911,29.4205906 4.82681558,31.4892259 4.82681564,31.4892259 C4.82681569,31.4892259 3.44772551,32.6384677 3.21787713,31.4892259 C2.75818042,30.1101357 1.83878695,31.4892259 1.83878695,31.4892259 C1.83878695,31.4892259 0.919393473,32.6384677 0.919393473,31.2593775 L0.919393473,31.2593775 L0.919393473,23.2146848 Z M12.4118116,2.52833204 C12.8715084,2.52833204 13.1013567,2.98802875 13.1013567,3.21787713 C12.64166,5.51636078 11.2625698,13.3312051 7.584996,17.698324 C6.89545091,18.3878691 6.66560258,19.0774142 6.4357542,19.7669593 L6.4357542,19.7669593 L0.919393473,19.7669593 L0.919393473,3.21787713 C0.919393473,2.75818042 1.14924185,2.52833204 1.60893856,2.52833204 L1.60893856,2.52833204 Z" id="形状结合" fill="url(#linearGradient-2)"></path>
                <path d="M31.2593775,23.2146848 L31.2593775,31.2593775 C31.2593775,32.6384677 30.339984,31.4892259 30.339984,31.4892259 C30.339984,31.4892259 29.1907422,30.3399841 28.9608938,31.4892259 C28.5011971,32.6384677 27.3519554,31.4892259 27.3519553,31.4892259 C27.3519553,31.4892258 26.4325618,29.6504389 24.8236233,31.0295291 C23.2146848,32.6384677 22.9848364,30.5698324 22.9848364,30.5698324 C22.9848364,30.5698324 25.7430168,27.1221069 26.2027135,23.2146848 L26.2027135,23.2146848 L31.2593775,23.2146848 Z M30.339984,2.52833204 C30.7996808,2.52833204 31.0295291,2.98802875 31.2593775,3.21787713 L31.2593775,3.21787713 L31.2593775,19.7669593 L25.7430168,19.7669593 C25.5131684,19.0774142 25.0534717,18.3878691 24.593775,17.698324 C20.9162011,13.3312051 19.5371109,5.51636078 19.0774142,3.21787713 C19.0774142,2.75818042 19.3072626,2.52833204 19.5371109,2.52833204 L19.5371109,2.52833204 Z" id="形状结合" fill="url(#linearGradient-2)"></path>
            </g>
        </g>
    </g>
</svg>