<?xml version="1.0" encoding="UTF-8"?>
<svg width="60px" height="60px" viewBox="0 0 60 60" version="1.1" xmlns="http://www.w3.org/2000/svg" xmlns:xlink="http://www.w3.org/1999/xlink">
    <title>icon/设备图/窗帘/on</title>
    <defs>
        <circle id="path-1" cx="30" cy="30" r="30"></circle>
        <mask id="mask-2" maskContentUnits="userSpaceOnUse" maskUnits="objectBoundingBox" x="0" y="0" width="60" height="60" fill="white">
            <use xlink:href="#path-1"></use>
        </mask>
        <linearGradient x1="53.6328331%" y1="17.1298822%" x2="53.6328331%" y2="76.8541399%" id="linearGradient-3">
            <stop stop-color="#F5F5F8" offset="0%"></stop>
            <stop stop-color="#1E1D23" offset="100%"></stop>
        </linearGradient>
        <linearGradient x1="50%" y1="0%" x2="50%" y2="98.9729021%" id="linearGradient-4">
            <stop stop-color="#EDEFFF" offset="0%"></stop>
            <stop stop-color="#33334A" stop-opacity="0.2" offset="100%"></stop>
        </linearGradient>
        <path d="M31.2593775,-5.47117907e-14 C30.9298586,-5.47117907e-14 20.7399144,-5.47117907e-14 0.689545091,-5.47117907e-14 C0.287459337,-5.47117907e-14 2.31163237e-13,0.459696709 2.31163237e-13,0.919393473 C2.31163237e-13,1.37909024 0.229848382,1.83878695 0.689545091,1.83878695 L31.2593775,1.83878695 C31.7190742,1.83878695 31.9607376,1.47110229 31.9607376,0.996789482 C31.9607376,0.522476676 31.7536559,-5.47117907e-14 31.2593775,-5.47117907e-14 Z" id="path-5"></path>
        <filter x="-36.0%" y="-625.4%" width="172.0%" height="1350.8%" filterUnits="objectBoundingBox" id="filter-6">
            <feGaussianBlur stdDeviation="6.5" in="SourceAlpha" result="shadowBlurInner1"></feGaussianBlur>
            <feOffset dx="0" dy="10" in="shadowBlurInner1" result="shadowOffsetInner1"></feOffset>
            <feComposite in="shadowOffsetInner1" in2="SourceAlpha" operator="arithmetic" k2="-1" k3="1" result="shadowInnerInner1"></feComposite>
            <feColorMatrix values="0 0 0 0 0.924496936   0 0 0 0 0.920198171   0 0 0 0 1  0 0 0 0.4 0" type="matrix" in="shadowInnerInner1"></feColorMatrix>
        </filter>
        <path d="M5.74620911,20.6863527 C6.20590582,20.6863527 6.4357542,20.9162011 6.4357542,21.3758978 L6.4357542,21.3758978 L6.4357542,21.8355946 C6.4357542,22.065443 6.20590582,22.5251397 5.74620911,22.5251397 L5.74620911,22.5251397 L1.60893856,22.5251397 C1.14924185,22.5251397 0.919393473,22.2952913 0.919393473,21.8355946 L0.919393473,21.8355946 L0.919393473,21.3758978 C0.919393473,20.9162011 1.37909024,20.6863527 1.83878695,20.6863527 L1.83878695,20.6863527 Z M30.339984,20.6863527 C30.7996807,20.6863527 31.0295291,20.9162011 31.0295291,21.3758978 L31.0295291,21.3758978 L31.0295291,21.8355946 C31.0295291,22.065443 30.7996807,22.5251397 30.339984,22.5251397 L30.339984,22.5251397 L26.2027135,22.5251397 C25.7430168,22.5251397 25.5131684,22.2952913 25.5131684,21.8355946 L25.5131684,21.8355946 L25.5131684,21.3758978 C25.5131684,21.1460494 25.7430168,20.6863527 26.2027135,20.6863527 L26.2027135,20.6863527 Z" id="path-7"></path>
        <filter x="-38.2%" y="-625.4%" width="176.4%" height="1350.8%" filterUnits="objectBoundingBox" id="filter-8">
            <feGaussianBlur stdDeviation="6.5" in="SourceAlpha" result="shadowBlurInner1"></feGaussianBlur>
            <feOffset dx="0" dy="10" in="shadowBlurInner1" result="shadowOffsetInner1"></feOffset>
            <feComposite in="shadowOffsetInner1" in2="SourceAlpha" operator="arithmetic" k2="-1" k3="1" result="shadowInnerInner1"></feComposite>
            <feColorMatrix values="0 0 0 0 0.924496936   0 0 0 0 0.920198171   0 0 0 0 1  0 0 0 0.4 0" type="matrix" in="shadowInnerInner1"></feColorMatrix>
        </filter>
        <linearGradient x1="50%" y1="0%" x2="50%" y2="100%" id="linearGradient-9">
            <stop stop-color="#EAEBF3" offset="0%"></stop>
            <stop stop-color="#4F5167" offset="100%"></stop>
        </linearGradient>
    </defs>
    <g id="icon/设备图/窗帘/on" stroke="none" stroke-width="1" fill="none" fill-rule="evenodd">
        <g id="编组-2">
            <use id="椭圆形" stroke="" mask="url(#mask-2)" stroke-width="6" opacity="0" stroke-dasharray="2,2" xlink:href="#path-1"></use>
            <g id="编组" transform="translate(14.000000, 14.000000)">
                <g id="路径">
                    <use fill="url(#linearGradient-3)" fill-rule="evenodd" xlink:href="#path-5"></use>
                    <use fill="black" fill-opacity="1" filter="url(#filter-6)" xlink:href="#path-5"></use>
                    <path stroke="url(#linearGradient-4)" stroke-width="0.1" d="M31.2593775,0.05 C31.4651999,0.05 31.6164767,0.149036813 31.7207178,0.297186725 C31.8524279,0.484376217 31.9107376,0.74776941 31.9107376,0.996789482 C31.9107376,1.2296542 31.8506808,1.4361611 31.7304743,1.5804715 C31.6217415,1.71100758 31.4635801,1.78878695 31.2593775,1.78878695 L31.2593775,1.78878695 L0.689545091,1.78878695 C0.493079471,1.78878695 0.342559447,1.69707246 0.237500645,1.55699406 C0.111750282,1.3893269 0.05,1.15410574 0.05,0.919393473 C0.05,0.691843097 0.123480114,0.464109323 0.248205379,0.297808966 C0.359263094,0.149732011 0.51155756,0.05 0.689545091,0.05 L0.689545091,0.05 Z" stroke-linejoin="square"></path>
                </g>
                <g id="形状结合">
                    <use fill="#0D0C1B" fill-rule="evenodd" xlink:href="#path-7"></use>
                    <use fill="black" fill-opacity="1" filter="url(#filter-8)" xlink:href="#path-7"></use>
                </g>
                <path d="M6.20590582,23.2146848 C6.4357542,27.1221069 9.19393457,30.5698324 9.19393457,30.5698324 C9.19393457,30.5698324 8.96408624,32.6384676 7.35514768,31.0295291 C5.74620911,29.4205906 4.82681558,31.4892259 4.82681564,31.4892259 C4.82681569,31.4892259 3.44772551,32.6384677 3.21787713,31.4892259 C2.75818042,30.1101357 1.83878695,31.4892259 1.83878695,31.4892259 C1.83878695,31.4892259 0.919393473,32.6384677 0.919393473,31.2593775 L0.919393473,31.2593775 L0.919393473,23.2146848 Z M12.4118116,2.52833204 C12.8715084,2.52833204 13.1013567,2.98802875 13.1013567,3.21787713 C12.64166,5.51636078 11.2625698,13.3312051 7.584996,17.698324 C6.89545091,18.3878691 6.66560258,19.0774142 6.4357542,19.7669593 L6.4357542,19.7669593 L0.919393473,19.7669593 L0.919393473,3.21787713 C0.919393473,2.75818042 1.14924185,2.52833204 1.60893856,2.52833204 L1.60893856,2.52833204 Z" id="形状结合" fill="url(#linearGradient-9)" fill-rule="nonzero"></path>
                <path d="M31.2593775,23.2146848 L31.2593775,31.2593775 C31.2593775,32.6384677 30.339984,31.4892259 30.339984,31.4892259 C30.339984,31.4892259 29.1907422,30.3399841 28.9608938,31.4892259 C28.5011971,32.6384677 27.3519554,31.4892259 27.3519553,31.4892259 C27.3519553,31.4892258 26.4325618,29.6504389 24.8236233,31.0295291 C23.2146848,32.6384677 22.9848364,30.5698324 22.9848364,30.5698324 C22.9848364,30.5698324 25.7430168,27.1221069 26.2027135,23.2146848 L26.2027135,23.2146848 L31.2593775,23.2146848 Z M30.339984,2.52833204 C30.7996808,2.52833204 31.0295291,2.98802875 31.2593775,3.21787713 L31.2593775,3.21787713 L31.2593775,19.7669593 L25.7430168,19.7669593 C25.5131684,19.0774142 25.0534717,18.3878691 24.593775,17.698324 C20.9162011,13.3312051 19.5371109,5.51636078 19.0774142,3.21787713 C19.0774142,2.75818042 19.3072626,2.52833204 19.5371109,2.52833204 L19.5371109,2.52833204 Z" id="形状结合" fill="url(#linearGradient-9)" fill-rule="nonzero"></path>
            </g>
        </g>
    </g>
</svg>