<?xml version="1.0" encoding="UTF-8"?>
<svg width="60px" height="60px" viewBox="0 0 60 60" version="1.1" xmlns="http://www.w3.org/2000/svg" xmlns:xlink="http://www.w3.org/1999/xlink">
    <title>icon/设备图/显示器/on</title>
    <defs>
        <circle id="path-1" cx="30" cy="30" r="30"></circle>
        <mask id="mask-2" maskContentUnits="userSpaceOnUse" maskUnits="objectBoundingBox" x="0" y="0" width="60" height="60" fill="white">
            <use xlink:href="#path-1"></use>
        </mask>
        <radialGradient cx="12.1165089%" cy="6.0351949%" fx="12.1165089%" fy="6.0351949%" r="160.081701%" gradientTransform="translate(0.121165,0.060352),scale(0.667038,1.000000),rotate(36.600607),translate(-0.121165,-0.060352)" id="radialGradient-3">
            <stop stop-color="#FFFFFF" offset="0%"></stop>
            <stop stop-color="#333337" offset="100%"></stop>
        </radialGradient>
        <linearGradient x1="50%" y1="0%" x2="50%" y2="98.9729021%" id="linearGradient-4">
            <stop stop-color="#33334A" stop-opacity="0.2" offset="0%"></stop>
            <stop stop-color="#EDEFFF" offset="100%"></stop>
        </linearGradient>
        <path d="M1.0879794,0.0126509233 C0.501819957,0.0126509233 0.0253018466,0.489169034 0.0253018466,1.07532848 L0.0253018466,24.1759144 C0.0253018466,24.7620739 0.501819957,25.238592 1.0879794,25.238592 L36.780451,25.238592 C37.3666104,25.238592 37.8431286,24.7620739 37.8431286,24.1759144 L37.8431286,1.07532848 C37.8431286,0.489169034 37.3666104,0.0126509233 36.780451,0.0126509233 L1.0879794,0.0126509233 Z" id="path-5"></path>
        <filter x="-6.6%" y="-9.9%" width="113.2%" height="119.8%" filterUnits="objectBoundingBox" id="filter-6">
            <feGaussianBlur stdDeviation="2" in="SourceAlpha" result="shadowBlurInner1"></feGaussianBlur>
            <feOffset dx="0" dy="1" in="shadowBlurInner1" result="shadowOffsetInner1"></feOffset>
            <feComposite in="shadowOffsetInner1" in2="SourceAlpha" operator="arithmetic" k2="-1" k3="1" result="shadowInnerInner1"></feComposite>
            <feColorMatrix values="0 0 0 0 0.924496936   0 0 0 0 0.920198171   0 0 0 0 1  0 0 0 0.4 0" type="matrix" in="shadowInnerInner1"></feColorMatrix>
        </filter>
        <linearGradient x1="50%" y1="0%" x2="50%" y2="100%" id="linearGradient-7">
            <stop stop-color="#CCCCCC" offset="0%"></stop>
            <stop stop-color="#666666" offset="100%"></stop>
        </linearGradient>
        <linearGradient x1="50%" y1="0%" x2="50%" y2="100%" id="linearGradient-8">
            <stop stop-color="#FFE456" offset="0%"></stop>
            <stop stop-color="#FFFBE7" offset="100%"></stop>
        </linearGradient>
    </defs>
    <g id="icon/设备图/显示器/on" stroke="none" stroke-width="1" fill="none" fill-rule="evenodd">
        <use id="椭圆形" stroke="" mask="url(#mask-2)" stroke-width="6" opacity="0" stroke-dasharray="2,2" xlink:href="#path-1"></use>
        <g id="编组" transform="translate(11.000000, 14.800000)">
            <g id="形状结合">
                <use fill="url(#radialGradient-3)" fill-rule="evenodd" xlink:href="#path-5"></use>
                <use fill="black" fill-opacity="1" filter="url(#filter-6)" xlink:href="#path-5"></use>
                <path stroke="url(#linearGradient-4)" stroke-width="0.3" d="M36.780451,0.162650923 C37.0321617,0.162650923 37.2603019,0.265014255 37.4255335,0.430245927 C37.5907652,0.595477598 37.6931286,0.823617805 37.6931286,1.07532848 L37.6931286,1.07532848 L37.6931286,24.1759144 C37.6931286,24.4276251 37.5907652,24.6557653 37.4255335,24.820997 C37.2603019,24.9862286 37.0321617,25.088592 36.780451,25.088592 L36.780451,25.088592 L1.0879794,25.088592 C0.836268728,25.088592 0.608128522,24.9862286 0.44289685,24.820997 C0.277665178,24.6557653 0.175301847,24.4276251 0.175301847,24.1759144 L0.175301847,24.1759144 L0.175301847,1.07532848 C0.175301847,0.823617805 0.277665178,0.595477598 0.44289685,0.430245927 C0.608128522,0.265014255 0.836268728,0.162650923 1.0879794,0.162650923 L1.0879794,0.162650923 Z" stroke-linejoin="square"></path>
            </g>
            <path d="M23.8216886,25.7108931 L14.0425249,25.7108931 C13.9792702,25.7108931 13.9075817,25.7699308 13.8443271,25.8837891 L12.528631,28.203125 C12.2376598,28.7133789 12.212358,29.7591886 12.5033292,29.7591886 L25.3608842,29.7591886 C25.6476385,29.7591886 25.6265536,28.7133789 25.3355824,28.203125 L24.0198864,25.8837891 C23.9566317,25.7699308 23.8891602,25.7108931 23.8216886,25.7108931 L23.8216886,25.7108931 Z" id="路径" fill="url(#linearGradient-7)" fill-rule="nonzero"></path>
            <path d="M2.80367543,21.3589755 L35.064755,21.3589755 C35.2856689,21.3589755 35.464755,21.1798894 35.464755,20.9589755 L35.464755,2.71933594 C35.464755,2.49842204 35.2856689,2.31933594 35.064755,2.31933594 L2.80367543,2.31933594 C2.58276153,2.31933594 2.40367543,2.49842204 2.40367543,2.71933594 L2.40367543,20.9589755 C2.40367543,21.1798894 2.58276153,21.3589755 2.80367543,21.3589755 Z" id="路径" stroke="#0E111E" stroke-width="0.1" fill="#FFFFFF" fill-rule="nonzero"></path>
            <path d="M18.7107156,15.0925515 L11.4912553,15.0925515 L11.4912553,14.2533736 L18.7064986,14.2533736 L18.7064986,15.0925515 L18.7107156,15.0925515 Z M26.9042969,19.7101385 L19.1577148,19.7101385 L19.1577148,19.0775923 L26.9042969,19.0775923 L26.9042969,19.7101385 Z M34.0309837,18.6179421 L19.1577148,18.6179421 L19.1577148,17.985396 L34.0309837,17.985396 L34.0309837,18.6179421 Z M34.0309837,17.5341797 L19.1577148,17.5341797 L19.1577148,16.9016335 L34.0309837,16.9016335 L34.0309837,17.5341797 Z M34.0309837,16.4462003 L19.1577148,16.4462003 L19.1577148,15.8136541 L34.0309837,15.8136541 L34.0309837,16.4462003 Z M19.1577148,15.0925515 L19.1577148,14.2533736 L26.3729581,14.2533736 L26.3729581,15.0883345 L19.1577148,15.0883345 L19.1577148,15.0925515 Z M34.0436346,15.0925515 L26.8241744,15.0925515 L26.8241744,14.2533736 L34.0394176,14.2533736 L34.0394176,15.0925515 L34.0436346,15.0925515 Z M3.82479581,3.84166371 L34.0394176,3.84166371 L34.0394176,13.5533558 L3.82479581,13.5533558 L3.82479581,3.84166371 Z M3.82479581,14.2533736 L11.0400391,14.2533736 L11.0400391,15.0883345 L3.82479581,15.0883345 L3.82479581,14.2533736 Z M3.82479581,15.8600408 L18.6980646,15.8600408 L18.6980646,20.0812322 L3.82479581,20.0812322 L3.82479581,15.8600408 Z" id="形状" fill="#FFFFFF" fill-rule="nonzero"></path>
            <polygon id="路径" fill="#EBEBEB" fill-rule="nonzero" points="3.82479581 3.84166371 34.0394176 3.84166371 34.0394176 13.5533558 3.82479581 13.5533558"></polygon>
            <path d="M18.6980646,15.8600408 L18.6980646,20.0812322 L3.82479581,20.0812322 L3.82479581,15.8600408 L18.6980646,15.8600408 Z M11.0400391,14.2533736 L11.0400391,15.0883345 L3.82479581,15.0883345 L3.82479581,14.2533736 L11.0400391,14.2533736 Z M18.7064986,14.2533736 L18.7064986,15.0883345 L11.4912553,15.0883345 L11.4912553,14.2533736 L18.7064986,14.2533736 Z M26.3729581,14.2533736 L26.3729581,15.0883345 L19.1577148,15.0883345 L19.1577148,14.2533736 L26.3729581,14.2533736 Z M34.0394176,14.2533736 L34.0394176,15.0883345 L26.8241744,15.0883345 L26.8241744,14.2533736 L34.0394176,14.2533736 Z" id="形状结合" fill="url(#linearGradient-8)" fill-rule="nonzero"></path>
            <path d="M19.1577148,15.8094371 L34.0309837,15.8094371 L34.0309837,16.4419833 L19.1577148,16.4419833 L19.1577148,15.8094371 Z M19.1577148,16.8974165 L34.0309837,16.8974165 L34.0309837,17.5299627 L19.1577148,17.5299627 L19.1577148,16.8974165 Z M19.1577148,17.985396 L34.0309837,17.985396 L34.0309837,18.6179421 L19.1577148,18.6179421 L19.1577148,17.985396 Z M19.1577148,19.0733754 L26.9042969,19.0733754 L26.9042969,19.7059215 L19.1577148,19.7059215 L19.1577148,19.0733754 Z" id="形状" fill="#EBEBEB" fill-rule="nonzero"></path>
        </g>
    </g>
</svg>