<?xml version="1.0" encoding="UTF-8"?>
<svg width="60px" height="60px" viewBox="0 0 60 60" version="1.1" xmlns="http://www.w3.org/2000/svg" xmlns:xlink="http://www.w3.org/1999/xlink">
    <title>icon/设备图/显示器/off</title>
    <defs>
        <linearGradient x1="50%" y1="0%" x2="50%" y2="100%" id="linearGradient-1">
            <stop stop-color="#CCCCCC" offset="0%"></stop>
            <stop stop-color="#666666" offset="100%"></stop>
        </linearGradient>
    </defs>
    <g id="icon/设备图/显示器/off" stroke="none" stroke-width="1" fill="none" fill-rule="evenodd">
        <path d="M30,60 C46.5685425,60 60,46.5685425 60,30 C60,13.4314575 46.5685425,0 30,0 C13.4314575,0 0,13.4314575 0,30 C0,46.5685425 13.4314575,60 30,60 Z" id="椭圆形"></path>
        <g id="编组" transform="translate(10.000000, 14.318182)" fill-rule="nonzero">
            <path d="M38.7162642,0.0133167614 C39.3332741,0.0133167614 39.8348722,0.514914773 39.8348722,1.13192472 L39.8348722,1.13192472 L39.8348722,25.448331 C39.8348722,26.0653409 39.3332741,26.5669389 38.7162642,26.5669389 L38.7162642,26.5669389 L1.14524148,26.5669389 C0.528231534,26.5669389 0.0266335227,26.0653409 0.0266335227,25.448331 L0.0266335227,25.448331 L0.0266335227,1.13192472 C0.0266335227,0.514914773 0.528231534,0.0133167614 1.14524148,0.0133167614 L1.14524148,0.0133167614 Z M37.331321,2.44140625 L2.53018466,2.44140625 L2.53018466,22.4831321 L37.331321,22.4831321 L37.331321,2.44140625 Z" id="形状结合" fill="#666666"></path>
            <path d="M25.0754616,27.064098 L14.7816051,27.064098 C14.7150213,27.064098 14.6395597,27.1262429 14.5729759,27.2460938 L13.1880327,29.6875 C12.8817472,30.2246094 12.8551136,31.3254616 13.1613991,31.3254616 L26.6956676,31.3254616 C26.9975142,31.3254616 26.9753196,30.2246094 26.6690341,29.6875 L25.2840909,27.2460938 C25.2175071,27.1262429 25.1464844,27.064098 25.0754616,27.064098 L25.0754616,27.064098 Z" id="路径" fill="url(#linearGradient-1)"></path>
            <path d="M2.53018466,22.4831321 L37.331321,22.4831321 L37.331321,2.44140625 L2.53018466,2.44140625 L2.53018466,22.4831321 Z M19.6954901,15.8868963 L12.0960582,15.8868963 L12.0960582,15.0035511 L19.6910511,15.0035511 L19.6910511,15.8868963 L19.6954901,15.8868963 Z M28.3203125,20.7475142 L20.1660156,20.7475142 L20.1660156,20.0816761 L28.3203125,20.0816761 L28.3203125,20.7475142 Z M35.8220881,19.5978338 L20.1660156,19.5978338 L20.1660156,18.9319957 L35.8220881,18.9319957 L35.8220881,19.5978338 Z M35.8220881,18.4570312 L20.1660156,18.4570312 L20.1660156,17.7911932 L35.8220881,17.7911932 L35.8220881,18.4570312 Z M35.8220881,17.3117898 L20.1660156,17.3117898 L20.1660156,16.6459517 L35.8220881,16.6459517 L35.8220881,17.3117898 Z M20.1660156,15.8868963 L20.1660156,15.0035511 L27.7610085,15.0035511 L27.7610085,15.8824574 L20.1660156,15.8824574 L20.1660156,15.8868963 Z M35.8354048,15.8868963 L28.235973,15.8868963 L28.235973,15.0035511 L35.8309659,15.0035511 L35.8309659,15.8868963 L35.8354048,15.8868963 Z M4.02610085,4.04385653 L35.8309659,4.04385653 L35.8309659,14.2666903 L4.02610085,14.2666903 L4.02610085,4.04385653 Z M4.02610085,15.0035511 L11.6210938,15.0035511 L11.6210938,15.8824574 L4.02610085,15.8824574 L4.02610085,15.0035511 Z M4.02610085,16.6947798 L19.6821733,16.6947798 L19.6821733,21.1381392 L4.02610085,21.1381392 L4.02610085,16.6947798 Z" id="形状" fill="#FFFFFF"></path>
            <polygon id="路径" fill="#EBEBEB" points="4.02610085 4.04385653 35.8309659 4.04385653 35.8309659 14.2666903 4.02610085 14.2666903"></polygon>
            <path d="M19.6821733,16.6947798 L19.6821733,21.1381392 L4.02610085,21.1381392 L4.02610085,16.6947798 L19.6821733,16.6947798 Z M11.6210937,15.0035511 L11.6210937,15.8824574 L4.02610085,15.8824574 L4.02610085,15.0035511 L11.6210937,15.0035511 Z M19.6910511,15.0035511 L19.6910511,15.8824574 L12.0960582,15.8824574 L12.0960582,15.0035511 L19.6910511,15.0035511 Z M27.7610085,15.0035511 L27.7610085,15.8824574 L20.1660156,15.8824574 L20.1660156,15.0035511 L27.7610085,15.0035511 Z M35.8309659,15.0035511 L35.8309659,15.8824574 L28.235973,15.8824574 L28.235973,15.0035511 L35.8309659,15.0035511 Z" id="形状结合" fill="#999999"></path>
            <path d="M20.1660156,16.6415128 L35.8220881,16.6415128 L35.8220881,17.3073509 L20.1660156,17.3073509 L20.1660156,16.6415128 Z M20.1660156,17.7867543 L35.8220881,17.7867543 L35.8220881,18.4525923 L20.1660156,18.4525923 L20.1660156,17.7867543 Z M20.1660156,18.9319957 L35.8220881,18.9319957 L35.8220881,19.5978338 L20.1660156,19.5978338 L20.1660156,18.9319957 Z M20.1660156,20.0772372 L28.3203125,20.0772372 L28.3203125,20.7430753 L20.1660156,20.7430753 L20.1660156,20.0772372 Z" id="形状" fill="#E0E0E0"></path>
        </g>
    </g>
</svg>