<?xml version="1.0" encoding="UTF-8"?>
<svg width="60px" height="60px" viewBox="0 0 60 60" version="1.1" xmlns="http://www.w3.org/2000/svg" xmlns:xlink="http://www.w3.org/1999/xlink">
    <title>icon/设备图/门锁/on</title>
    <defs>
        <circle id="path-1" cx="30" cy="30" r="30"></circle>
        <mask id="mask-2" maskContentUnits="userSpaceOnUse" maskUnits="objectBoundingBox" x="0" y="0" width="60" height="60" fill="white">
            <use xlink:href="#path-1"></use>
        </mask>
        <radialGradient cx="24.6982732%" cy="9.06850245%" fx="24.6982732%" fy="9.06850245%" r="179.375515%" gradientTransform="translate(0.246983,0.090685),scale(1.000000,0.558533),rotate(65.178079),translate(-0.246983,-0.090685)" id="radialGradient-3">
            <stop stop-color="#F5F5F8" offset="0%"></stop>
            <stop stop-color="#1E1D23" offset="100%"></stop>
        </radialGradient>
        <linearGradient x1="50%" y1="0%" x2="50%" y2="98.9729021%" id="linearGradient-4">
            <stop stop-color="#EDEFFF" offset="0%"></stop>
            <stop stop-color="#33334A" stop-opacity="0.2" offset="100%"></stop>
        </linearGradient>
        <path d="M1.41637761,0.507042254 L18.4279443,0.507042254 C19.3654144,0.507042254 19.8341495,0.898829188 19.8341495,1.68240306 L19.8341495,34.8246392 C19.8341495,35.6082131 19.3654144,36 18.4279443,36 L1.41637761,36 C0.478907517,36 0.0101725105,35.6082131 0.0101725105,34.8246392 L0.0101725105,1.68240306 C0.0101725105,0.898829188 0.478907545,0.507042254 1.41637761,0.507042254 Z" id="path-5"></path>
        <filter x="-58.0%" y="-32.4%" width="216.0%" height="164.8%" filterUnits="objectBoundingBox" id="filter-6">
            <feGaussianBlur stdDeviation="6.5" in="SourceAlpha" result="shadowBlurInner1"></feGaussianBlur>
            <feOffset dx="0" dy="10" in="shadowBlurInner1" result="shadowOffsetInner1"></feOffset>
            <feComposite in="shadowOffsetInner1" in2="SourceAlpha" operator="arithmetic" k2="-1" k3="1" result="shadowInnerInner1"></feComposite>
            <feColorMatrix values="0 0 0 0 0.924496936   0 0 0 0 0.920198171   0 0 0 0 1  0 0 0 0.4 0" type="matrix" in="shadowInnerInner1"></feColorMatrix>
        </filter>
        <linearGradient x1="50%" y1="0%" x2="50%" y2="100%" id="linearGradient-7">
            <stop stop-color="#BABAC5" offset="0%"></stop>
            <stop stop-color="#454550" offset="100%"></stop>
        </linearGradient>
        <linearGradient x1="50%" y1="1.59801136%" x2="50%" y2="100%" id="linearGradient-8">
            <stop stop-color="#EBEBF4" offset="0%"></stop>
            <stop stop-color="#7B7987" offset="63.9532343%"></stop>
            <stop stop-color="#B8B8C7" offset="100%"></stop>
        </linearGradient>
        <linearGradient x1="50%" y1="0%" x2="50%" y2="100%" id="linearGradient-9">
            <stop stop-color="#FFE456" offset="0%"></stop>
            <stop stop-color="#FFFBE7" offset="100%"></stop>
        </linearGradient>
    </defs>
    <g id="icon/设备图/门锁/on" stroke="none" stroke-width="1" fill="none" fill-rule="evenodd">
        <g id="编组-3">
            <use id="椭圆形" stroke="" mask="url(#mask-2)" stroke-width="6" opacity="0" stroke-dasharray="2,2" xlink:href="#path-1"></use>
            <g id="编组" transform="translate(16.846154, 12.000000)">
                <g id="路径">
                    <use fill="url(#radialGradient-3)" fill-rule="evenodd" xlink:href="#path-5"></use>
                    <use fill="black" fill-opacity="1" filter="url(#filter-6)" xlink:href="#path-5"></use>
                    <path stroke="url(#linearGradient-4)" stroke-width="0.3" d="M18.4279443,0.657042254 C18.8514821,0.657042254 19.1734102,0.737948194 19.3864004,0.915973706 C19.590169,1.08629134 19.6841495,1.34461298 19.6841495,1.68240306 L19.6841495,1.68240306 L19.6841495,34.8246392 C19.6841495,35.1624293 19.590169,35.4207509 19.3864004,35.5910685 C19.1734102,35.7690941 18.8514821,35.85 18.4279443,35.85 L18.4279443,35.85 L1.41637761,35.85 C0.992839815,35.85 0.670911742,35.7690941 0.457921502,35.5910685 C0.254152996,35.4207509 0.16017251,35.1624293 0.16017251,34.8246392 L0.16017251,34.8246392 L0.16017251,1.68240306 C0.16017251,1.34461298 0.254153005,1.08629134 0.45792152,0.915973705 C0.670911763,0.737948193 0.992839833,0.657042254 1.41637761,0.657042254 L1.41637761,0.657042254 Z" stroke-linejoin="square"></path>
                </g>
                <path d="M18.786616,0.549038435 C18.9420243,0.549038435 18.9613449,0.560070629 19.0397835,0.571482484 L17.1104901,0.210406716 C16.661215,0.126396931 16.3453021,0.045651342 15.9497575,0.045651342 L3.48257792,0.045651342 C3.01767028,0.045651342 2.67238173,0.141191086 2.12824356,0.272786257 L0.677997893,0.615788769 C0.981406643,0.533912336 1.11308149,0.549038435 1.19160077,0.549038435 L18.786616,0.549038435 Z" id="Fill-3备份" fill="url(#linearGradient-7)" fill-rule="nonzero"></path>
                <polyline id="路径" fill="#FB331B" fill-rule="nonzero" points="12.3573377 4.62374346 12.3573377 15.3430339 4.66166285 15.3430339"></polyline>
                <circle id="椭圆形" fill="#111114" cx="8.29205853" cy="22.2506921" r="2.49420394"></circle>
                <path d="M8.91353056,24.1018853 C7.89114475,24.1018853 7.0623373,23.2730779 7.0623373,22.2506921 C7.0623373,21.2283063 7.89114475,20.3994988 8.91353056,20.3994988 L24.1344529,20.3994988 C25.1568387,20.3994988 25.9856462,21.2283063 25.9856462,22.2506921 C25.9856462,23.2730779 25.1568387,24.1018853 24.1344529,24.1018853 L8.91353056,24.1018853 Z" id="路径" fill="url(#linearGradient-8)" fill-rule="nonzero"></path>
                <path d="M15.1268777,16.5183948 L4.71041318,16.5183948 C4.52393879,16.5183948 4.3451019,16.4564786 4.21324459,16.3462671 C4.08138728,16.2360557 4.00731061,16.0865769 4.00731061,15.9307144 L4.00731061,4.73540274 C4.00731061,4.57954021 4.08138728,4.4300614 4.21324459,4.31984995 C4.3451019,4.20963849 4.52393879,4.14772234 4.71041318,4.14772234 L15.1268777,4.14772234 C15.5151906,4.14772234 15.8299803,4.41083582 15.8299803,4.73540274 L15.8299803,15.9307144 C15.8299803,16.2552813 15.5151906,16.5183948 15.1268777,16.5183948 Z" id="路径" fill="url(#linearGradient-9)" fill-rule="nonzero"></path>
                <circle id="椭圆形" fill="#55555B" cx="7.86680071" cy="7.86680071" r="1.63603148"></circle>
                <path d="M13.8461538,13.6680573 L13.8461538,14.2135937 L6.23076923,14.2135937 L6.23076923,13.6680573 L13.8461538,13.6680573 Z M13.8461538,12.5769845 L13.8461538,13.1225209 L6.23076923,13.1225209 L6.23076923,12.5769845 L13.8461538,12.5769845 Z M13.8461538,11.3366056 L13.8461538,11.882142 L6.23076923,11.882142 L6.23076923,11.3366056 L13.8461538,11.3366056 Z" id="形状结合" fill="#55555B"></path>
                <path d="M15.1268777,16.812235 L4.71041318,16.812235 C4.12794394,16.812235 3.65575933,16.4175647 3.65575933,15.9307144 L3.65575933,4.73540274 C3.65575933,4.24855236 4.12794394,3.85388214 4.71041318,3.85388214 L15.1268777,3.85388214 C15.709347,3.85388214 16.1815316,4.24855236 16.1815316,4.73540274 L16.1815316,15.9307144 C16.1815316,16.4175647 15.709347,16.812235 15.1268777,16.812235 Z M4.71041318,4.44156254 C4.51625677,4.44156254 4.3588619,4.57311928 4.3588619,4.73540274 L4.3588619,15.9307144 C4.3588619,16.0086456 4.39590023,16.083385 4.46182889,16.1384907 C4.52775754,16.1935965 4.61717599,16.2245546 4.71041318,16.2245546 L15.1268777,16.2245546 C15.3210341,16.2245546 15.478429,16.0929978 15.478429,15.9307144 L15.478429,4.73540274 C15.478429,4.57311928 15.3210341,4.44156254 15.1268777,4.44156254 L4.71041318,4.44156254 Z" id="形状" fill="#FFFFFF" fill-rule="nonzero"></path>
                <path d="M7.0309724,33.3353688 L12.8133495,33.3353688 C13.2889656,33.3353688 13.5267736,33.4438041 13.5267736,33.6606748 L13.5267736,33.6616517 C13.5267736,33.8785224 13.2889656,33.9869577 12.8133495,33.9869577 L7.0309724,33.9869577 C6.55535634,33.9869577 6.31754833,33.8785224 6.31754833,33.6616517 L6.31754833,33.6606748 C6.31754833,33.4438041 6.55535635,33.3353688 7.0309724,33.3353688 Z" id="路径" fill="#FFFFFF" fill-rule="nonzero"></path>
            </g>
        </g>
    </g>
</svg>