<?xml version="1.0" encoding="UTF-8"?>
<svg width="60px" height="60px" viewBox="0 0 60 60" version="1.1" xmlns="http://www.w3.org/2000/svg" xmlns:xlink="http://www.w3.org/1999/xlink">
    <title>icon/设备图/按键面板/off</title>
    <defs>
        <circle id="path-1" cx="30" cy="30" r="30"></circle>
        <mask id="mask-2" maskContentUnits="userSpaceOnUse" maskUnits="objectBoundingBox" x="0" y="0" width="60" height="60" fill="white">
            <use xlink:href="#path-1"></use>
        </mask>
        <radialGradient cx="12.1165089%" cy="6.0351949%" fx="12.1165089%" fy="6.0351949%" r="128.291352%" id="radialGradient-3">
            <stop stop-color="#FFFFFF" offset="0%"></stop>
            <stop stop-color="#333337" offset="100%"></stop>
        </radialGradient>
        <linearGradient x1="50%" y1="0%" x2="50%" y2="98.9729021%" id="linearGradient-4">
            <stop stop-color="#33334A" stop-opacity="0.2" offset="0%"></stop>
            <stop stop-color="#EDEFFF" offset="100%"></stop>
        </linearGradient>
        <path d="M0.899197145,0.2 C0.403211418,0.2 1.29674049e-13,0.804480107 1.29674049e-13,1.54804413 L1.29674049e-13,30.8519559 C1.29674049e-13,31.5955199 0.403211418,32.2 0.899197145,32.2 L31.1008029,32.2 C31.5967886,32.2 32,31.5955199 32,30.8519559 L32,1.54804413 C32,0.804480107 31.5967886,0.2 31.1008029,0.2 L0.899197145,0.2 Z" id="path-5"></path>
        <filter x="-7.8%" y="-7.8%" width="115.6%" height="115.6%" filterUnits="objectBoundingBox" id="filter-6">
            <feGaussianBlur stdDeviation="2" in="SourceAlpha" result="shadowBlurInner1"></feGaussianBlur>
            <feOffset dx="0" dy="1" in="shadowBlurInner1" result="shadowOffsetInner1"></feOffset>
            <feComposite in="shadowOffsetInner1" in2="SourceAlpha" operator="arithmetic" k2="-1" k3="1" result="shadowInnerInner1"></feComposite>
            <feColorMatrix values="0 0 0 0 0.924496936   0 0 0 0 0.920198171   0 0 0 0 1  0 0 0 0.4 0" type="matrix" in="shadowInnerInner1"></feColorMatrix>
        </filter>
        <path d="M4.93495726,7.15108122 C4.93495726,5.96488883 5.8966846,5.00331651 7.08287699,5.00331651 C8.26922439,5.00331651 9.23079671,5.96488883 9.23079671,7.15108122" id="path-7"></path>
        <filter x="-12.8%" y="-25.6%" width="125.6%" height="155.9%" filterUnits="objectBoundingBox" id="filter-8">
            <feMorphology radius="0.5" operator="dilate" in="SourceAlpha" result="shadowSpreadOuter1"></feMorphology>
            <feOffset dx="0" dy="0.1" in="shadowSpreadOuter1" result="shadowOffsetOuter1"></feOffset>
            <feMorphology radius="1" operator="erode" in="SourceAlpha" result="shadowInner"></feMorphology>
            <feOffset dx="0" dy="0.1" in="shadowInner" result="shadowInner"></feOffset>
            <feComposite in="shadowOffsetOuter1" in2="shadowInner" operator="out" result="shadowOffsetOuter1"></feComposite>
            <feColorMatrix values="0 0 0 0 0   0 0 0 0 0   0 0 0 0 0  0 0 0 0.5 0" type="matrix" in="shadowOffsetOuter1"></feColorMatrix>
        </filter>
        <path d="M2.73617636,7.15108122 C2.73617636,4.75063831 4.68226356,2.80455111 7.08286148,2.80455111 C9.48345941,2.80455111 11.4295466,4.75063831 11.4295466,7.15108122" id="path-9"></path>
        <filter x="-6.3%" y="-12.7%" width="112.7%" height="127.6%" filterUnits="objectBoundingBox" id="filter-10">
            <feMorphology radius="0.5" operator="dilate" in="SourceAlpha" result="shadowSpreadOuter1"></feMorphology>
            <feOffset dx="0" dy="0.1" in="shadowSpreadOuter1" result="shadowOffsetOuter1"></feOffset>
            <feMorphology radius="1" operator="erode" in="SourceAlpha" result="shadowInner"></feMorphology>
            <feOffset dx="0" dy="0.1" in="shadowInner" result="shadowInner"></feOffset>
            <feComposite in="shadowOffsetOuter1" in2="shadowInner" operator="out" result="shadowOffsetOuter1"></feComposite>
            <feColorMatrix values="0 0 0 0 0   0 0 0 0 0   0 0 0 0 0  0 0 0 0.5 0" type="matrix" in="shadowOffsetOuter1"></feColorMatrix>
        </filter>
        <path d="M0.537472972,7.15108122 C0.537472972,3.53623277 3.46792003,0.605630699 7.08292349,0.605630699 C10.6977719,0.605630699 13.628219,3.53623277 13.628219,7.15108122" id="path-11"></path>
        <filter x="-4.2%" y="-8.4%" width="108.4%" height="118.3%" filterUnits="objectBoundingBox" id="filter-12">
            <feMorphology radius="0.5" operator="dilate" in="SourceAlpha" result="shadowSpreadOuter1"></feMorphology>
            <feOffset dx="0" dy="0.1" in="shadowSpreadOuter1" result="shadowOffsetOuter1"></feOffset>
            <feMorphology radius="1" operator="erode" in="SourceAlpha" result="shadowInner"></feMorphology>
            <feOffset dx="0" dy="0.1" in="shadowInner" result="shadowInner"></feOffset>
            <feComposite in="shadowOffsetOuter1" in2="shadowInner" operator="out" result="shadowOffsetOuter1"></feComposite>
            <feColorMatrix values="0 0 0 0 0   0 0 0 0 0   0 0 0 0 0  0 0 0 0.5 0" type="matrix" in="shadowOffsetOuter1"></feColorMatrix>
        </filter>
        <path d="M11.8813662,19.3167264 C12.0913354,19.3167264 12.2614892,19.3611572 12.3918892,19.4499572 C12.5222892,19.5387572 12.5875815,19.6658341 12.5875815,19.8310033 C12.5875815,20.0558033 12.4903508,20.2322341 12.2959508,20.3601726 C12.1015508,20.488111 11.8620431,20.552111 11.5776738,20.552111 C11.4805662,20.552111 11.3850585,20.5405418 11.2910277,20.5180803 C11.3006892,20.4633726 11.3506585,20.179188 11.3554585,20.1524187 C11.4084431,20.1613418 11.4636431,20.166388 11.5217969,20.166388 C11.69072,20.166388 11.8335508,20.1406033 11.9502892,20.0890341 C12.0670277,20.0375264 12.1254277,19.963311 12.1254277,19.8664495 C12.1254277,19.7583264 12.0128738,19.7042956 11.81952,19.7042956 C11.7263508,19.7042956 11.5832738,19.7449726 11.4863508,19.826388 C11.4088123,19.8914956 11.3453662,19.9702033 11.2949046,20.0612187 L11.2949046,20.0612187 C11.2941046,20.060788 11.1753969,20.2518649 11.1646892,20.5494033 C11.1584123,20.724111 11.2071508,20.812911 11.2897969,20.8874341 C11.3723815,20.9619572 11.4869662,20.9992495 11.6335508,20.9992495 C12.1089969,20.9992495 12.3534277,20.6703264 12.3977354,20.6114341 L12.3977354,20.6114341 L12.6864738,20.8579572 C12.5800738,21.0360495 12.3014892,21.3868187 11.5124431,21.3868187 C11.2664738,21.3868187 11.0671508,21.3092187 10.9144123,21.1538956 C10.7615508,20.9986341 10.6851815,20.785588 10.6851815,20.5148187 C10.6851815,20.1719264 10.7953969,19.8866341 11.0159508,19.6586956 C11.10592,19.5656495 11.3837046,19.3167264 11.8813662,19.3167264 Z M16.1569292,20.760948 C16.1569292,20.760948 16.4292985,20.992271 16.48536,21.040148 C16.4609292,21.0755941 16.4313292,21.1123326 16.39656,21.1475941 C16.2888677,21.2567633 16.1312062,21.3517787 15.9235138,21.3539941 C15.9210523,21.3539941 15.3612369,21.3543633 15.3612369,21.3543633 L15.3612369,21.3543633 L15.3612369,21.3539941 L15.3345908,21.3539941 L15.4100369,20.9290095 L15.9161908,20.9290095 C15.9419138,20.9290095 15.9652985,20.9245172 15.9867754,20.9173787 C16.0985908,20.8807018 16.15416,20.7667326 16.1569292,20.760948 Z M15.1233785,18.452308 L15.5419631,18.8094156 L15.1681785,20.9291695 L15.0932246,21.3539695 L14.6117477,21.3539695 L15.1233785,18.452308 Z M18.8122154,19.3167326 C19.2220615,19.3167326 19.4270462,19.508671 19.4270462,19.8924864 C19.4270462,19.9287941 19.4245846,19.968671 19.4196615,20.0119941 C19.3930769,20.164671 19.1840923,21.3495326 19.1840923,21.3495326 L18.7026154,21.3495326 C18.7026154,21.3495326 18.9376308,20.0166095 18.9487077,19.9540864 C18.9487077,19.7889172 18.8394769,19.7043018 18.6444615,19.7043018 C18.478,19.7043018 18.3316,19.7742095 18.1986769,19.9145787 L17.9456923,21.3495326 L17.4642154,21.3495326 C17.4642154,21.3495326 17.7381231,19.7959941 17.75,19.728548 C17.7700615,19.6147018 17.7115385,19.4473787 17.6696308,19.3540249 C17.6696308,19.3540249 18.2571385,19.3252864 18.2754769,19.479071 C18.4245231,19.3779633 18.6041538,19.3167326 18.8122154,19.3167326 Z M19.9497108,18.4524864 L20.3682954,18.8095941 L20.1555569,20.0171633 L20.9856492,19.2335941 L21.3148185,19.5154403 C21.2601723,19.5825172 20.9851569,19.8347633 20.4908185,20.2707018 L21.3143262,21.3495326 L20.7628185,21.3495326 L20.0777723,20.4580249 L19.9206646,21.3495326 L19.4390646,21.3495326 L19.9497108,18.4524864 Z M14.6667077,19.354068 L14.6377846,19.5184987 L13.4365538,20.9452064 L14.3862154,20.9452064 L14.3148308,21.3495141 L12.5676923,21.3495141 L12.5964308,21.1864372 L13.8222769,19.7583141 L12.8482462,19.7583141 L12.9195692,19.354068 L14.6667077,19.354068 Z M17.36776,19.3540249 L17.0158831,21.3495326 L16.5344062,21.3495326 L16.8201908,19.728548 L16.5674523,19.728548 L16.6334831,19.3540249 L17.36776,19.3540249 Z M17.16104,18.4526833 C17.3260246,18.4526833 17.4598092,18.5864064 17.4598092,18.7514526 C17.4598092,18.9164372 17.3260246,19.0502218 17.16104,19.0502218 C16.9959938,19.0502218 16.8622092,18.9164372 16.8622092,18.7514526 C16.8622092,18.5864064 16.9959938,18.4526833 17.16104,18.4526833 Z" id="path-13"></path>
        <filter x="-0.5%" y="-1.7%" width="100.9%" height="106.8%" filterUnits="objectBoundingBox" id="filter-14">
            <feOffset dx="0" dy="0.1" in="SourceAlpha" result="shadowOffsetOuter1"></feOffset>
            <feColorMatrix values="0 0 0 0 0   0 0 0 0 0   0 0 0 0 0  0 0 0 0.5 0" type="matrix" in="shadowOffsetOuter1"></feColorMatrix>
        </filter>
    </defs>
    <g id="icon/设备图/按键面板/off" stroke="none" stroke-width="1" fill="none" fill-rule="evenodd">
        <g id="编组-2" opacity="0" stroke="" stroke-dasharray="2,2" stroke-width="6">
            <use id="椭圆形" mask="url(#mask-2)" xlink:href="#path-1"></use>
        </g>
        <g id="编组" transform="translate(14.000000, 13.800000)">
            <g id="形状结合">
                <use fill="url(#radialGradient-3)" fill-rule="evenodd" xlink:href="#path-5"></use>
                <use fill="black" fill-opacity="1" filter="url(#filter-6)" xlink:href="#path-5"></use>
                <path stroke="url(#linearGradient-4)" stroke-width="0.3" d="M31.1008029,0.35 C31.3033841,0.35 31.4807716,0.482274594 31.6116099,0.678422694 C31.7601895,0.901167834 31.85,1.20921966 31.85,1.54804413 L31.85,1.54804413 L31.85,30.8519559 C31.85,31.1907803 31.7601895,31.4988322 31.6116099,31.7215773 C31.4807716,31.9177254 31.3033841,32.05 31.1008029,32.05 L31.1008029,32.05 L0.899197145,32.05 C0.696615869,32.05 0.519228365,31.9177254 0.388390058,31.7215773 C0.239810505,31.4988322 0.15,31.1907803 0.15,30.8519559 L0.15,30.8519559 L0.15,1.54804413 C0.15,1.20921966 0.239810505,0.901167834 0.388390058,0.678422694 C0.519228365,0.482274594 0.696615869,0.35 0.899197145,0.35 L0.899197145,0.35 Z" stroke-linejoin="square"></path>
            </g>
            <g transform="translate(9.000000, 10.115077)">
                <g id="Stroke-1">
                    <use fill="black" fill-opacity="1" filter="url(#filter-8)" xlink:href="#path-7"></use>
                    <use stroke="#A6A6A6" stroke-width="1" xlink:href="#path-7"></use>
                </g>
                <g id="Stroke-3">
                    <use fill="black" fill-opacity="1" filter="url(#filter-10)" xlink:href="#path-9"></use>
                    <use stroke="#A6A6A6" stroke-width="1" xlink:href="#path-9"></use>
                </g>
                <g id="Stroke-5">
                    <use fill="black" fill-opacity="1" filter="url(#filter-12)" xlink:href="#path-11"></use>
                    <use stroke="#A6A6A6" stroke-width="1" xlink:href="#path-11"></use>
                </g>
            </g>
            <g id="形状结合">
                <use fill="black" fill-opacity="1" filter="url(#filter-14)" xlink:href="#path-13"></use>
                <use fill="#FFFFFF" fill-rule="evenodd" xlink:href="#path-13"></use>
            </g>
        </g>
    </g>
</svg>