<?xml version="1.0" encoding="UTF-8"?>
<svg width="60px" height="60px" viewBox="0 0 60 60" version="1.1" xmlns="http://www.w3.org/2000/svg" xmlns:xlink="http://www.w3.org/1999/xlink">
    <title>icon/设备图/灯光/on</title>
    <defs>
        <radialGradient cx="36.8664212%" cy="12.873588%" fx="36.8664212%" fy="12.873588%" r="105.935173%" gradientTransform="translate(0.368664,0.128736),scale(1.000000,0.849984),rotate(70.018063),translate(-0.368664,-0.128736)" id="radialGradient-1">
            <stop stop-color="#FFF7D5" offset="0%"></stop>
            <stop stop-color="#F5B00F" offset="99.9262456%"></stop>
        </radialGradient>
        <path d="M15.2687599,2.48689958e-14 C23.7022245,2.48689958e-14 30.5375198,6.83608574 30.5375198,15.2687599 C30.5375198,20.9204214 27.4674537,25.8543497 22.9042062,28.4943738 L22.9031399,33.559182 C22.901405,34.8647365 21.8446322,35.9232758 20.5390825,35.9271913 L10.4481694,35.9271913 C9.14158883,35.9254469 8.08332166,34.8657637 8.08332166,33.559182 L8.08282552,28.7440667 C3.27304569,26.1736565 3.48165941e-13,21.1033789 3.48165941e-13,15.2687599 C3.48165941e-13,6.83687616 6.83608574,2.48689958e-14 15.2687599,2.48689958e-14 Z" id="path-2"></path>
        <filter x="-11.5%" y="-9.7%" width="122.9%" height="119.5%" filterUnits="objectBoundingBox" id="filter-4">
            <feGaussianBlur stdDeviation="1.5" in="SourceAlpha" result="shadowBlurInner1"></feGaussianBlur>
            <feOffset dx="0" dy="4" in="shadowBlurInner1" result="shadowOffsetInner1"></feOffset>
            <feComposite in="shadowOffsetInner1" in2="SourceAlpha" operator="arithmetic" k2="-1" k3="1" result="shadowInnerInner1"></feComposite>
            <feColorMatrix values="0 0 0 0 1   0 0 0 0 0.979765514   0 0 0 0 0.730049543  0 0 0 0.5 0" type="matrix" in="shadowInnerInner1"></feColorMatrix>
        </filter>
        <filter x="-59.8%" y="-22.4%" width="219.5%" height="144.8%" filterUnits="objectBoundingBox" id="filter-5">
            <feGaussianBlur stdDeviation="2.4" in="SourceGraphic"></feGaussianBlur>
        </filter>
    </defs>
    <g id="icon/设备图/灯光/on" stroke="none" stroke-width="1" fill="none" fill-rule="evenodd">
        <g id="编组" transform="translate(14.500000, 10.000000)">
            <g id="路径-2">
                <mask id="mask-3" fill="white">
                    <use xlink:href="#path-2"></use>
                </mask>
                <g id="蒙版" fill-rule="nonzero">
                    <use fill="url(#radialGradient-1)" xlink:href="#path-2"></use>
                    <use fill="black" fill-opacity="1" filter="url(#filter-4)" xlink:href="#path-2"></use>
                </g>
                <path d="M25.2598493,-0.323847603 C26.6191134,2.09293726 27.3046175,4.19931316 27.3163617,5.99528008 C27.3863518,16.69846 26.4549407,23.0307018 17.7458342,31.7910789 C15.8442184,30.5375198 14.7702521,30.2102222 15.5,28.3256945 C16.9002749,24.7095733 19.6250644,22.743413 21.5984643,19.0803213 C23.0141494,16.4524787 24.234611,9.9844224 25.2598493,-0.323847603 Z" fill-opacity="0.9" fill="#F39E00" style="mix-blend-mode: multiply;" filter="url(#filter-5)" mask="url(#mask-3)"></path>
            </g>
            <ellipse id="椭圆形" fill="#FFFFFF" transform="translate(5.828337, 6.701200) rotate(38.000000) translate(-5.828337, -6.701200) " cx="5.82833744" cy="6.70120024" rx="1" ry="2.28571429"></ellipse>
            <circle id="椭圆形备份" fill="#FFFFFF" transform="translate(8.906452, 4.052614) rotate(38.000000) translate(-8.906452, -4.052614) " cx="8.90645165" cy="4.05261404" r="1"></circle>
            <path d="M19.1591336,20.8297622 L23.1468259,13.1848392 C23.303749,12.8833007 23.1874413,12.5116084 22.8865182,12.3546853 L21.9868259,11.8845315 C21.6846721,11.726993 21.3135952,11.8439161 21.1560567,12.1454545 L21.1560567,12.1454545 L18.9012875,16.4685315 L15.7105182,10.2445315 C15.6335952,10.0931469 15.4483644,10.0334545 15.2969798,10.110993 C15.2428259,10.1386853 15.1979028,10.1823776 15.1683644,10.2359161 L11.7080567,16.5042238 L9.55667208,12.2217622 C9.40405669,11.9183776 9.03482592,11.7953007 8.73082592,11.9479161 L7.823749,12.4033007 C7.52036439,12.5559161 7.39790285,12.9257622 7.54990285,13.2291469 L11.3511336,20.798993 C11.4274413,20.950993 11.6120567,21.0119161 11.7640567,20.9356084 C11.8194413,20.9079161 11.8649798,20.8642238 11.8951336,20.8094545 L15.0945182,15.0156084 C15.1763644,14.8666853 15.3634413,14.8125315 15.5123644,14.8943776 C15.5659028,14.9245315 15.6095952,14.9694545 15.6372875,15.0236084 L18.6120567,20.8279161 C18.6895952,20.9786853 18.8754413,21.0383776 19.0268259,20.9608392 C19.0834413,20.9325315 19.1295952,20.8863776 19.1591336,20.8297622" id="Fill-1" fill="#FFF8EA"></path>
            <polygon id="路径" fill="#FFFFFF" fill-rule="nonzero" points="12.0352732 32.370435 18.9511883 32.370435 18.9511883 31.2117228 12.0352732 31.2117228 12.0352732 32.370435"></polygon>
            <path d="M10.3288056,36.8242843 L20.4331701,36.8242843 L20.4331701,38.1718998 C20.4331701,38.9164475 19.8316831,39.5195153 19.0918778,39.5195153 L11.6701129,39.5195153 C11.3132817,39.5195153 10.971157,39.3773373 10.7194334,39.1244269 C10.4677097,38.8715166 10.3271383,38.5287269 10.3288056,38.1718998 L10.3288056,36.8250747 L10.3288056,36.8242843 Z" id="路径" fill="#2B2B2B" fill-rule="nonzero"></path>
        </g>
    </g>
</svg>