<?xml version="1.0" encoding="UTF-8"?>
<svg width="60px" height="60px" viewBox="0 0 60 60" version="1.1" xmlns="http://www.w3.org/2000/svg" xmlns:xlink="http://www.w3.org/1999/xlink">
    <title>icon/设备图/麦克风/on</title>
    <defs>
        <circle id="path-1" cx="30" cy="30" r="30"></circle>
        <mask id="mask-2" maskContentUnits="userSpaceOnUse" maskUnits="objectBoundingBox" x="0" y="0" width="60" height="60" fill="white">
            <use xlink:href="#path-1"></use>
        </mask>
        <linearGradient x1="33.0273319%" y1="50.0084866%" x2="66.9726681%" y2="50.003761%" id="linearGradient-3">
            <stop stop-color="#EAEBF3" offset="0%"></stop>
            <stop stop-color="#8C8D9E" offset="26.2293%"></stop>
            <stop stop-color="#4F5167" offset="50.9277548%"></stop>
            <stop stop-color="#75778D" offset="77.4653058%"></stop>
            <stop stop-color="#CFD2E4" offset="100%"></stop>
        </linearGradient>
        <path d="M2.99316127e-13,12.6206982 C0.0140178919,12.3539211 0.148612784,12.1080017 0.365766372,11.9524035 C0.58291996,11.7968052 0.859056059,11.7484214 1.11617597,11.8209186 C2.48378695,12.2528381 3.90202694,12.5039847 5.33479375,12.5679655 L5.33479375,11.6099877 C3.49833297,11.4889921 1.6951148,11.0612105 2.99316127e-13,10.3444023 L2.99316127e-13,9.07881703 C1.6961374,9.7764534 3.50211444,10.1691865 5.33479375,10.2389369 L5.33479375,9.28974791 C3.49458573,9.19425865 1.68700567,8.76544229 2.99316127e-13,8.02416256 L2.99316127e-13,6.70584453 C1.6961374,7.4034809 3.50211444,7.79621396 5.33479375,7.86596441 L5.33479375,6.91677541 C3.78794325,6.81278983 2.26235513,6.49939382 0.799779625,5.98516397 C0.384727842,5.8289663 0.151066643,5.38802502 0.254874813,4.95687591 C0.86387222,2.14457129 3.30289553,0.103608157 6.17851728,1.11910481e-13 L6.49491363,1.11910481e-13 C9.45488154,0.0949976829 11.9493089,2.23830333 12.4888664,5.15022922 C12.5738619,5.58236641 12.3258858,6.01068872 11.9088064,6.15215094 C10.4290873,6.61888737 8.88995493,6.87047632 7.33863719,6.89919784 L7.33863719,7.86596441 C9.15493948,7.82385333 10.954072,7.50374408 12.6734309,6.91677541 L12.6734309,8.28782619 C10.9653258,8.92362318 9.16103059,9.26248588 7.33863719,9.28974791 L7.33863719,10.2916696 C9.15493948,10.2495585 10.954072,9.9294493 12.6734309,9.34248063 L12.6734309,10.6607987 C10.9653258,11.2965957 9.16103059,11.6354584 7.33863719,11.6627204 L7.33863719,12.6119094 C8.77865743,12.5886929 10.2103177,12.3879653 11.6011989,12.0142719 C11.8537393,11.9597243 12.1174886,12.0190595 12.3223372,12.1765052 C12.5271858,12.3339508 12.6523805,12.573556 12.6646421,12.8316291 L12.6646421,15.0464034 C12.6646421,18.737694 9.92254056,21.7522479 6.51249122,21.7522479 L6.19609488,21.7522479 C2.76846794,21.7522479 0.0439439375,18.7464828 0.0439439375,15.0464034 L2.99316127e-13,12.6206982 Z" id="path-4"></path>
        <filter x="-28.5%" y="-18.7%" width="157.0%" height="137.4%" filterUnits="objectBoundingBox" id="filter-6">
            <feGaussianBlur stdDeviation="1" in="SourceGraphic"></feGaussianBlur>
        </filter>
        <filter x="-80.1%" y="-36.8%" width="260.3%" height="173.7%" filterUnits="objectBoundingBox" id="filter-7">
            <feGaussianBlur stdDeviation="1" in="SourceGraphic"></feGaussianBlur>
        </filter>
        <linearGradient x1="0%" y1="50.0078735%" x2="100%" y2="50.0034894%" id="linearGradient-8">
            <stop stop-color="#EAEBF3" offset="0%"></stop>
            <stop stop-color="#8C8D9E" offset="26.2293%"></stop>
            <stop stop-color="#4F5167" offset="50.9277548%"></stop>
            <stop stop-color="#75778D" offset="85.8801355%"></stop>
            <stop stop-color="#A3A6BA" offset="100%"></stop>
        </linearGradient>
        <path d="M1.15852726,0 L1.28157026,0 C1.48436128,0 1.67884651,0.0805584061 1.82224143,0.223953311 C1.96563634,0.367348215 2.04619476,0.561833446 2.04619476,0.764624469 L2.04619476,3.90222144 C2.09013866,7.03102963 3.79516335,8.78878703 6.93276035,8.78878703 L12.2587653,8.78878703 C15.4227286,8.78878703 17.1013869,7.10133991 17.1013869,3.94616538 L17.1013869,0.764624469 C17.1013593,0.345742593 17.4383684,0.00481473015 17.8572226,0 L17.9802657,0 C18.4025561,0 18.7448901,0.342334035 18.7448901,0.764624469 L18.7448901,3.90222144 C18.7448901,7.97142984 16.3191849,10.3971351 12.2499765,10.3971351 C11.8276861,10.3971351 11.485352,10.7394691 11.485352,11.1617595 L11.485352,12.9195169 C11.4872352,13.3063841 11.7777805,13.6308892 12.1620886,13.6753526 C15.4227286,14.114792 17.9890544,15.3188558 18.8415668,16.839316 C18.9571404,17.0773197 18.9414591,17.3581584 18.8001074,17.5818161 C18.6587558,17.8054738 18.4118239,17.9401622 18.1472526,17.937942 L1.0618506,17.937942 C0.796325945,17.9386202 0.549445134,17.8015234 0.409684509,17.5757562 C0.269923883,17.349989 0.257295544,17.0678788 0.376325196,16.8305272 C1.24641513,15.3012783 3.79516335,14.0620593 7.0206482,13.6665638 C7.40495637,13.6221004 7.69550162,13.2975953 7.69738482,12.9107282 L7.69738482,11.1529707 C7.69738482,10.7306803 7.35505079,10.3883463 6.93276035,10.3883463 C2.86355195,10.3883463 0.437846727,7.96264106 0.437846727,3.89343266 L0.437846727,0.764624469 C0.437176188,0.358916474 0.753489248,0.0233160305 1.15852726,0 Z" id="path-9"></path>
        <filter x="-13.8%" y="-74.8%" width="127.7%" height="249.6%" filterUnits="objectBoundingBox" id="filter-11">
            <feGaussianBlur stdDeviation="1" in="SourceGraphic"></feGaussianBlur>
        </filter>
    </defs>
    <g id="icon/设备图/麦克风/on" stroke="none" stroke-width="1" fill="none" fill-rule="evenodd">
        <g id="编组-2">
            <use id="椭圆形" stroke="" mask="url(#mask-2)" stroke-width="6" opacity="0" stroke-dasharray="2,2" xlink:href="#path-1"></use>
            <g id="编组" transform="translate(19.640000, 14.000000)">
                <g id="路径-2" transform="translate(3.966996, 0.000000)">
                    <mask id="mask-5" fill="white">
                        <use xlink:href="#path-4"></use>
                    </mask>
                    <use id="蒙版" fill="url(#linearGradient-3)" fill-rule="nonzero" xlink:href="#path-4"></use>
                    <path d="M13,5.87926735 C14.2764375,18.1037001 10.8541518,23.3458597 2.73314308,21.6057462 C9.57771436,21.1799599 13,15.9378003 13,5.87926735 Z" fill="#33354D" style="mix-blend-mode: multiply;" filter="url(#filter-6)" mask="url(#mask-5)"></path>
                    <path d="M5.14656523,-0.669199214 C2.65076256,2.04627472 1.40286123,4.50121369 1.40286123,6.69561768 C1.40286123,8.89002168 2.65076256,6.43508271 5.14656523,-0.669199214 Z" id="路径-3" fill="#EAECF9" style="mix-blend-mode: screen;" filter="url(#filter-7)" mask="url(#mask-5)"></path>
                </g>
                <g id="路径-2" transform="translate(0.707948, 14.062059)">
                    <mask id="mask-10" fill="white">
                        <use xlink:href="#path-9"></use>
                    </mask>
                    <use id="蒙版" fill="url(#linearGradient-8)" fill-rule="nonzero" xlink:href="#path-9"></use>
                    <path d="M19.6846795,16.2675754 C20.7741282,17.4869127 20.9765856,18.1993685 20.2920516,18.4049431 C15.0359182,19.9834287 6.01856371,19.8606751 -0.775253179,18.4049431 C-2.36249193,15.5194467 4.45748562,14.8069909 19.6846795,16.2675754 Z" fill="#33354D" style="mix-blend-mode: multiply;" filter="url(#filter-11)" mask="url(#mask-10)"></path>
                </g>
            </g>
        </g>
    </g>
</svg>