<?xml version="1.0" encoding="UTF-8"?>
<svg width="16px" height="16px" viewBox="0 0 16 16" version="1.1" xmlns="http://www.w3.org/2000/svg" xmlns:xlink="http://www.w3.org/1999/xlink">
    <!-- Generator: Sketch 63.1 (92452) - https://sketch.com -->
    <title>信息结构/normal</title>
    <desc>Created with Sketch.</desc>
    <g id="设计整理示例图" stroke="none" stroke-width="1" fill="none" fill-rule="evenodd">
        <g id="icon/功能图标/文件夹/selected-oppo">
            <g id="编组备份" transform="translate(-0.000000, 0.695652)">
                <path d="M0.00776397516,0.672877853 L0.00776397516,13.9233954 C0.00776397516,14.0991082 0.0775656004,14.2676243 0.201813304,14.391872 C0.326061007,14.5161197 0.494577059,14.5859213 0.670289849,14.5859213 L15.2458592,14.5859213 C15.421572,14.5859213 15.5900881,14.5161197 15.7143358,14.391872 C15.8385835,14.2676243 15.9083851,14.0991082 15.9083851,13.9233954 L15.9083851,2.43983437 C15.9083851,2.26412159 15.8385835,2.09560553 15.7143358,1.97135782 C15.5900881,1.84711012 15.421572,1.77730848 15.2458592,1.77730848 L8.34962733,1.77730848 C8.19350298,1.77730376 8.04239579,1.72216372 7.92296066,1.62161491 L6.19310559,0.166045555 C6.07367046,0.0654967381 5.92256327,0.0103519604 5.76643892,0.0103519604 L0.670289849,0.0103519604 C0.494577059,0.0103519604 0.326061007,0.0801535958 0.201813304,0.204401303 C0.0775656004,0.32864901 0.00776397516,0.497165063 0.00776397516,0.672877853 Z" id="路径" fill="#009B6D"></path>
                <path d="M1.99534161,2.66045549 L13.9208075,2.66045549 C14.3624914,2.66045549 14.5833333,2.88129745 14.5833333,3.32298137 L14.5833333,7.96066252 C14.5833333,8.40234644 14.3624914,8.62318841 13.9208075,8.62318841 L1.99534161,8.62318841 C1.5536577,8.62318841 1.33281574,8.40234645 1.33281574,7.96066252 L1.33281574,3.32298137 C1.33281574,2.88129745 1.5536577,2.66045549 1.99534161,2.66045549 Z" id="路径" fill="#FFFFFF"></path>
                <path d="M0.670289849,3.98550724 L15.2458592,3.98550724 C15.6875431,3.98550724 15.9083851,4.2063492 15.9083851,4.64803313 L15.9083851,13.9233954 C15.9083851,14.3650794 15.6875431,14.5859213 15.2458592,14.5859213 L0.670289849,14.5859213 C0.228605933,14.5859213 0.00776397516,14.3650794 0.00776397516,13.9233954 L0.00776397516,4.64803313 C0.00776397516,4.20634922 0.228605933,3.98550724 0.670289849,3.98550724 Z" id="路径" fill="#11CB94"></path>
            </g>
        </g>
    </g>
</svg>