<?xml version="1.0" encoding="UTF-8"?>
<svg width="60px" height="60px" viewBox="0 0 60 60" version="1.1" xmlns="http://www.w3.org/2000/svg" xmlns:xlink="http://www.w3.org/1999/xlink">
    <title>icon/设备图/无纸化升降机/off</title>
    <defs>
        <circle id="path-1" cx="30" cy="30" r="30"></circle>
        <mask id="mask-2" maskContentUnits="userSpaceOnUse" maskUnits="objectBoundingBox" x="0" y="0" width="60" height="60" fill="white">
            <use xlink:href="#path-1"></use>
        </mask>
        <linearGradient x1="50%" y1="0%" x2="50%" y2="100%" id="linearGradient-3">
            <stop stop-color="#9FA1A9" offset="0%"></stop>
            <stop stop-color="#4C4F5C" offset="100%"></stop>
        </linearGradient>
        <radialGradient cx="12.1165089%" cy="6.0351949%" fx="12.1165089%" fy="6.0351949%" r="160.081701%" gradientTransform="translate(0.121165,0.060352),scale(0.667038,1.000000),rotate(36.600607),translate(-0.121165,-0.060352)" id="radialGradient-4">
            <stop stop-color="#FFFFFF" offset="0%"></stop>
            <stop stop-color="#333337" offset="100%"></stop>
        </radialGradient>
        <linearGradient x1="50%" y1="0%" x2="50%" y2="98.9729021%" id="linearGradient-5">
            <stop stop-color="#33334A" stop-opacity="0.2" offset="0%"></stop>
            <stop stop-color="#EDEFFF" offset="100%"></stop>
        </linearGradient>
        <path d="M5.0879794,0.0126509233 C4.50181996,0.0126509233 4.02530185,0.489169034 4.02530185,1.07532848 L4.02530185,24.1759144 C4.02530185,24.7620739 4.50181996,25.238592 5.0879794,25.238592 L40.780451,25.238592 C41.3666104,25.238592 41.8431286,24.7620739 41.8431286,24.1759144 L41.8431286,1.07532848 C41.8431286,0.489169034 41.3666104,0.0126509233 40.780451,0.0126509233 L5.0879794,0.0126509233 Z" id="path-6"></path>
        <filter x="-6.6%" y="-9.9%" width="113.2%" height="119.8%" filterUnits="objectBoundingBox" id="filter-7">
            <feGaussianBlur stdDeviation="2" in="SourceAlpha" result="shadowBlurInner1"></feGaussianBlur>
            <feOffset dx="0" dy="1" in="shadowBlurInner1" result="shadowOffsetInner1"></feOffset>
            <feComposite in="shadowOffsetInner1" in2="SourceAlpha" operator="arithmetic" k2="-1" k3="1" result="shadowInnerInner1"></feComposite>
            <feColorMatrix values="0 0 0 0 0.924496936   0 0 0 0 0.920198171   0 0 0 0 1  0 0 0 0.4 0" type="matrix" in="shadowInnerInner1"></feColorMatrix>
        </filter>
    </defs>
    <g id="icon/设备图/无纸化升降机/off" stroke="none" stroke-width="1" fill="none" fill-rule="evenodd">
        <g id="编组-2" opacity="0" stroke="" stroke-dasharray="2,2" stroke-width="6">
            <use id="椭圆形" mask="url(#mask-2)" xlink:href="#path-1"></use>
        </g>
        <g id="编组" transform="translate(7.500000, 16.000000)">
            <path d="M4.85354544,25.238592 C4.64426197,25.238592 4.40707403,25.266212 4.19779056,25.3194791 L1.74754142,26.4045509 C0.784837443,26.6432667 0.701124054,27.1325355 1.66382803,27.1325355 L44.2041819,27.1325355 C45.1529336,27.1325355 45.0831725,26.6432667 44.1204685,26.4045509 L41.6702194,25.3194791 C41.4609359,25.266212 41.2377002,25.238592 41.0144645,25.238592 L4.85354544,25.238592 Z" id="路径" fill="url(#linearGradient-3)" fill-rule="nonzero"></path>
            <g id="形状结合">
                <use fill="url(#radialGradient-4)" fill-rule="evenodd" xlink:href="#path-6"></use>
                <use fill="black" fill-opacity="1" filter="url(#filter-7)" xlink:href="#path-6"></use>
                <path stroke="url(#linearGradient-5)" stroke-width="0.3" d="M40.780451,0.162650923 C41.0321617,0.162650923 41.2603019,0.265014255 41.4255335,0.430245927 C41.5907652,0.595477598 41.6931286,0.823617805 41.6931286,1.07532848 L41.6931286,1.07532848 L41.6931286,24.1759144 C41.6931286,24.4276251 41.5907652,24.6557653 41.4255335,24.820997 C41.2603019,24.9862286 41.0321617,25.088592 40.780451,25.088592 L40.780451,25.088592 L5.0879794,25.088592 C4.83626873,25.088592 4.60812852,24.9862286 4.44289685,24.820997 C4.27766518,24.6557653 4.17530185,24.4276251 4.17530185,24.1759144 L4.17530185,24.1759144 L4.17530185,1.07532848 C4.17530185,0.823617805 4.27766518,0.595477598 4.44289685,0.430245927 C4.60812852,0.265014255 4.83626873,0.162650923 5.0879794,0.162650923 L5.0879794,0.162650923 Z" stroke-linejoin="square"></path>
            </g>
            <path d="M6.80367543,21.3589755 L39.064755,21.3589755 C39.2856689,21.3589755 39.464755,21.1798894 39.464755,20.9589755 L39.464755,2.71933594 C39.464755,2.49842204 39.2856689,2.31933594 39.064755,2.31933594 L6.80367543,2.31933594 C6.58276153,2.31933594 6.40367543,2.49842204 6.40367543,2.71933594 L6.40367543,20.9589755 C6.40367543,21.1798894 6.58276153,21.3589755 6.80367543,21.3589755 Z" id="路径" stroke="#0E111E" stroke-width="0.1" fill="#FFFFFF" fill-rule="nonzero"></path>
            <path d="M7.77855737,26.7432147 L7.00704652,26.7432147 C6.95181804,26.7432147 6.90704652,26.6984432 6.90704652,26.6432147 C6.90704652,26.6141284 6.91971053,26.5864834 6.94173684,26.5674873 L8.02603176,25.632358 C8.04418797,25.6166995 8.0673657,25.6080855 8.09134143,25.6080855 L8.83013503,25.6080855 C8.8853635,25.6080855 8.93013503,25.652857 8.93013503,25.7080855 C8.93013503,25.736642 8.91792646,25.7638361 8.89658703,25.7828125 L7.84500938,26.7179418 C7.82670229,26.7342216 7.80305599,26.7432147 7.77855737,26.7432147 Z" id="路径-2" fill="#E1E2EB"></path>
            <path d="M37.5501699,26.7432147 L36.778659,26.7432147 C36.7234305,26.7432147 36.678659,26.6984432 36.678659,26.6432147 C36.678659,26.6141284 36.691323,26.5864834 36.7133493,26.5674873 L37.7976443,25.632358 C37.8158005,25.6166995 37.8389782,25.6080855 37.8629539,25.6080855 L38.6017475,25.6080855 C38.656976,25.6080855 38.7017475,25.652857 38.7017475,25.7080855 C38.7017475,25.736642 38.689539,25.7638361 38.6681995,25.7828125 L37.6166219,26.7179418 C37.5983148,26.7342216 37.5746685,26.7432147 37.5501699,26.7432147 Z" id="路径-2备份" fill="#E1E2EB" transform="translate(37.687138, 26.175650) scale(-1, 1) translate(-37.687138, -26.175650) "></path>
        </g>
    </g>
</svg>