<?xml version="1.0" encoding="UTF-8"?>
<svg width="60px" height="60px" viewBox="0 0 60 60" version="1.1" xmlns="http://www.w3.org/2000/svg" xmlns:xlink="http://www.w3.org/1999/xlink">
    <title>icon/设备图/时序电源/off</title>
    <defs>
        <circle id="path-1" cx="30" cy="30" r="30"></circle>
        <mask id="mask-2" maskContentUnits="userSpaceOnUse" maskUnits="objectBoundingBox" x="0" y="0" width="60" height="60" fill="white">
            <use xlink:href="#path-1"></use>
        </mask>
        <linearGradient x1="50%" y1="0%" x2="50%" y2="100%" id="linearGradient-3">
            <stop stop-color="#B3B3B3" offset="0%"></stop>
            <stop stop-color="#FFFFFF" offset="100%"></stop>
        </linearGradient>
        <linearGradient x1="50%" y1="0%" x2="50%" y2="100%" id="linearGradient-4">
            <stop stop-color="#FFFFFF" offset="0%"></stop>
            <stop stop-color="#B3B3B3" offset="100%"></stop>
        </linearGradient>
        <linearGradient x1="50%" y1="0%" x2="50%" y2="100%" id="linearGradient-5">
            <stop stop-color="#FFFFFF" offset="0%"></stop>
            <stop stop-color="#B3B3B3" offset="100%"></stop>
        </linearGradient>
        <linearGradient x1="50%" y1="0%" x2="50%" y2="100%" id="linearGradient-6">
            <stop stop-color="#BABAC5" offset="0%"></stop>
            <stop stop-color="#454550" offset="100%"></stop>
        </linearGradient>
        <linearGradient x1="50%" y1="0%" x2="50%" y2="98.8991477%" id="linearGradient-7">
            <stop stop-color="#888888" offset="0%"></stop>
            <stop stop-color="#FFFCE3" stop-opacity="0" offset="100%"></stop>
        </linearGradient>
        <radialGradient cx="32.667211%" cy="20.2934801%" fx="32.667211%" fy="20.2934801%" r="68.7480302%" id="radialGradient-8">
            <stop stop-color="#919191" offset="0%"></stop>
            <stop stop-color="#303030" offset="100%"></stop>
        </radialGradient>
        <linearGradient x1="50%" y1="0%" x2="50%" y2="98.8991477%" id="linearGradient-9">
            <stop stop-color="#A5A5A5" offset="0%"></stop>
            <stop stop-color="#FFFCE3" offset="100%"></stop>
        </linearGradient>
        <circle id="path-10" cx="3.55799068" cy="3.55799068" r="2.55799068"></circle>
        <filter x="-2.0%" y="-2.0%" width="105.9%" height="107.8%" filterUnits="objectBoundingBox" id="filter-11">
            <feOffset dx="0.1" dy="0.2" in="SourceAlpha" result="shadowOffsetOuter1"></feOffset>
            <feComposite in="shadowOffsetOuter1" in2="SourceAlpha" operator="out" result="shadowOffsetOuter1"></feComposite>
            <feColorMatrix values="0 0 0 0 0   0 0 0 0 0   0 0 0 0 0  0 0 0 0.3 0" type="matrix" in="shadowOffsetOuter1"></feColorMatrix>
        </filter>
        <linearGradient x1="50%" y1="0%" x2="50%" y2="98.8991477%" id="linearGradient-12">
            <stop stop-color="#FFFCE3" stop-opacity="0.7" offset="0%"></stop>
            <stop stop-color="#EDDD6D" stop-opacity="0" offset="65.5703671%"></stop>
        </linearGradient>
    </defs>
    <g id="icon/设备图/时序电源/off" stroke="none" stroke-width="1" fill="none" fill-rule="evenodd">
        <g id="编组-2">
            <use id="椭圆形" stroke="" mask="url(#mask-2)" stroke-width="6" opacity="0" stroke-dasharray="2,2" xlink:href="#path-1"></use>
            <g id="编组" transform="translate(6.000000, 20.500000)">
                <rect id="矩形" fill="url(#linearGradient-3)" fill-rule="nonzero" x="2.22410932" y="0.823609739" width="43.5517814" height="4.37974843" rx="0.6"></rect>
                <rect id="矩形" fill="url(#linearGradient-4)" fill-rule="nonzero" x="0.387704315" y="2.14365059" width="47.2245914" height="15.2670791" rx="1"></rect>
                <path d="M12.7062807,17.4107297 L12.7062807,17.921368 C12.7062807,18.2034919 12.5019372,18.4320063 12.2506028,18.4320063 L9.72920332,18.4320063 C9.60797693,18.4320063 9.49174674,18.3781322 9.40622855,18.2822994 C9.32071036,18.1864667 9.27295399,18.0565769 9.2735204,17.921368 L9.2735204,17.4110292 L12.7062807,17.4107297 Z M38.7264846,17.4107297 L38.7264846,17.921368 C38.7264846,18.2034919 38.5221411,18.4320063 38.2708067,18.4320063 L35.7494072,18.4320063 C35.6281808,18.4320063 35.5119506,18.3781322 35.4264324,18.2822994 C35.3409142,18.1864667 35.2931579,18.0565769 35.2937243,17.921368 L35.2937243,17.4110292 L38.7264846,17.4107297 Z" id="形状结合" fill="#333333" fill-rule="nonzero"></path>
                <g id="编组-6" transform="translate(3.139115, 3.277190)" fill-rule="nonzero">
                    <g id="编组-4">
                        <rect id="矩形" fill="url(#linearGradient-5)" x="0" y="0" width="5.93769431" height="5.934258" rx="0.3"></rect>
                        <path d="M4.11145023,2.15437792 C4.29435689,2.14517955 4.4611527,2.04695535 4.55790874,1.89146346 C4.66551863,1.71593404 4.66551863,1.49486457 4.55790874,1.31933515 C4.46135737,1.16363369 4.2944409,1.06533843 4.11145023,1.0564207 L4.11145023,0.986971598 L3.50625092,0.986971598 L3.50625092,2.22382702 L4.11145023,2.22382702 L4.11145023,2.15437792 Z M1.82624408,2.15437792 L1.82624408,2.21225217 L2.43144339,2.21225217 L2.43144339,0.967128998 L1.82624408,0.967128998 L1.82624408,1.04815295 C1.64308421,1.056503 1.47592255,1.15494264 1.37978557,1.3110674 C1.27217568,1.48659682 1.27217568,1.70766629 1.37978557,1.88319571 C1.47439623,2.04206331 1.64164967,2.14365429 1.82624408,2.15437792 Z M2.9705007,3.71698272 C3.03349931,3.71700805 3.09382688,3.69153819 3.1377463,3.64637284 C3.18166572,3.60120748 3.20543846,3.5401912 3.20365126,3.47721795 L3.20365126,3.03075944 C3.20365126,2.90199394 3.0992662,2.79760888 2.9705007,2.79760888 C2.84173521,2.79760888 2.73735015,2.90199394 2.73735015,3.03075944 L2.73735015,3.47721795 C2.73556295,3.5401912 2.75933569,3.60120748 2.80325511,3.64637284 C2.84717453,3.69153819 2.9075021,3.71700805 2.9705007,3.71698272 L2.9705007,3.71698272 Z M1.94860679,4.16840186 C1.85432157,4.17061528 1.77065594,4.22941296 1.73663047,4.31737243 C1.70260499,4.4053319 1.72492198,4.50512697 1.79317308,4.57021452 L2.14041858,4.90092452 C2.18419579,4.94462165 2.24393691,4.9685181 2.30577359,4.96706652 C2.3683376,4.96663215 2.42814101,4.94124656 2.47191339,4.89654285 C2.51568578,4.85183914 2.53980686,4.79151461 2.53892415,4.72895532 C2.53907723,4.66638261 2.51334205,4.60653336 2.46782149,4.56360032 L2.12057598,4.23289031 C2.07438636,4.1889369 2.01230806,4.16565754 1.94860679,4.16840186 L1.94860679,4.16840186 Z M3.63357426,4.96541298 C3.69497525,4.96620293 3.75427539,4.94307587 3.79892927,4.90092452 L4.14617478,4.57021452 C4.23697305,4.47867472 4.23697305,4.3310443 4.14617478,4.23950451 C4.10324173,4.19398395 4.04339248,4.16824877 3.98081977,4.16840186 C3.91929022,4.16689135 3.85972543,4.19012162 3.81546477,4.23289031 L3.46821926,4.56360032 C3.42308101,4.60625324 3.39682462,4.66515179 3.39527254,4.727235 C3.39372046,4.78931821 3.41700096,4.84945517 3.45995151,4.89431032 C3.5058726,4.94045006 3.56848076,4.96608959 3.63357426,4.96541298 L3.63357426,4.96541298 Z" id="形状" fill="#9A9BA2"></path>
                    </g>
                    <g id="编组-4" transform="translate(0.000000, 6.903715)">
                        <rect id="矩形" fill="url(#linearGradient-5)" x="0" y="0" width="5.93769431" height="5.934258" rx="0.3"></rect>
                        <path d="M4.11145023,2.15437792 C4.29435689,2.14517955 4.4611527,2.04695535 4.55790874,1.89146346 C4.66551863,1.71593404 4.66551863,1.49486457 4.55790874,1.31933515 C4.46135737,1.16363369 4.2944409,1.06533843 4.11145023,1.0564207 L4.11145023,0.986971598 L3.50625092,0.986971598 L3.50625092,2.22382702 L4.11145023,2.22382702 L4.11145023,2.15437792 Z M1.82624408,2.15437792 L1.82624408,2.21225217 L2.43144339,2.21225217 L2.43144339,0.967128998 L1.82624408,0.967128998 L1.82624408,1.04815295 C1.64308421,1.056503 1.47592255,1.15494264 1.37978557,1.3110674 C1.27217568,1.48659682 1.27217568,1.70766629 1.37978557,1.88319571 C1.47439623,2.04206331 1.64164967,2.14365429 1.82624408,2.15437792 Z M2.9705007,3.71698272 C3.03349931,3.71700805 3.09382688,3.69153819 3.1377463,3.64637284 C3.18166572,3.60120748 3.20543846,3.5401912 3.20365126,3.47721795 L3.20365126,3.03075944 C3.20365126,2.90199394 3.0992662,2.79760888 2.9705007,2.79760888 C2.84173521,2.79760888 2.73735015,2.90199394 2.73735015,3.03075944 L2.73735015,3.47721795 C2.73556295,3.5401912 2.75933569,3.60120748 2.80325511,3.64637284 C2.84717453,3.69153819 2.9075021,3.71700805 2.9705007,3.71698272 L2.9705007,3.71698272 Z M1.94860679,4.16840186 C1.85432157,4.17061528 1.77065594,4.22941296 1.73663047,4.31737243 C1.70260499,4.4053319 1.72492198,4.50512697 1.79317308,4.57021452 L2.14041858,4.90092452 C2.18419579,4.94462165 2.24393691,4.9685181 2.30577359,4.96706652 C2.3683376,4.96663215 2.42814101,4.94124656 2.47191339,4.89654285 C2.51568578,4.85183914 2.53980686,4.79151461 2.53892415,4.72895532 C2.53907723,4.66638261 2.51334205,4.60653336 2.46782149,4.56360032 L2.12057598,4.23289031 C2.07438636,4.1889369 2.01230806,4.16565754 1.94860679,4.16840186 L1.94860679,4.16840186 Z M3.63357426,4.96541298 C3.69497525,4.96620293 3.75427539,4.94307587 3.79892927,4.90092452 L4.14617478,4.57021452 C4.23697305,4.47867472 4.23697305,4.3310443 4.14617478,4.23950451 C4.10324173,4.19398395 4.04339248,4.16824877 3.98081977,4.16840186 C3.91929022,4.16689135 3.85972543,4.19012162 3.81546477,4.23289031 L3.46821926,4.56360032 C3.42308101,4.60625324 3.39682462,4.66515179 3.39527254,4.727235 C3.39372046,4.78931821 3.41700096,4.84945517 3.45995151,4.89431032 C3.5058726,4.94045006 3.56848076,4.96608959 3.63357426,4.96541298 L3.63357426,4.96541298 Z" id="形状" fill="#9A9BA2"></path>
                    </g>
                    <g id="编组-4" transform="translate(6.791390, 0.000000)">
                        <rect id="矩形" fill="url(#linearGradient-5)" x="0" y="0" width="5.93769431" height="5.934258" rx="0.3"></rect>
                        <path d="M4.11145023,2.15437792 C4.29435689,2.14517955 4.4611527,2.04695535 4.55790874,1.89146346 C4.66551863,1.71593404 4.66551863,1.49486457 4.55790874,1.31933515 C4.46135737,1.16363369 4.2944409,1.06533843 4.11145023,1.0564207 L4.11145023,0.986971598 L3.50625092,0.986971598 L3.50625092,2.22382702 L4.11145023,2.22382702 L4.11145023,2.15437792 Z M1.82624408,2.15437792 L1.82624408,2.21225217 L2.43144339,2.21225217 L2.43144339,0.967128998 L1.82624408,0.967128998 L1.82624408,1.04815295 C1.64308421,1.056503 1.47592255,1.15494264 1.37978557,1.3110674 C1.27217568,1.48659682 1.27217568,1.70766629 1.37978557,1.88319571 C1.47439623,2.04206331 1.64164967,2.14365429 1.82624408,2.15437792 Z M2.9705007,3.71698272 C3.03349931,3.71700805 3.09382688,3.69153819 3.1377463,3.64637284 C3.18166572,3.60120748 3.20543846,3.5401912 3.20365126,3.47721795 L3.20365126,3.03075944 C3.20365126,2.90199394 3.0992662,2.79760888 2.9705007,2.79760888 C2.84173521,2.79760888 2.73735015,2.90199394 2.73735015,3.03075944 L2.73735015,3.47721795 C2.73556295,3.5401912 2.75933569,3.60120748 2.80325511,3.64637284 C2.84717453,3.69153819 2.9075021,3.71700805 2.9705007,3.71698272 L2.9705007,3.71698272 Z M1.94860679,4.16840186 C1.85432157,4.17061528 1.77065594,4.22941296 1.73663047,4.31737243 C1.70260499,4.4053319 1.72492198,4.50512697 1.79317308,4.57021452 L2.14041858,4.90092452 C2.18419579,4.94462165 2.24393691,4.9685181 2.30577359,4.96706652 C2.3683376,4.96663215 2.42814101,4.94124656 2.47191339,4.89654285 C2.51568578,4.85183914 2.53980686,4.79151461 2.53892415,4.72895532 C2.53907723,4.66638261 2.51334205,4.60653336 2.46782149,4.56360032 L2.12057598,4.23289031 C2.07438636,4.1889369 2.01230806,4.16565754 1.94860679,4.16840186 L1.94860679,4.16840186 Z M3.63357426,4.96541298 C3.69497525,4.96620293 3.75427539,4.94307587 3.79892927,4.90092452 L4.14617478,4.57021452 C4.23697305,4.47867472 4.23697305,4.3310443 4.14617478,4.23950451 C4.10324173,4.19398395 4.04339248,4.16824877 3.98081977,4.16840186 C3.91929022,4.16689135 3.85972543,4.19012162 3.81546477,4.23289031 L3.46821926,4.56360032 C3.42308101,4.60625324 3.39682462,4.66515179 3.39527254,4.727235 C3.39372046,4.78931821 3.41700096,4.84945517 3.45995151,4.89431032 C3.5058726,4.94045006 3.56848076,4.96608959 3.63357426,4.96541298 L3.63357426,4.96541298 Z" id="形状" fill="#9A9BA2"></path>
                    </g>
                    <g id="编组-4" transform="translate(6.791390, 6.903715)">
                        <rect id="矩形" fill="url(#linearGradient-5)" x="0" y="0" width="5.93769431" height="5.934258" rx="0.3"></rect>
                        <path d="M4.11145023,2.15437792 C4.29435689,2.14517955 4.4611527,2.04695535 4.55790874,1.89146346 C4.66551863,1.71593404 4.66551863,1.49486457 4.55790874,1.31933515 C4.46135737,1.16363369 4.2944409,1.06533843 4.11145023,1.0564207 L4.11145023,0.986971598 L3.50625092,0.986971598 L3.50625092,2.22382702 L4.11145023,2.22382702 L4.11145023,2.15437792 Z M1.82624408,2.15437792 L1.82624408,2.21225217 L2.43144339,2.21225217 L2.43144339,0.967128998 L1.82624408,0.967128998 L1.82624408,1.04815295 C1.64308421,1.056503 1.47592255,1.15494264 1.37978557,1.3110674 C1.27217568,1.48659682 1.27217568,1.70766629 1.37978557,1.88319571 C1.47439623,2.04206331 1.64164967,2.14365429 1.82624408,2.15437792 Z M2.9705007,3.71698272 C3.03349931,3.71700805 3.09382688,3.69153819 3.1377463,3.64637284 C3.18166572,3.60120748 3.20543846,3.5401912 3.20365126,3.47721795 L3.20365126,3.03075944 C3.20365126,2.90199394 3.0992662,2.79760888 2.9705007,2.79760888 C2.84173521,2.79760888 2.73735015,2.90199394 2.73735015,3.03075944 L2.73735015,3.47721795 C2.73556295,3.5401912 2.75933569,3.60120748 2.80325511,3.64637284 C2.84717453,3.69153819 2.9075021,3.71700805 2.9705007,3.71698272 L2.9705007,3.71698272 Z M1.94860679,4.16840186 C1.85432157,4.17061528 1.77065594,4.22941296 1.73663047,4.31737243 C1.70260499,4.4053319 1.72492198,4.50512697 1.79317308,4.57021452 L2.14041858,4.90092452 C2.18419579,4.94462165 2.24393691,4.9685181 2.30577359,4.96706652 C2.3683376,4.96663215 2.42814101,4.94124656 2.47191339,4.89654285 C2.51568578,4.85183914 2.53980686,4.79151461 2.53892415,4.72895532 C2.53907723,4.66638261 2.51334205,4.60653336 2.46782149,4.56360032 L2.12057598,4.23289031 C2.07438636,4.1889369 2.01230806,4.16565754 1.94860679,4.16840186 L1.94860679,4.16840186 Z M3.63357426,4.96541298 C3.69497525,4.96620293 3.75427539,4.94307587 3.79892927,4.90092452 L4.14617478,4.57021452 C4.23697305,4.47867472 4.23697305,4.3310443 4.14617478,4.23950451 C4.10324173,4.19398395 4.04339248,4.16824877 3.98081977,4.16840186 C3.91929022,4.16689135 3.85972543,4.19012162 3.81546477,4.23289031 L3.46821926,4.56360032 C3.42308101,4.60625324 3.39682462,4.66515179 3.39527254,4.727235 C3.39372046,4.78931821 3.41700096,4.84945517 3.45995151,4.89431032 C3.5058726,4.94045006 3.56848076,4.96608959 3.63357426,4.96541298 L3.63357426,4.96541298 Z" id="形状" fill="#9A9BA2"></path>
                    </g>
                    <g id="编组-4" transform="translate(13.791390, 0.000000)">
                        <rect id="矩形" fill="url(#linearGradient-5)" x="0" y="0" width="5.93769431" height="5.934258" rx="0.3"></rect>
                        <path d="M4.11145023,2.15437792 C4.29435689,2.14517955 4.4611527,2.04695535 4.55790874,1.89146346 C4.66551863,1.71593404 4.66551863,1.49486457 4.55790874,1.31933515 C4.46135737,1.16363369 4.2944409,1.06533843 4.11145023,1.0564207 L4.11145023,0.986971598 L3.50625092,0.986971598 L3.50625092,2.22382702 L4.11145023,2.22382702 L4.11145023,2.15437792 Z M1.82624408,2.15437792 L1.82624408,2.21225217 L2.43144339,2.21225217 L2.43144339,0.967128998 L1.82624408,0.967128998 L1.82624408,1.04815295 C1.64308421,1.056503 1.47592255,1.15494264 1.37978557,1.3110674 C1.27217568,1.48659682 1.27217568,1.70766629 1.37978557,1.88319571 C1.47439623,2.04206331 1.64164967,2.14365429 1.82624408,2.15437792 Z M2.9705007,3.71698272 C3.03349931,3.71700805 3.09382688,3.69153819 3.1377463,3.64637284 C3.18166572,3.60120748 3.20543846,3.5401912 3.20365126,3.47721795 L3.20365126,3.03075944 C3.20365126,2.90199394 3.0992662,2.79760888 2.9705007,2.79760888 C2.84173521,2.79760888 2.73735015,2.90199394 2.73735015,3.03075944 L2.73735015,3.47721795 C2.73556295,3.5401912 2.75933569,3.60120748 2.80325511,3.64637284 C2.84717453,3.69153819 2.9075021,3.71700805 2.9705007,3.71698272 L2.9705007,3.71698272 Z M1.94860679,4.16840186 C1.85432157,4.17061528 1.77065594,4.22941296 1.73663047,4.31737243 C1.70260499,4.4053319 1.72492198,4.50512697 1.79317308,4.57021452 L2.14041858,4.90092452 C2.18419579,4.94462165 2.24393691,4.9685181 2.30577359,4.96706652 C2.3683376,4.96663215 2.42814101,4.94124656 2.47191339,4.89654285 C2.51568578,4.85183914 2.53980686,4.79151461 2.53892415,4.72895532 C2.53907723,4.66638261 2.51334205,4.60653336 2.46782149,4.56360032 L2.12057598,4.23289031 C2.07438636,4.1889369 2.01230806,4.16565754 1.94860679,4.16840186 L1.94860679,4.16840186 Z M3.63357426,4.96541298 C3.69497525,4.96620293 3.75427539,4.94307587 3.79892927,4.90092452 L4.14617478,4.57021452 C4.23697305,4.47867472 4.23697305,4.3310443 4.14617478,4.23950451 C4.10324173,4.19398395 4.04339248,4.16824877 3.98081977,4.16840186 C3.91929022,4.16689135 3.85972543,4.19012162 3.81546477,4.23289031 L3.46821926,4.56360032 C3.42308101,4.60625324 3.39682462,4.66515179 3.39527254,4.727235 C3.39372046,4.78931821 3.41700096,4.84945517 3.45995151,4.89431032 C3.5058726,4.94045006 3.56848076,4.96608959 3.63357426,4.96541298 L3.63357426,4.96541298 Z" id="形状" fill="#9A9BA2"></path>
                    </g>
                    <g id="编组-4" transform="translate(13.791390, 6.903715)">
                        <rect id="矩形" fill="url(#linearGradient-5)" x="0" y="0" width="5.93769431" height="5.934258" rx="0.3"></rect>
                        <path d="M4.11145023,2.15437792 C4.29435689,2.14517955 4.4611527,2.04695535 4.55790874,1.89146346 C4.66551863,1.71593404 4.66551863,1.49486457 4.55790874,1.31933515 C4.46135737,1.16363369 4.2944409,1.06533843 4.11145023,1.0564207 L4.11145023,0.986971598 L3.50625092,0.986971598 L3.50625092,2.22382702 L4.11145023,2.22382702 L4.11145023,2.15437792 Z M1.82624408,2.15437792 L1.82624408,2.21225217 L2.43144339,2.21225217 L2.43144339,0.967128998 L1.82624408,0.967128998 L1.82624408,1.04815295 C1.64308421,1.056503 1.47592255,1.15494264 1.37978557,1.3110674 C1.27217568,1.48659682 1.27217568,1.70766629 1.37978557,1.88319571 C1.47439623,2.04206331 1.64164967,2.14365429 1.82624408,2.15437792 Z M2.9705007,3.71698272 C3.03349931,3.71700805 3.09382688,3.69153819 3.1377463,3.64637284 C3.18166572,3.60120748 3.20543846,3.5401912 3.20365126,3.47721795 L3.20365126,3.03075944 C3.20365126,2.90199394 3.0992662,2.79760888 2.9705007,2.79760888 C2.84173521,2.79760888 2.73735015,2.90199394 2.73735015,3.03075944 L2.73735015,3.47721795 C2.73556295,3.5401912 2.75933569,3.60120748 2.80325511,3.64637284 C2.84717453,3.69153819 2.9075021,3.71700805 2.9705007,3.71698272 L2.9705007,3.71698272 Z M1.94860679,4.16840186 C1.85432157,4.17061528 1.77065594,4.22941296 1.73663047,4.31737243 C1.70260499,4.4053319 1.72492198,4.50512697 1.79317308,4.57021452 L2.14041858,4.90092452 C2.18419579,4.94462165 2.24393691,4.9685181 2.30577359,4.96706652 C2.3683376,4.96663215 2.42814101,4.94124656 2.47191339,4.89654285 C2.51568578,4.85183914 2.53980686,4.79151461 2.53892415,4.72895532 C2.53907723,4.66638261 2.51334205,4.60653336 2.46782149,4.56360032 L2.12057598,4.23289031 C2.07438636,4.1889369 2.01230806,4.16565754 1.94860679,4.16840186 L1.94860679,4.16840186 Z M3.63357426,4.96541298 C3.69497525,4.96620293 3.75427539,4.94307587 3.79892927,4.90092452 L4.14617478,4.57021452 C4.23697305,4.47867472 4.23697305,4.3310443 4.14617478,4.23950451 C4.10324173,4.19398395 4.04339248,4.16824877 3.98081977,4.16840186 C3.91929022,4.16689135 3.85972543,4.19012162 3.81546477,4.23289031 L3.46821926,4.56360032 C3.42308101,4.60625324 3.39682462,4.66515179 3.39527254,4.727235 C3.39372046,4.78931821 3.41700096,4.84945517 3.45995151,4.89431032 C3.5058726,4.94045006 3.56848076,4.96608959 3.63357426,4.96541298 L3.63357426,4.96541298 Z" id="形状" fill="#9A9BA2"></path>
                    </g>
                    <g id="编组-4" transform="translate(20.791390, 0.000000)">
                        <rect id="矩形" fill="url(#linearGradient-5)" x="0" y="0" width="5.93769431" height="5.934258" rx="0.3"></rect>
                        <path d="M4.11145023,2.15437792 C4.29435689,2.14517955 4.4611527,2.04695535 4.55790874,1.89146346 C4.66551863,1.71593404 4.66551863,1.49486457 4.55790874,1.31933515 C4.46135737,1.16363369 4.2944409,1.06533843 4.11145023,1.0564207 L4.11145023,0.986971598 L3.50625092,0.986971598 L3.50625092,2.22382702 L4.11145023,2.22382702 L4.11145023,2.15437792 Z M1.82624408,2.15437792 L1.82624408,2.21225217 L2.43144339,2.21225217 L2.43144339,0.967128998 L1.82624408,0.967128998 L1.82624408,1.04815295 C1.64308421,1.056503 1.47592255,1.15494264 1.37978557,1.3110674 C1.27217568,1.48659682 1.27217568,1.70766629 1.37978557,1.88319571 C1.47439623,2.04206331 1.64164967,2.14365429 1.82624408,2.15437792 Z M2.9705007,3.71698272 C3.03349931,3.71700805 3.09382688,3.69153819 3.1377463,3.64637284 C3.18166572,3.60120748 3.20543846,3.5401912 3.20365126,3.47721795 L3.20365126,3.03075944 C3.20365126,2.90199394 3.0992662,2.79760888 2.9705007,2.79760888 C2.84173521,2.79760888 2.73735015,2.90199394 2.73735015,3.03075944 L2.73735015,3.47721795 C2.73556295,3.5401912 2.75933569,3.60120748 2.80325511,3.64637284 C2.84717453,3.69153819 2.9075021,3.71700805 2.9705007,3.71698272 L2.9705007,3.71698272 Z M1.94860679,4.16840186 C1.85432157,4.17061528 1.77065594,4.22941296 1.73663047,4.31737243 C1.70260499,4.4053319 1.72492198,4.50512697 1.79317308,4.57021452 L2.14041858,4.90092452 C2.18419579,4.94462165 2.24393691,4.9685181 2.30577359,4.96706652 C2.3683376,4.96663215 2.42814101,4.94124656 2.47191339,4.89654285 C2.51568578,4.85183914 2.53980686,4.79151461 2.53892415,4.72895532 C2.53907723,4.66638261 2.51334205,4.60653336 2.46782149,4.56360032 L2.12057598,4.23289031 C2.07438636,4.1889369 2.01230806,4.16565754 1.94860679,4.16840186 L1.94860679,4.16840186 Z M3.63357426,4.96541298 C3.69497525,4.96620293 3.75427539,4.94307587 3.79892927,4.90092452 L4.14617478,4.57021452 C4.23697305,4.47867472 4.23697305,4.3310443 4.14617478,4.23950451 C4.10324173,4.19398395 4.04339248,4.16824877 3.98081977,4.16840186 C3.91929022,4.16689135 3.85972543,4.19012162 3.81546477,4.23289031 L3.46821926,4.56360032 C3.42308101,4.60625324 3.39682462,4.66515179 3.39527254,4.727235 C3.39372046,4.78931821 3.41700096,4.84945517 3.45995151,4.89431032 C3.5058726,4.94045006 3.56848076,4.96608959 3.63357426,4.96541298 L3.63357426,4.96541298 Z" id="形状" fill="#9A9BA2"></path>
                    </g>
                    <g id="编组-4" transform="translate(20.791390, 6.903715)">
                        <rect id="矩形" fill="url(#linearGradient-5)" x="0" y="0" width="5.93769431" height="5.934258" rx="0.3"></rect>
                        <path d="M4.11145023,2.15437792 C4.29435689,2.14517955 4.4611527,2.04695535 4.55790874,1.89146346 C4.66551863,1.71593404 4.66551863,1.49486457 4.55790874,1.31933515 C4.46135737,1.16363369 4.2944409,1.06533843 4.11145023,1.0564207 L4.11145023,0.986971598 L3.50625092,0.986971598 L3.50625092,2.22382702 L4.11145023,2.22382702 L4.11145023,2.15437792 Z M1.82624408,2.15437792 L1.82624408,2.21225217 L2.43144339,2.21225217 L2.43144339,0.967128998 L1.82624408,0.967128998 L1.82624408,1.04815295 C1.64308421,1.056503 1.47592255,1.15494264 1.37978557,1.3110674 C1.27217568,1.48659682 1.27217568,1.70766629 1.37978557,1.88319571 C1.47439623,2.04206331 1.64164967,2.14365429 1.82624408,2.15437792 Z M2.9705007,3.71698272 C3.03349931,3.71700805 3.09382688,3.69153819 3.1377463,3.64637284 C3.18166572,3.60120748 3.20543846,3.5401912 3.20365126,3.47721795 L3.20365126,3.03075944 C3.20365126,2.90199394 3.0992662,2.79760888 2.9705007,2.79760888 C2.84173521,2.79760888 2.73735015,2.90199394 2.73735015,3.03075944 L2.73735015,3.47721795 C2.73556295,3.5401912 2.75933569,3.60120748 2.80325511,3.64637284 C2.84717453,3.69153819 2.9075021,3.71700805 2.9705007,3.71698272 L2.9705007,3.71698272 Z M1.94860679,4.16840186 C1.85432157,4.17061528 1.77065594,4.22941296 1.73663047,4.31737243 C1.70260499,4.4053319 1.72492198,4.50512697 1.79317308,4.57021452 L2.14041858,4.90092452 C2.18419579,4.94462165 2.24393691,4.9685181 2.30577359,4.96706652 C2.3683376,4.96663215 2.42814101,4.94124656 2.47191339,4.89654285 C2.51568578,4.85183914 2.53980686,4.79151461 2.53892415,4.72895532 C2.53907723,4.66638261 2.51334205,4.60653336 2.46782149,4.56360032 L2.12057598,4.23289031 C2.07438636,4.1889369 2.01230806,4.16565754 1.94860679,4.16840186 L1.94860679,4.16840186 Z M3.63357426,4.96541298 C3.69497525,4.96620293 3.75427539,4.94307587 3.79892927,4.90092452 L4.14617478,4.57021452 C4.23697305,4.47867472 4.23697305,4.3310443 4.14617478,4.23950451 C4.10324173,4.19398395 4.04339248,4.16824877 3.98081977,4.16840186 C3.91929022,4.16689135 3.85972543,4.19012162 3.81546477,4.23289031 L3.46821926,4.56360032 C3.42308101,4.60625324 3.39682462,4.66515179 3.39527254,4.727235 C3.39372046,4.78931821 3.41700096,4.84945517 3.45995151,4.89431032 C3.5058726,4.94045006 3.56848076,4.96608959 3.63357426,4.96541298 L3.63357426,4.96541298 Z" id="形状" fill="#9A9BA2"></path>
                    </g>
                    <g id="编组-4" transform="translate(27.791390, 0.000000)">
                        <rect id="矩形" fill="url(#linearGradient-5)" x="0" y="0" width="5.93769431" height="5.934258" rx="0.3"></rect>
                        <path d="M4.11145023,2.15437792 C4.29435689,2.14517955 4.4611527,2.04695535 4.55790874,1.89146346 C4.66551863,1.71593404 4.66551863,1.49486457 4.55790874,1.31933515 C4.46135737,1.16363369 4.2944409,1.06533843 4.11145023,1.0564207 L4.11145023,0.986971598 L3.50625092,0.986971598 L3.50625092,2.22382702 L4.11145023,2.22382702 L4.11145023,2.15437792 Z M1.82624408,2.15437792 L1.82624408,2.21225217 L2.43144339,2.21225217 L2.43144339,0.967128998 L1.82624408,0.967128998 L1.82624408,1.04815295 C1.64308421,1.056503 1.47592255,1.15494264 1.37978557,1.3110674 C1.27217568,1.48659682 1.27217568,1.70766629 1.37978557,1.88319571 C1.47439623,2.04206331 1.64164967,2.14365429 1.82624408,2.15437792 Z M2.9705007,3.71698272 C3.03349931,3.71700805 3.09382688,3.69153819 3.1377463,3.64637284 C3.18166572,3.60120748 3.20543846,3.5401912 3.20365126,3.47721795 L3.20365126,3.03075944 C3.20365126,2.90199394 3.0992662,2.79760888 2.9705007,2.79760888 C2.84173521,2.79760888 2.73735015,2.90199394 2.73735015,3.03075944 L2.73735015,3.47721795 C2.73556295,3.5401912 2.75933569,3.60120748 2.80325511,3.64637284 C2.84717453,3.69153819 2.9075021,3.71700805 2.9705007,3.71698272 L2.9705007,3.71698272 Z M1.94860679,4.16840186 C1.85432157,4.17061528 1.77065594,4.22941296 1.73663047,4.31737243 C1.70260499,4.4053319 1.72492198,4.50512697 1.79317308,4.57021452 L2.14041858,4.90092452 C2.18419579,4.94462165 2.24393691,4.9685181 2.30577359,4.96706652 C2.3683376,4.96663215 2.42814101,4.94124656 2.47191339,4.89654285 C2.51568578,4.85183914 2.53980686,4.79151461 2.53892415,4.72895532 C2.53907723,4.66638261 2.51334205,4.60653336 2.46782149,4.56360032 L2.12057598,4.23289031 C2.07438636,4.1889369 2.01230806,4.16565754 1.94860679,4.16840186 L1.94860679,4.16840186 Z M3.63357426,4.96541298 C3.69497525,4.96620293 3.75427539,4.94307587 3.79892927,4.90092452 L4.14617478,4.57021452 C4.23697305,4.47867472 4.23697305,4.3310443 4.14617478,4.23950451 C4.10324173,4.19398395 4.04339248,4.16824877 3.98081977,4.16840186 C3.91929022,4.16689135 3.85972543,4.19012162 3.81546477,4.23289031 L3.46821926,4.56360032 C3.42308101,4.60625324 3.39682462,4.66515179 3.39527254,4.727235 C3.39372046,4.78931821 3.41700096,4.84945517 3.45995151,4.89431032 C3.5058726,4.94045006 3.56848076,4.96608959 3.63357426,4.96541298 L3.63357426,4.96541298 Z" id="形状" fill="#9A9BA2"></path>
                    </g>
                    <g id="编组-4" transform="translate(27.791390, 6.903715)">
                        <rect id="矩形" fill="url(#linearGradient-5)" x="0" y="0" width="5.93769431" height="5.934258" rx="0.3"></rect>
                        <path d="M4.11145023,2.15437792 C4.29435689,2.14517955 4.4611527,2.04695535 4.55790874,1.89146346 C4.66551863,1.71593404 4.66551863,1.49486457 4.55790874,1.31933515 C4.46135737,1.16363369 4.2944409,1.06533843 4.11145023,1.0564207 L4.11145023,0.986971598 L3.50625092,0.986971598 L3.50625092,2.22382702 L4.11145023,2.22382702 L4.11145023,2.15437792 Z M1.82624408,2.15437792 L1.82624408,2.21225217 L2.43144339,2.21225217 L2.43144339,0.967128998 L1.82624408,0.967128998 L1.82624408,1.04815295 C1.64308421,1.056503 1.47592255,1.15494264 1.37978557,1.3110674 C1.27217568,1.48659682 1.27217568,1.70766629 1.37978557,1.88319571 C1.47439623,2.04206331 1.64164967,2.14365429 1.82624408,2.15437792 Z M2.9705007,3.71698272 C3.03349931,3.71700805 3.09382688,3.69153819 3.1377463,3.64637284 C3.18166572,3.60120748 3.20543846,3.5401912 3.20365126,3.47721795 L3.20365126,3.03075944 C3.20365126,2.90199394 3.0992662,2.79760888 2.9705007,2.79760888 C2.84173521,2.79760888 2.73735015,2.90199394 2.73735015,3.03075944 L2.73735015,3.47721795 C2.73556295,3.5401912 2.75933569,3.60120748 2.80325511,3.64637284 C2.84717453,3.69153819 2.9075021,3.71700805 2.9705007,3.71698272 L2.9705007,3.71698272 Z M1.94860679,4.16840186 C1.85432157,4.17061528 1.77065594,4.22941296 1.73663047,4.31737243 C1.70260499,4.4053319 1.72492198,4.50512697 1.79317308,4.57021452 L2.14041858,4.90092452 C2.18419579,4.94462165 2.24393691,4.9685181 2.30577359,4.96706652 C2.3683376,4.96663215 2.42814101,4.94124656 2.47191339,4.89654285 C2.51568578,4.85183914 2.53980686,4.79151461 2.53892415,4.72895532 C2.53907723,4.66638261 2.51334205,4.60653336 2.46782149,4.56360032 L2.12057598,4.23289031 C2.07438636,4.1889369 2.01230806,4.16565754 1.94860679,4.16840186 L1.94860679,4.16840186 Z M3.63357426,4.96541298 C3.69497525,4.96620293 3.75427539,4.94307587 3.79892927,4.90092452 L4.14617478,4.57021452 C4.23697305,4.47867472 4.23697305,4.3310443 4.14617478,4.23950451 C4.10324173,4.19398395 4.04339248,4.16824877 3.98081977,4.16840186 C3.91929022,4.16689135 3.85972543,4.19012162 3.81546477,4.23289031 L3.46821926,4.56360032 C3.42308101,4.60625324 3.39682462,4.66515179 3.39527254,4.727235 C3.39372046,4.78931821 3.41700096,4.84945517 3.45995151,4.89431032 C3.5058726,4.94045006 3.56848076,4.96608959 3.63357426,4.96541298 L3.63357426,4.96541298 Z" id="形状" fill="#9A9BA2"></path>
                    </g>
                </g>
                <path d="M39.722177,1.36646045 C39.8274878,1.36646045 39.9321933,1.37228938 40.0338727,1.38394723 L46.6962943,2.14365059 L1.30370573,2.14365059 L7.96642987,1.38394723 C8.06810927,1.37228938 8.17251223,1.36646045 8.27782303,1.36646045 L39.722177,1.36646045 Z" id="Fill-1" fill="url(#linearGradient-6)" fill-rule="nonzero"></path>
                <g id="编组-3" transform="translate(38.940105, 6.450129)">
                    <circle id="椭圆形备份-5" stroke="url(#linearGradient-7)" stroke-width="0.06" cx="3.55799068" cy="3.55799068" r="2.76282812"></circle>
                    <g id="椭圆形备份-3">
                        <use fill="black" fill-opacity="1" filter="url(#filter-11)" xlink:href="#path-10"></use>
                        <circle stroke="url(#linearGradient-9)" stroke-width="0.1" stroke-linejoin="square" fill="url(#radialGradient-8)" fill-rule="evenodd" cx="3.55799068" cy="3.55799068" r="2.50799068"></circle>
                    </g>
                    <circle id="椭圆形备份-4" stroke="url(#linearGradient-12)" stroke-width="0.1" opacity="0.5" transform="translate(3.557991, 3.557991) rotate(-30.000000) translate(-3.557991, -3.557991) " cx="3.55799068" cy="3.55799068" r="2.18545293"></circle>
                    <circle id="椭圆形" fill="#FFFFFF" cx="3.55799068" cy="3.55799068" r="1"></circle>
                </g>
            </g>
        </g>
    </g>
</svg>