<?xml version="1.0" encoding="UTF-8"?>
<svg width="60px" height="60px" viewBox="0 0 60 60" version="1.1" xmlns="http://www.w3.org/2000/svg" xmlns:xlink="http://www.w3.org/1999/xlink">
    <title>icon/设备图/时序电源/on</title>
    <defs>
        <circle id="path-1" cx="30" cy="30" r="30"></circle>
        <mask id="mask-2" maskContentUnits="userSpaceOnUse" maskUnits="objectBoundingBox" x="0" y="0" width="60" height="60" fill="white">
            <use xlink:href="#path-1"></use>
        </mask>
        <radialGradient cx="8.93797234%" cy="15.9688337%" fx="8.93797234%" fy="15.9688337%" r="728.335651%" gradientTransform="translate(0.089380,0.159688),scale(0.100564,1.000000),rotate(18.475456),translate(-0.089380,-0.159688)" id="radialGradient-3">
            <stop stop-color="#686E86" offset="0%"></stop>
            <stop stop-color="#0E101E" offset="100%"></stop>
        </radialGradient>
        <radialGradient cx="24.6982732%" cy="9.06850245%" fx="24.6982732%" fy="9.06850245%" r="250.045723%" gradientTransform="translate(0.246983,0.090685),scale(0.323287,1.000000),rotate(21.325108),translate(-0.246983,-0.090685)" id="radialGradient-4">
            <stop stop-color="#F5F5F8" offset="0%"></stop>
            <stop stop-color="#1E1D23" offset="100%"></stop>
        </radialGradient>
        <linearGradient x1="50%" y1="0%" x2="50%" y2="98.9729021%" id="linearGradient-5">
            <stop stop-color="#EDEFFF" offset="0%"></stop>
            <stop stop-color="#33334A" stop-opacity="0.2" offset="100%"></stop>
        </linearGradient>
        <rect id="path-6" x="0.387704315" y="2.14365059" width="47.2245914" height="15.2670791" rx="1"></rect>
        <filter x="-24.4%" y="-75.3%" width="148.7%" height="250.7%" filterUnits="objectBoundingBox" id="filter-7">
            <feGaussianBlur stdDeviation="6.5" in="SourceAlpha" result="shadowBlurInner1"></feGaussianBlur>
            <feOffset dx="0" dy="10" in="shadowBlurInner1" result="shadowOffsetInner1"></feOffset>
            <feComposite in="shadowOffsetInner1" in2="SourceAlpha" operator="arithmetic" k2="-1" k3="1" result="shadowInnerInner1"></feComposite>
            <feColorMatrix values="0 0 0 0 0.924496936   0 0 0 0 0.920198171   0 0 0 0 1  0 0 0 0.4 0" type="matrix" in="shadowInnerInner1"></feColorMatrix>
        </filter>
        <linearGradient x1="50%" y1="0%" x2="50%" y2="100%" id="linearGradient-8">
            <stop stop-color="#FFFFFF" offset="0%"></stop>
            <stop stop-color="#B3B3B3" offset="100%"></stop>
        </linearGradient>
        <radialGradient cx="18.8169218%" cy="9.20495755%" fx="18.8169218%" fy="9.20495755%" r="120.765139%" gradientTransform="translate(0.188169,0.092050),scale(0.999421,1.000000),rotate(48.749283),translate(-0.188169,-0.092050)" id="radialGradient-9">
            <stop stop-color="#B6B9C6" offset="0%"></stop>
            <stop stop-color="#0D0E22" offset="100%"></stop>
        </radialGradient>
        <linearGradient x1="50%" y1="0%" x2="50%" y2="100%" id="linearGradient-10">
            <stop stop-color="#BABABA" offset="0%"></stop>
            <stop stop-color="#FFFBDE" offset="100%"></stop>
        </linearGradient>
        <rect id="path-11" x="0" y="0" width="5.93769431" height="5.934258" rx="0.3"></rect>
        <filter x="-4.2%" y="-4.2%" width="108.4%" height="108.4%" filterUnits="objectBoundingBox" id="filter-12">
            <feGaussianBlur stdDeviation="0.05" in="SourceAlpha" result="shadowBlurInner1"></feGaussianBlur>
            <feOffset dx="0" dy="0.3" in="shadowBlurInner1" result="shadowOffsetInner1"></feOffset>
            <feComposite in="shadowOffsetInner1" in2="SourceAlpha" operator="arithmetic" k2="-1" k3="1" result="shadowInnerInner1"></feComposite>
            <feColorMatrix values="0 0 0 0 0.0407234672   0 0 0 0 0.0404703021   0 0 0 0 0.103091033  0 0 0 0.5 0" type="matrix" in="shadowInnerInner1"></feColorMatrix>
        </filter>
        <linearGradient x1="50%" y1="0%" x2="50%" y2="100%" id="linearGradient-13">
            <stop stop-color="#E3E3E8" offset="0%"></stop>
            <stop stop-color="#80818F" offset="100%"></stop>
        </linearGradient>
        <rect id="path-14" x="0" y="0" width="5.93769431" height="5.934258" rx="0.3"></rect>
        <filter x="-4.2%" y="-4.2%" width="108.4%" height="108.4%" filterUnits="objectBoundingBox" id="filter-15">
            <feGaussianBlur stdDeviation="0.05" in="SourceAlpha" result="shadowBlurInner1"></feGaussianBlur>
            <feOffset dx="0" dy="0.3" in="shadowBlurInner1" result="shadowOffsetInner1"></feOffset>
            <feComposite in="shadowOffsetInner1" in2="SourceAlpha" operator="arithmetic" k2="-1" k3="1" result="shadowInnerInner1"></feComposite>
            <feColorMatrix values="0 0 0 0 0.0407234672   0 0 0 0 0.0404703021   0 0 0 0 0.103091033  0 0 0 0.5 0" type="matrix" in="shadowInnerInner1"></feColorMatrix>
        </filter>
        <rect id="path-16" x="0" y="0" width="5.93769431" height="5.934258" rx="0.3"></rect>
        <filter x="-4.2%" y="-4.2%" width="108.4%" height="108.4%" filterUnits="objectBoundingBox" id="filter-17">
            <feGaussianBlur stdDeviation="0.05" in="SourceAlpha" result="shadowBlurInner1"></feGaussianBlur>
            <feOffset dx="0" dy="0.3" in="shadowBlurInner1" result="shadowOffsetInner1"></feOffset>
            <feComposite in="shadowOffsetInner1" in2="SourceAlpha" operator="arithmetic" k2="-1" k3="1" result="shadowInnerInner1"></feComposite>
            <feColorMatrix values="0 0 0 0 0.0407234672   0 0 0 0 0.0404703021   0 0 0 0 0.103091033  0 0 0 0.5 0" type="matrix" in="shadowInnerInner1"></feColorMatrix>
        </filter>
        <rect id="path-18" x="0" y="0" width="5.93769431" height="5.934258" rx="0.3"></rect>
        <filter x="-4.2%" y="-4.2%" width="108.4%" height="108.4%" filterUnits="objectBoundingBox" id="filter-19">
            <feGaussianBlur stdDeviation="0.05" in="SourceAlpha" result="shadowBlurInner1"></feGaussianBlur>
            <feOffset dx="0" dy="0.3" in="shadowBlurInner1" result="shadowOffsetInner1"></feOffset>
            <feComposite in="shadowOffsetInner1" in2="SourceAlpha" operator="arithmetic" k2="-1" k3="1" result="shadowInnerInner1"></feComposite>
            <feColorMatrix values="0 0 0 0 0.0407234672   0 0 0 0 0.0404703021   0 0 0 0 0.103091033  0 0 0 0.5 0" type="matrix" in="shadowInnerInner1"></feColorMatrix>
        </filter>
        <rect id="path-20" x="0" y="0" width="5.93769431" height="5.934258" rx="0.3"></rect>
        <filter x="-4.2%" y="-4.2%" width="108.4%" height="108.4%" filterUnits="objectBoundingBox" id="filter-21">
            <feGaussianBlur stdDeviation="0.05" in="SourceAlpha" result="shadowBlurInner1"></feGaussianBlur>
            <feOffset dx="0" dy="0.3" in="shadowBlurInner1" result="shadowOffsetInner1"></feOffset>
            <feComposite in="shadowOffsetInner1" in2="SourceAlpha" operator="arithmetic" k2="-1" k3="1" result="shadowInnerInner1"></feComposite>
            <feColorMatrix values="0 0 0 0 0.0407234672   0 0 0 0 0.0404703021   0 0 0 0 0.103091033  0 0 0 0.5 0" type="matrix" in="shadowInnerInner1"></feColorMatrix>
        </filter>
        <rect id="path-22" x="0" y="0" width="5.93769431" height="5.934258" rx="0.3"></rect>
        <filter x="-4.2%" y="-4.2%" width="108.4%" height="108.4%" filterUnits="objectBoundingBox" id="filter-23">
            <feGaussianBlur stdDeviation="0.05" in="SourceAlpha" result="shadowBlurInner1"></feGaussianBlur>
            <feOffset dx="0" dy="0.3" in="shadowBlurInner1" result="shadowOffsetInner1"></feOffset>
            <feComposite in="shadowOffsetInner1" in2="SourceAlpha" operator="arithmetic" k2="-1" k3="1" result="shadowInnerInner1"></feComposite>
            <feColorMatrix values="0 0 0 0 0.0407234672   0 0 0 0 0.0404703021   0 0 0 0 0.103091033  0 0 0 0.5 0" type="matrix" in="shadowInnerInner1"></feColorMatrix>
        </filter>
        <rect id="path-24" x="0" y="0" width="5.93769431" height="5.934258" rx="0.3"></rect>
        <filter x="-4.2%" y="-4.2%" width="108.4%" height="108.4%" filterUnits="objectBoundingBox" id="filter-25">
            <feGaussianBlur stdDeviation="0.05" in="SourceAlpha" result="shadowBlurInner1"></feGaussianBlur>
            <feOffset dx="0" dy="0.3" in="shadowBlurInner1" result="shadowOffsetInner1"></feOffset>
            <feComposite in="shadowOffsetInner1" in2="SourceAlpha" operator="arithmetic" k2="-1" k3="1" result="shadowInnerInner1"></feComposite>
            <feColorMatrix values="0 0 0 0 0.0407234672   0 0 0 0 0.0404703021   0 0 0 0 0.103091033  0 0 0 0.5 0" type="matrix" in="shadowInnerInner1"></feColorMatrix>
        </filter>
        <rect id="path-26" x="0" y="0" width="5.93769431" height="5.934258" rx="0.3"></rect>
        <filter x="-4.2%" y="-4.2%" width="108.4%" height="108.4%" filterUnits="objectBoundingBox" id="filter-27">
            <feGaussianBlur stdDeviation="0.05" in="SourceAlpha" result="shadowBlurInner1"></feGaussianBlur>
            <feOffset dx="0" dy="0.3" in="shadowBlurInner1" result="shadowOffsetInner1"></feOffset>
            <feComposite in="shadowOffsetInner1" in2="SourceAlpha" operator="arithmetic" k2="-1" k3="1" result="shadowInnerInner1"></feComposite>
            <feColorMatrix values="0 0 0 0 0.0407234672   0 0 0 0 0.0404703021   0 0 0 0 0.103091033  0 0 0 0.5 0" type="matrix" in="shadowInnerInner1"></feColorMatrix>
        </filter>
        <rect id="path-28" x="0" y="0" width="5.93769431" height="5.934258" rx="0.3"></rect>
        <filter x="-4.2%" y="-4.2%" width="108.4%" height="108.4%" filterUnits="objectBoundingBox" id="filter-29">
            <feGaussianBlur stdDeviation="0.05" in="SourceAlpha" result="shadowBlurInner1"></feGaussianBlur>
            <feOffset dx="0" dy="0.3" in="shadowBlurInner1" result="shadowOffsetInner1"></feOffset>
            <feComposite in="shadowOffsetInner1" in2="SourceAlpha" operator="arithmetic" k2="-1" k3="1" result="shadowInnerInner1"></feComposite>
            <feColorMatrix values="0 0 0 0 0.0407234672   0 0 0 0 0.0404703021   0 0 0 0 0.103091033  0 0 0 0.5 0" type="matrix" in="shadowInnerInner1"></feColorMatrix>
        </filter>
        <rect id="path-30" x="0" y="0" width="5.93769431" height="5.934258" rx="0.3"></rect>
        <filter x="-4.2%" y="-4.2%" width="108.4%" height="108.4%" filterUnits="objectBoundingBox" id="filter-31">
            <feGaussianBlur stdDeviation="0.05" in="SourceAlpha" result="shadowBlurInner1"></feGaussianBlur>
            <feOffset dx="0" dy="0.3" in="shadowBlurInner1" result="shadowOffsetInner1"></feOffset>
            <feComposite in="shadowOffsetInner1" in2="SourceAlpha" operator="arithmetic" k2="-1" k3="1" result="shadowInnerInner1"></feComposite>
            <feColorMatrix values="0 0 0 0 0.0407234672   0 0 0 0 0.0404703021   0 0 0 0 0.103091033  0 0 0 0.5 0" type="matrix" in="shadowInnerInner1"></feColorMatrix>
        </filter>
        <linearGradient x1="50%" y1="0%" x2="50%" y2="100%" id="linearGradient-32">
            <stop stop-color="#BABAC5" offset="0%"></stop>
            <stop stop-color="#454550" offset="100%"></stop>
        </linearGradient>
        <linearGradient x1="50%" y1="0%" x2="50%" y2="98.8991477%" id="linearGradient-33">
            <stop stop-color="#F61614" offset="0%"></stop>
            <stop stop-color="#FFFCE3" stop-opacity="0" offset="100%"></stop>
        </linearGradient>
        <radialGradient cx="32.667211%" cy="20.2934801%" fx="32.667211%" fy="20.2934801%" r="68.7480302%" id="radialGradient-34">
            <stop stop-color="#919191" offset="0%"></stop>
            <stop stop-color="#303030" offset="100%"></stop>
        </radialGradient>
        <linearGradient x1="50%" y1="0%" x2="50%" y2="98.8991477%" id="linearGradient-35">
            <stop stop-color="#FAE068" offset="0%"></stop>
            <stop stop-color="#FFFCE3" offset="100%"></stop>
        </linearGradient>
        <circle id="path-36" cx="3.55799068" cy="3.55799068" r="2.55799068"></circle>
        <filter x="-2.0%" y="-2.0%" width="105.9%" height="107.8%" filterUnits="objectBoundingBox" id="filter-37">
            <feOffset dx="0.1" dy="0.2" in="SourceAlpha" result="shadowOffsetOuter1"></feOffset>
            <feComposite in="shadowOffsetOuter1" in2="SourceAlpha" operator="out" result="shadowOffsetOuter1"></feComposite>
            <feColorMatrix values="0 0 0 0 0   0 0 0 0 0   0 0 0 0 0  0 0 0 0.3 0" type="matrix" in="shadowOffsetOuter1"></feColorMatrix>
        </filter>
        <linearGradient x1="50%" y1="0%" x2="50%" y2="98.8991477%" id="linearGradient-38">
            <stop stop-color="#FFFCE3" stop-opacity="0.7" offset="0%"></stop>
            <stop stop-color="#EDDD6D" stop-opacity="0" offset="65.5703671%"></stop>
        </linearGradient>
        <radialGradient cx="50%" cy="85.222089%" fx="50%" fy="85.222089%" r="85.222089%" id="radialGradient-39">
            <stop stop-color="#FF6E6E" offset="0%"></stop>
            <stop stop-color="#CC0000" offset="100%"></stop>
        </radialGradient>
    </defs>
    <g id="icon/设备图/时序电源/on" stroke="none" stroke-width="1" fill="none" fill-rule="evenodd">
        <g id="编组-2">
            <use id="椭圆形" stroke="" mask="url(#mask-2)" stroke-width="6" opacity="0" stroke-dasharray="2,2" xlink:href="#path-1"></use>
            <g id="编组" transform="translate(6.000000, 20.500000)">
                <rect id="矩形" fill="url(#radialGradient-3)" x="2.22410932" y="0.823609739" width="43.5517814" height="4.37974843" rx="0.6"></rect>
                <g id="矩形">
                    <use fill="url(#radialGradient-4)" fill-rule="evenodd" xlink:href="#path-6"></use>
                    <use fill="black" fill-opacity="1" filter="url(#filter-7)" xlink:href="#path-6"></use>
                    <rect stroke="url(#linearGradient-5)" stroke-width="0.3" stroke-linejoin="square" x="0.537704315" y="2.29365059" width="46.9245914" height="14.9670791" rx="1"></rect>
                </g>
                <path d="M12.7062807,17.4107297 L12.7062807,17.921368 C12.7062807,18.2034919 12.5019372,18.4320063 12.2506028,18.4320063 L9.72920332,18.4320063 C9.60797693,18.4320063 9.49174674,18.3781322 9.40622855,18.2822994 C9.32071036,18.1864667 9.27295399,18.0565769 9.2735204,17.921368 L9.2735204,17.4110292 L12.7062807,17.4107297 Z M38.7264846,17.4107297 L38.7264846,17.921368 C38.7264846,18.2034919 38.5221411,18.4320063 38.2708067,18.4320063 L35.7494072,18.4320063 C35.6281808,18.4320063 35.5119506,18.3781322 35.4264324,18.2822994 C35.3409142,18.1864667 35.2931579,18.0565769 35.2937243,17.921368 L35.2937243,17.4110292 L38.7264846,17.4107297 Z" id="形状结合" fill="#333333" fill-rule="nonzero"></path>
                <rect id="矩形" fill="url(#linearGradient-8)" fill-rule="nonzero" x="1.30370573" y="2.77054139" width="45.3925885" height="14.0132975" rx="0.3"></rect>
                <g id="编组-6" transform="translate(3.139115, 3.277190)">
                    <g id="编组-4">
                        <g id="矩形">
                            <use fill="url(#radialGradient-9)" fill-rule="evenodd" xlink:href="#path-11"></use>
                            <use fill="black" fill-opacity="1" filter="url(#filter-12)" xlink:href="#path-11"></use>
                            <use stroke="url(#linearGradient-10)" stroke-width="0.1" xlink:href="#path-11"></use>
                        </g>
                        <path d="M1.98763658,4.18124959 C2.07159133,4.16277646 2.10738627,4.18582905 2.13781736,4.21478686 L2.13781736,4.21478686 L2.4849747,4.54541331 C2.5355188,4.59308433 2.56409405,4.6595384 2.56392166,4.7286026 C2.56489836,4.79782269 2.53820906,4.86457008 2.48977615,4.91403347 C2.44134325,4.96349687 2.37517247,4.9915853 2.30636029,4.99205964 C2.23769946,4.9936714 2.17136545,4.9671378 2.1231772,4.91902797 L2.1231772,4.91902797 L1.77591968,4.58830651 C1.70137392,4.454353 1.70066887,4.45086357 1.70004062,4.44732645 C1.70186479,4.444486 1.70371506,4.44162337 1.70559178,4.43873833 C1.84409731,4.22581751 1.92945346,4.19405201 1.98763658,4.18124959 Z M4.03465027,4.16908595 C4.10376104,4.17046817 4.13691218,4.19324734 4.16392419,4.22189887 C4.21415705,4.27254197 4.23927348,4.33870074 4.23927348,4.40485951 C4.23927348,4.47101828 4.21415705,4.53717705 4.16341616,4.58831796 L4.16341616,4.58831796 L3.81609018,4.91910427 C3.76671517,4.96571217 3.70114539,4.99128438 3.63383411,4.99041162 C3.56199987,4.9911583 3.49290834,4.96286368 3.44189464,4.91160047 C3.39433864,4.86193565 3.36856184,4.79535039 3.37028035,4.72661019 C3.91480821,4.17410993 3.98526917,4.16809833 4.03465027,4.16908595 Z M3.48125092,0.961971598 L4.12129208,0.963990348 C4.3093525,1.04452833 4.48004513,1.14633218 4.5791553,1.30616004 C4.48105842,2.08691999 4.30068445,2.16989293 4.11430037,2.17921492 L4.11430037,2.17921492 L3.48125092,2.25185994 L3.48125092,0.961971598 Z M2.45644339,0.938558951 L2.45644339,2.23731594 L1.8175356,2.23568638 C1.62727927,2.16498445 1.45569906,2.05952716 1.35830602,1.89598746 C1.45602567,1.1146427 1.63685975,1.0317608 1.82292668,1.02337403 L1.82292668,1.02337403 L2.45644339,0.938558951 Z" id="形状" stroke="url(#linearGradient-13)" stroke-width="0.05" fill="#10111F" fill-rule="nonzero"></path>
                    </g>
                    <g id="编组-4" transform="translate(0.000000, 6.903715)">
                        <g id="矩形">
                            <use fill="url(#radialGradient-9)" fill-rule="evenodd" xlink:href="#path-14"></use>
                            <use fill="black" fill-opacity="1" filter="url(#filter-15)" xlink:href="#path-14"></use>
                            <use stroke="url(#linearGradient-10)" stroke-width="0.1" xlink:href="#path-14"></use>
                        </g>
                        <path d="M1.98763658,4.18124959 C2.07159133,4.16277646 2.10738627,4.18582905 2.13781736,4.21478686 L2.13781736,4.21478686 L2.4849747,4.54541331 C2.5355188,4.59308433 2.56409405,4.6595384 2.56392166,4.7286026 C2.56489836,4.79782269 2.53820906,4.86457008 2.48977615,4.91403347 C2.44134325,4.96349687 2.37517247,4.9915853 2.30636029,4.99205964 C2.23769946,4.9936714 2.17136545,4.9671378 2.1231772,4.91902797 L2.1231772,4.91902797 L1.77591968,4.58830651 C1.70137392,4.454353 1.70066887,4.45086357 1.70004062,4.44732645 C1.70186479,4.444486 1.70371506,4.44162337 1.70559178,4.43873833 C1.84409731,4.22581751 1.92945346,4.19405201 1.98763658,4.18124959 Z M4.03465027,4.16908595 C4.10376104,4.17046817 4.13691218,4.19324734 4.16392419,4.22189887 C4.21415705,4.27254197 4.23927348,4.33870074 4.23927348,4.40485951 C4.23927348,4.47101828 4.21415705,4.53717705 4.16341616,4.58831796 L4.16341616,4.58831796 L3.81609018,4.91910427 C3.76671517,4.96571217 3.70114539,4.99128438 3.63383411,4.99041162 C3.56199987,4.9911583 3.49290834,4.96286368 3.44189464,4.91160047 C3.39433864,4.86193565 3.36856184,4.79535039 3.37028035,4.72661019 C3.91480821,4.17410993 3.98526917,4.16809833 4.03465027,4.16908595 Z M3.48125092,0.961971598 L4.12129208,0.963990348 C4.3093525,1.04452833 4.48004513,1.14633218 4.5791553,1.30616004 C4.48105842,2.08691999 4.30068445,2.16989293 4.11430037,2.17921492 L4.11430037,2.17921492 L3.48125092,2.25185994 L3.48125092,0.961971598 Z M2.45644339,0.938558951 L2.45644339,2.23731594 L1.8175356,2.23568638 C1.62727927,2.16498445 1.45569906,2.05952716 1.35830602,1.89598746 C1.45602567,1.1146427 1.63685975,1.0317608 1.82292668,1.02337403 L1.82292668,1.02337403 L2.45644339,0.938558951 Z" id="形状" stroke="url(#linearGradient-13)" stroke-width="0.05" fill="#10111F" fill-rule="nonzero"></path>
                    </g>
                    <g id="编组-4" transform="translate(6.791390, 0.000000)">
                        <g id="矩形">
                            <use fill="url(#radialGradient-9)" fill-rule="evenodd" xlink:href="#path-16"></use>
                            <use fill="black" fill-opacity="1" filter="url(#filter-17)" xlink:href="#path-16"></use>
                            <use stroke="url(#linearGradient-10)" stroke-width="0.1" xlink:href="#path-16"></use>
                        </g>
                        <path d="M1.98763658,4.18124959 C2.07159133,4.16277646 2.10738627,4.18582905 2.13781736,4.21478686 L2.13781736,4.21478686 L2.4849747,4.54541331 C2.5355188,4.59308433 2.56409405,4.6595384 2.56392166,4.7286026 C2.56489836,4.79782269 2.53820906,4.86457008 2.48977615,4.91403347 C2.44134325,4.96349687 2.37517247,4.9915853 2.30636029,4.99205964 C2.23769946,4.9936714 2.17136545,4.9671378 2.1231772,4.91902797 L2.1231772,4.91902797 L1.77591968,4.58830651 C1.70137392,4.454353 1.70066887,4.45086357 1.70004062,4.44732645 C1.70186479,4.444486 1.70371506,4.44162337 1.70559178,4.43873833 C1.84409731,4.22581751 1.92945346,4.19405201 1.98763658,4.18124959 Z M4.03465027,4.16908595 C4.10376104,4.17046817 4.13691218,4.19324734 4.16392419,4.22189887 C4.21415705,4.27254197 4.23927348,4.33870074 4.23927348,4.40485951 C4.23927348,4.47101828 4.21415705,4.53717705 4.16341616,4.58831796 L4.16341616,4.58831796 L3.81609018,4.91910427 C3.76671517,4.96571217 3.70114539,4.99128438 3.63383411,4.99041162 C3.56199987,4.9911583 3.49290834,4.96286368 3.44189464,4.91160047 C3.39433864,4.86193565 3.36856184,4.79535039 3.37028035,4.72661019 C3.91480821,4.17410993 3.98526917,4.16809833 4.03465027,4.16908595 Z M3.48125092,0.961971598 L4.12129208,0.963990348 C4.3093525,1.04452833 4.48004513,1.14633218 4.5791553,1.30616004 C4.48105842,2.08691999 4.30068445,2.16989293 4.11430037,2.17921492 L4.11430037,2.17921492 L3.48125092,2.25185994 L3.48125092,0.961971598 Z M2.45644339,0.938558951 L2.45644339,2.23731594 L1.8175356,2.23568638 C1.62727927,2.16498445 1.45569906,2.05952716 1.35830602,1.89598746 C1.45602567,1.1146427 1.63685975,1.0317608 1.82292668,1.02337403 L1.82292668,1.02337403 L2.45644339,0.938558951 Z" id="形状" stroke="url(#linearGradient-13)" stroke-width="0.05" fill="#10111F" fill-rule="nonzero"></path>
                    </g>
                    <g id="编组-4" transform="translate(6.791390, 6.903715)">
                        <g id="矩形">
                            <use fill="url(#radialGradient-9)" fill-rule="evenodd" xlink:href="#path-18"></use>
                            <use fill="black" fill-opacity="1" filter="url(#filter-19)" xlink:href="#path-18"></use>
                            <use stroke="url(#linearGradient-10)" stroke-width="0.1" xlink:href="#path-18"></use>
                        </g>
                        <path d="M1.98763658,4.18124959 C2.07159133,4.16277646 2.10738627,4.18582905 2.13781736,4.21478686 L2.13781736,4.21478686 L2.4849747,4.54541331 C2.5355188,4.59308433 2.56409405,4.6595384 2.56392166,4.7286026 C2.56489836,4.79782269 2.53820906,4.86457008 2.48977615,4.91403347 C2.44134325,4.96349687 2.37517247,4.9915853 2.30636029,4.99205964 C2.23769946,4.9936714 2.17136545,4.9671378 2.1231772,4.91902797 L2.1231772,4.91902797 L1.77591968,4.58830651 C1.70137392,4.454353 1.70066887,4.45086357 1.70004062,4.44732645 C1.70186479,4.444486 1.70371506,4.44162337 1.70559178,4.43873833 C1.84409731,4.22581751 1.92945346,4.19405201 1.98763658,4.18124959 Z M4.03465027,4.16908595 C4.10376104,4.17046817 4.13691218,4.19324734 4.16392419,4.22189887 C4.21415705,4.27254197 4.23927348,4.33870074 4.23927348,4.40485951 C4.23927348,4.47101828 4.21415705,4.53717705 4.16341616,4.58831796 L4.16341616,4.58831796 L3.81609018,4.91910427 C3.76671517,4.96571217 3.70114539,4.99128438 3.63383411,4.99041162 C3.56199987,4.9911583 3.49290834,4.96286368 3.44189464,4.91160047 C3.39433864,4.86193565 3.36856184,4.79535039 3.37028035,4.72661019 C3.91480821,4.17410993 3.98526917,4.16809833 4.03465027,4.16908595 Z M3.48125092,0.961971598 L4.12129208,0.963990348 C4.3093525,1.04452833 4.48004513,1.14633218 4.5791553,1.30616004 C4.48105842,2.08691999 4.30068445,2.16989293 4.11430037,2.17921492 L4.11430037,2.17921492 L3.48125092,2.25185994 L3.48125092,0.961971598 Z M2.45644339,0.938558951 L2.45644339,2.23731594 L1.8175356,2.23568638 C1.62727927,2.16498445 1.45569906,2.05952716 1.35830602,1.89598746 C1.45602567,1.1146427 1.63685975,1.0317608 1.82292668,1.02337403 L1.82292668,1.02337403 L2.45644339,0.938558951 Z" id="形状" stroke="url(#linearGradient-13)" stroke-width="0.05" fill="#10111F" fill-rule="nonzero"></path>
                    </g>
                    <g id="编组-4" transform="translate(13.791390, 0.000000)">
                        <g id="矩形">
                            <use fill="url(#radialGradient-9)" fill-rule="evenodd" xlink:href="#path-20"></use>
                            <use fill="black" fill-opacity="1" filter="url(#filter-21)" xlink:href="#path-20"></use>
                            <use stroke="url(#linearGradient-10)" stroke-width="0.1" xlink:href="#path-20"></use>
                        </g>
                        <path d="M1.98763658,4.18124959 C2.07159133,4.16277646 2.10738627,4.18582905 2.13781736,4.21478686 L2.13781736,4.21478686 L2.4849747,4.54541331 C2.5355188,4.59308433 2.56409405,4.6595384 2.56392166,4.7286026 C2.56489836,4.79782269 2.53820906,4.86457008 2.48977615,4.91403347 C2.44134325,4.96349687 2.37517247,4.9915853 2.30636029,4.99205964 C2.23769946,4.9936714 2.17136545,4.9671378 2.1231772,4.91902797 L2.1231772,4.91902797 L1.77591968,4.58830651 C1.70137392,4.454353 1.70066887,4.45086357 1.70004062,4.44732645 C1.70186479,4.444486 1.70371506,4.44162337 1.70559178,4.43873833 C1.84409731,4.22581751 1.92945346,4.19405201 1.98763658,4.18124959 Z M4.03465027,4.16908595 C4.10376104,4.17046817 4.13691218,4.19324734 4.16392419,4.22189887 C4.21415705,4.27254197 4.23927348,4.33870074 4.23927348,4.40485951 C4.23927348,4.47101828 4.21415705,4.53717705 4.16341616,4.58831796 L4.16341616,4.58831796 L3.81609018,4.91910427 C3.76671517,4.96571217 3.70114539,4.99128438 3.63383411,4.99041162 C3.56199987,4.9911583 3.49290834,4.96286368 3.44189464,4.91160047 C3.39433864,4.86193565 3.36856184,4.79535039 3.37028035,4.72661019 C3.91480821,4.17410993 3.98526917,4.16809833 4.03465027,4.16908595 Z M3.48125092,0.961971598 L4.12129208,0.963990348 C4.3093525,1.04452833 4.48004513,1.14633218 4.5791553,1.30616004 C4.48105842,2.08691999 4.30068445,2.16989293 4.11430037,2.17921492 L4.11430037,2.17921492 L3.48125092,2.25185994 L3.48125092,0.961971598 Z M2.45644339,0.938558951 L2.45644339,2.23731594 L1.8175356,2.23568638 C1.62727927,2.16498445 1.45569906,2.05952716 1.35830602,1.89598746 C1.45602567,1.1146427 1.63685975,1.0317608 1.82292668,1.02337403 L1.82292668,1.02337403 L2.45644339,0.938558951 Z" id="形状" stroke="url(#linearGradient-13)" stroke-width="0.05" fill="#10111F" fill-rule="nonzero"></path>
                    </g>
                    <g id="编组-4" transform="translate(13.791390, 6.903715)">
                        <g id="矩形">
                            <use fill="url(#radialGradient-9)" fill-rule="evenodd" xlink:href="#path-22"></use>
                            <use fill="black" fill-opacity="1" filter="url(#filter-23)" xlink:href="#path-22"></use>
                            <use stroke="url(#linearGradient-10)" stroke-width="0.1" xlink:href="#path-22"></use>
                        </g>
                        <path d="M1.98763658,4.18124959 C2.07159133,4.16277646 2.10738627,4.18582905 2.13781736,4.21478686 L2.13781736,4.21478686 L2.4849747,4.54541331 C2.5355188,4.59308433 2.56409405,4.6595384 2.56392166,4.7286026 C2.56489836,4.79782269 2.53820906,4.86457008 2.48977615,4.91403347 C2.44134325,4.96349687 2.37517247,4.9915853 2.30636029,4.99205964 C2.23769946,4.9936714 2.17136545,4.9671378 2.1231772,4.91902797 L2.1231772,4.91902797 L1.77591968,4.58830651 C1.70137392,4.454353 1.70066887,4.45086357 1.70004062,4.44732645 C1.70186479,4.444486 1.70371506,4.44162337 1.70559178,4.43873833 C1.84409731,4.22581751 1.92945346,4.19405201 1.98763658,4.18124959 Z M4.03465027,4.16908595 C4.10376104,4.17046817 4.13691218,4.19324734 4.16392419,4.22189887 C4.21415705,4.27254197 4.23927348,4.33870074 4.23927348,4.40485951 C4.23927348,4.47101828 4.21415705,4.53717705 4.16341616,4.58831796 L4.16341616,4.58831796 L3.81609018,4.91910427 C3.76671517,4.96571217 3.70114539,4.99128438 3.63383411,4.99041162 C3.56199987,4.9911583 3.49290834,4.96286368 3.44189464,4.91160047 C3.39433864,4.86193565 3.36856184,4.79535039 3.37028035,4.72661019 C3.91480821,4.17410993 3.98526917,4.16809833 4.03465027,4.16908595 Z M3.48125092,0.961971598 L4.12129208,0.963990348 C4.3093525,1.04452833 4.48004513,1.14633218 4.5791553,1.30616004 C4.48105842,2.08691999 4.30068445,2.16989293 4.11430037,2.17921492 L4.11430037,2.17921492 L3.48125092,2.25185994 L3.48125092,0.961971598 Z M2.45644339,0.938558951 L2.45644339,2.23731594 L1.8175356,2.23568638 C1.62727927,2.16498445 1.45569906,2.05952716 1.35830602,1.89598746 C1.45602567,1.1146427 1.63685975,1.0317608 1.82292668,1.02337403 L1.82292668,1.02337403 L2.45644339,0.938558951 Z" id="形状" stroke="url(#linearGradient-13)" stroke-width="0.05" fill="#10111F" fill-rule="nonzero"></path>
                    </g>
                    <g id="编组-4" transform="translate(20.791390, 0.000000)">
                        <g id="矩形">
                            <use fill="url(#radialGradient-9)" fill-rule="evenodd" xlink:href="#path-24"></use>
                            <use fill="black" fill-opacity="1" filter="url(#filter-25)" xlink:href="#path-24"></use>
                            <use stroke="url(#linearGradient-10)" stroke-width="0.1" xlink:href="#path-24"></use>
                        </g>
                        <path d="M1.98763658,4.18124959 C2.07159133,4.16277646 2.10738627,4.18582905 2.13781736,4.21478686 L2.13781736,4.21478686 L2.4849747,4.54541331 C2.5355188,4.59308433 2.56409405,4.6595384 2.56392166,4.7286026 C2.56489836,4.79782269 2.53820906,4.86457008 2.48977615,4.91403347 C2.44134325,4.96349687 2.37517247,4.9915853 2.30636029,4.99205964 C2.23769946,4.9936714 2.17136545,4.9671378 2.1231772,4.91902797 L2.1231772,4.91902797 L1.77591968,4.58830651 C1.70137392,4.454353 1.70066887,4.45086357 1.70004062,4.44732645 C1.70186479,4.444486 1.70371506,4.44162337 1.70559178,4.43873833 C1.84409731,4.22581751 1.92945346,4.19405201 1.98763658,4.18124959 Z M4.03465027,4.16908595 C4.10376104,4.17046817 4.13691218,4.19324734 4.16392419,4.22189887 C4.21415705,4.27254197 4.23927348,4.33870074 4.23927348,4.40485951 C4.23927348,4.47101828 4.21415705,4.53717705 4.16341616,4.58831796 L4.16341616,4.58831796 L3.81609018,4.91910427 C3.76671517,4.96571217 3.70114539,4.99128438 3.63383411,4.99041162 C3.56199987,4.9911583 3.49290834,4.96286368 3.44189464,4.91160047 C3.39433864,4.86193565 3.36856184,4.79535039 3.37028035,4.72661019 C3.91480821,4.17410993 3.98526917,4.16809833 4.03465027,4.16908595 Z M3.48125092,0.961971598 L4.12129208,0.963990348 C4.3093525,1.04452833 4.48004513,1.14633218 4.5791553,1.30616004 C4.48105842,2.08691999 4.30068445,2.16989293 4.11430037,2.17921492 L4.11430037,2.17921492 L3.48125092,2.25185994 L3.48125092,0.961971598 Z M2.45644339,0.938558951 L2.45644339,2.23731594 L1.8175356,2.23568638 C1.62727927,2.16498445 1.45569906,2.05952716 1.35830602,1.89598746 C1.45602567,1.1146427 1.63685975,1.0317608 1.82292668,1.02337403 L1.82292668,1.02337403 L2.45644339,0.938558951 Z" id="形状" stroke="url(#linearGradient-13)" stroke-width="0.05" fill="#10111F" fill-rule="nonzero"></path>
                    </g>
                    <g id="编组-4" transform="translate(20.791390, 6.903715)">
                        <g id="矩形">
                            <use fill="url(#radialGradient-9)" fill-rule="evenodd" xlink:href="#path-26"></use>
                            <use fill="black" fill-opacity="1" filter="url(#filter-27)" xlink:href="#path-26"></use>
                            <use stroke="url(#linearGradient-10)" stroke-width="0.1" xlink:href="#path-26"></use>
                        </g>
                        <path d="M1.98763658,4.18124959 C2.07159133,4.16277646 2.10738627,4.18582905 2.13781736,4.21478686 L2.13781736,4.21478686 L2.4849747,4.54541331 C2.5355188,4.59308433 2.56409405,4.6595384 2.56392166,4.7286026 C2.56489836,4.79782269 2.53820906,4.86457008 2.48977615,4.91403347 C2.44134325,4.96349687 2.37517247,4.9915853 2.30636029,4.99205964 C2.23769946,4.9936714 2.17136545,4.9671378 2.1231772,4.91902797 L2.1231772,4.91902797 L1.77591968,4.58830651 C1.70137392,4.454353 1.70066887,4.45086357 1.70004062,4.44732645 C1.70186479,4.444486 1.70371506,4.44162337 1.70559178,4.43873833 C1.84409731,4.22581751 1.92945346,4.19405201 1.98763658,4.18124959 Z M4.03465027,4.16908595 C4.10376104,4.17046817 4.13691218,4.19324734 4.16392419,4.22189887 C4.21415705,4.27254197 4.23927348,4.33870074 4.23927348,4.40485951 C4.23927348,4.47101828 4.21415705,4.53717705 4.16341616,4.58831796 L4.16341616,4.58831796 L3.81609018,4.91910427 C3.76671517,4.96571217 3.70114539,4.99128438 3.63383411,4.99041162 C3.56199987,4.9911583 3.49290834,4.96286368 3.44189464,4.91160047 C3.39433864,4.86193565 3.36856184,4.79535039 3.37028035,4.72661019 C3.91480821,4.17410993 3.98526917,4.16809833 4.03465027,4.16908595 Z M3.48125092,0.961971598 L4.12129208,0.963990348 C4.3093525,1.04452833 4.48004513,1.14633218 4.5791553,1.30616004 C4.48105842,2.08691999 4.30068445,2.16989293 4.11430037,2.17921492 L4.11430037,2.17921492 L3.48125092,2.25185994 L3.48125092,0.961971598 Z M2.45644339,0.938558951 L2.45644339,2.23731594 L1.8175356,2.23568638 C1.62727927,2.16498445 1.45569906,2.05952716 1.35830602,1.89598746 C1.45602567,1.1146427 1.63685975,1.0317608 1.82292668,1.02337403 L1.82292668,1.02337403 L2.45644339,0.938558951 Z" id="形状" stroke="url(#linearGradient-13)" stroke-width="0.05" fill="#10111F" fill-rule="nonzero"></path>
                    </g>
                    <g id="编组-4" transform="translate(27.791390, 0.000000)">
                        <g id="矩形">
                            <use fill="url(#radialGradient-9)" fill-rule="evenodd" xlink:href="#path-28"></use>
                            <use fill="black" fill-opacity="1" filter="url(#filter-29)" xlink:href="#path-28"></use>
                            <use stroke="url(#linearGradient-10)" stroke-width="0.1" xlink:href="#path-28"></use>
                        </g>
                        <path d="M1.98763658,4.18124959 C2.07159133,4.16277646 2.10738627,4.18582905 2.13781736,4.21478686 L2.13781736,4.21478686 L2.4849747,4.54541331 C2.5355188,4.59308433 2.56409405,4.6595384 2.56392166,4.7286026 C2.56489836,4.79782269 2.53820906,4.86457008 2.48977615,4.91403347 C2.44134325,4.96349687 2.37517247,4.9915853 2.30636029,4.99205964 C2.23769946,4.9936714 2.17136545,4.9671378 2.1231772,4.91902797 L2.1231772,4.91902797 L1.77591968,4.58830651 C1.70137392,4.454353 1.70066887,4.45086357 1.70004062,4.44732645 C1.70186479,4.444486 1.70371506,4.44162337 1.70559178,4.43873833 C1.84409731,4.22581751 1.92945346,4.19405201 1.98763658,4.18124959 Z M4.03465027,4.16908595 C4.10376104,4.17046817 4.13691218,4.19324734 4.16392419,4.22189887 C4.21415705,4.27254197 4.23927348,4.33870074 4.23927348,4.40485951 C4.23927348,4.47101828 4.21415705,4.53717705 4.16341616,4.58831796 L4.16341616,4.58831796 L3.81609018,4.91910427 C3.76671517,4.96571217 3.70114539,4.99128438 3.63383411,4.99041162 C3.56199987,4.9911583 3.49290834,4.96286368 3.44189464,4.91160047 C3.39433864,4.86193565 3.36856184,4.79535039 3.37028035,4.72661019 C3.91480821,4.17410993 3.98526917,4.16809833 4.03465027,4.16908595 Z M3.48125092,0.961971598 L4.12129208,0.963990348 C4.3093525,1.04452833 4.48004513,1.14633218 4.5791553,1.30616004 C4.48105842,2.08691999 4.30068445,2.16989293 4.11430037,2.17921492 L4.11430037,2.17921492 L3.48125092,2.25185994 L3.48125092,0.961971598 Z M2.45644339,0.938558951 L2.45644339,2.23731594 L1.8175356,2.23568638 C1.62727927,2.16498445 1.45569906,2.05952716 1.35830602,1.89598746 C1.45602567,1.1146427 1.63685975,1.0317608 1.82292668,1.02337403 L1.82292668,1.02337403 L2.45644339,0.938558951 Z" id="形状" stroke="url(#linearGradient-13)" stroke-width="0.05" fill="#10111F" fill-rule="nonzero"></path>
                    </g>
                    <g id="编组-4" transform="translate(27.791390, 6.903715)">
                        <g id="矩形">
                            <use fill="url(#radialGradient-9)" fill-rule="evenodd" xlink:href="#path-30"></use>
                            <use fill="black" fill-opacity="1" filter="url(#filter-31)" xlink:href="#path-30"></use>
                            <use stroke="url(#linearGradient-10)" stroke-width="0.1" xlink:href="#path-30"></use>
                        </g>
                        <path d="M1.98763658,4.18124959 C2.07159133,4.16277646 2.10738627,4.18582905 2.13781736,4.21478686 L2.13781736,4.21478686 L2.4849747,4.54541331 C2.5355188,4.59308433 2.56409405,4.6595384 2.56392166,4.7286026 C2.56489836,4.79782269 2.53820906,4.86457008 2.48977615,4.91403347 C2.44134325,4.96349687 2.37517247,4.9915853 2.30636029,4.99205964 C2.23769946,4.9936714 2.17136545,4.9671378 2.1231772,4.91902797 L2.1231772,4.91902797 L1.77591968,4.58830651 C1.70137392,4.454353 1.70066887,4.45086357 1.70004062,4.44732645 C1.70186479,4.444486 1.70371506,4.44162337 1.70559178,4.43873833 C1.84409731,4.22581751 1.92945346,4.19405201 1.98763658,4.18124959 Z M4.03465027,4.16908595 C4.10376104,4.17046817 4.13691218,4.19324734 4.16392419,4.22189887 C4.21415705,4.27254197 4.23927348,4.33870074 4.23927348,4.40485951 C4.23927348,4.47101828 4.21415705,4.53717705 4.16341616,4.58831796 L4.16341616,4.58831796 L3.81609018,4.91910427 C3.76671517,4.96571217 3.70114539,4.99128438 3.63383411,4.99041162 C3.56199987,4.9911583 3.49290834,4.96286368 3.44189464,4.91160047 C3.39433864,4.86193565 3.36856184,4.79535039 3.37028035,4.72661019 C3.91480821,4.17410993 3.98526917,4.16809833 4.03465027,4.16908595 Z M3.48125092,0.961971598 L4.12129208,0.963990348 C4.3093525,1.04452833 4.48004513,1.14633218 4.5791553,1.30616004 C4.48105842,2.08691999 4.30068445,2.16989293 4.11430037,2.17921492 L4.11430037,2.17921492 L3.48125092,2.25185994 L3.48125092,0.961971598 Z M2.45644339,0.938558951 L2.45644339,2.23731594 L1.8175356,2.23568638 C1.62727927,2.16498445 1.45569906,2.05952716 1.35830602,1.89598746 C1.45602567,1.1146427 1.63685975,1.0317608 1.82292668,1.02337403 L1.82292668,1.02337403 L2.45644339,0.938558951 Z" id="形状" stroke="url(#linearGradient-13)" stroke-width="0.05" fill="#10111F" fill-rule="nonzero"></path>
                    </g>
                </g>
                <path d="M39.722177,1.36646045 C39.8274878,1.36646045 39.9321933,1.37228938 40.0338727,1.38394723 L46.6962943,2.14365059 L1.30370573,2.14365059 L7.96642987,1.38394723 C8.06810927,1.37228938 8.17251223,1.36646045 8.27782303,1.36646045 L39.722177,1.36646045 Z" id="Fill-1" fill="url(#linearGradient-32)" fill-rule="nonzero"></path>
                <g id="编组-3" transform="translate(38.940105, 6.450129)">
                    <circle id="椭圆形备份-5" stroke="url(#linearGradient-33)" stroke-width="0.06" cx="3.55799068" cy="3.55799068" r="2.76282812"></circle>
                    <g id="椭圆形备份-3">
                        <use fill="black" fill-opacity="1" filter="url(#filter-37)" xlink:href="#path-36"></use>
                        <circle stroke="url(#linearGradient-35)" stroke-width="0.1" stroke-linejoin="square" fill="url(#radialGradient-34)" fill-rule="evenodd" cx="3.55799068" cy="3.55799068" r="2.50799068"></circle>
                    </g>
                    <circle id="椭圆形备份-4" stroke="url(#linearGradient-38)" stroke-width="0.1" opacity="0.5" transform="translate(3.557991, 3.557991) rotate(-30.000000) translate(-3.557991, -3.557991) " cx="3.55799068" cy="3.55799068" r="2.18545293"></circle>
                    <circle id="椭圆形" fill="url(#radialGradient-39)" cx="3.55799068" cy="3.55799068" r="1"></circle>
                </g>
            </g>
        </g>
    </g>
</svg>