<?xml version="1.0" encoding="UTF-8"?>
<svg width="60px" height="60px" viewBox="0 0 60 60" version="1.1" xmlns="http://www.w3.org/2000/svg" xmlns:xlink="http://www.w3.org/1999/xlink">
    <title>icon/设备图/投影仪/off</title>
    <defs>
        <linearGradient x1="50%" y1="69.2984812%" x2="50%" y2="100%" id="linearGradient-1">
            <stop stop-color="#696969" offset="0%"></stop>
            <stop stop-color="#A2A2A2" offset="100%"></stop>
        </linearGradient>
        <linearGradient x1="50%" y1="0%" x2="50%" y2="100%" id="linearGradient-2">
            <stop stop-color="#FFFFFF" offset="0%"></stop>
            <stop stop-color="#B3B3B3" offset="100%"></stop>
        </linearGradient>
        <radialGradient cx="50%" cy="50%" fx="50%" fy="50%" r="50%" id="radialGradient-3">
            <stop stop-color="#666666" offset="0%"></stop>
            <stop stop-color="#262626" offset="100%"></stop>
        </radialGradient>
    </defs>
    <g id="icon/设备图/投影仪/off" stroke="none" stroke-width="1" fill="none" fill-rule="evenodd">
        <g id="编组-3">
            <path d="M30,60 C46.5685425,60 60,46.5685425 60,30 C60,13.4314575 46.5685425,0 30,0 C13.4314575,0 0,13.4314575 0,30 C0,46.5685425 13.4314575,60 30,60 Z" id="circle-off"></path>
            <g id="编组-2" transform="translate(10.000000, 19.500000)" fill-rule="nonzero">
                <path d="M7.86252339,20.7648218 C6.6156565,20.7633276 5.60524378,19.7529149 5.60374963,18.506048 L5.60374963,15.5693709 L10.1212972,15.5693709 L10.1212972,18.506048 C10.119803,19.7529149 9.10939028,20.7633277 7.86252339,20.7648218 L7.86252339,20.7648218 Z M32.134765,20.7648218 C30.8878981,20.7633277 29.8774853,19.7529149 29.8759912,18.506048 L29.8759912,15.5693709 L34.3962504,15.5693709 L34.3962504,18.506048 C34.3947541,19.7539728 33.3826907,20.7648218 32.134765,20.7648218 L32.134765,20.7648218 Z" id="形状" fill="url(#linearGradient-1)"></path>
                <g id="编组">
                    <path d="M38.6666667,0.30259697 C39.403,0.30259697 40,0.89959697 40,1.6359303 L40,17.5753242 C40,18.3116576 39.403,18.9086576 38.6666667,18.9086576 L1.33333333,18.9086576 C0.597,18.9086576 0,18.3116576 0,17.5753242 L0,1.6359303 C0,0.89959697 0.597,0.30259697 1.33333333,0.30259697 L38.6666667,0.30259697 Z" id="Fill-1" fill="url(#linearGradient-2)"></path>
                    <path d="M38.6964667,19.2062826 C38.8144667,19.2062826 38.9474667,19.2289492 39.0964667,19.2749492 L37.4241333,18.9553383 C37.1408,18.8563383 36.8428,18.8056716 36.5428,18.8056716 L3.19746667,18.8056716 C2.8448,18.8056716 2.49513333,18.8756716 2.16913333,19.012005 L0.8208,19.3092826 C0.9858,19.2406159 1.1498,19.2062826 1.3138,19.2062826 L38.6964667,19.2062826 Z" id="Fill-3备份" fill="#696969" transform="translate(19.958633, 19.057477) scale(1, -1) translate(-19.958633, -19.057477) "></path>
                </g>
                <g id="编组-4" transform="translate(3.333333, 3.241978)">
                    <path d="M5.65300095,11.1899141 C2.60062336,11.1899141 0.126182414,8.7154732 0.126182414,5.66309561 C0.126182414,2.61071802 2.60062336,0.136277073 5.65300095,0.136277073 C8.70537854,0.136277073 11.1798195,2.61071802 11.1798195,5.66309561 C11.1756491,8.71374409 8.70364943,11.1857437 5.65300095,11.1899141 L5.65300095,11.1899141 Z" id="路径" fill="#A7A7A7"></path>
                    <path d="M5.65300095,11.3110499 C2.53019807,11.3096561 -0.000464606438,8.77748693 -8.28966525e-15,5.65468377 C0.000464606438,2.53188062 2.53188064,0.00046459505 5.65468379,-1.26713455e-13 C8.77748695,-0.000464595051 11.3096561,2.53019809 11.3110499,5.65300097 C11.3082671,8.7767017 8.77670168,11.3082671 5.65300095,11.3110499 Z M5.65300095,0.257412836 C2.67236684,0.261593585 0.259213273,2.68077123 0.262460672,5.66140649 C0.265714632,8.64204176 2.68413916,11.0559501 5.6647753,11.0536312 C8.64541143,11.0513089 11.0600743,8.63363769 11.0586843,5.65300097 C11.0545065,2.67048188 8.63552296,0.254889176 5.65300095,0.254889176 L5.65300095,0.257412836 Z" id="形状" fill="#373840"></path>
                    <path d="M5.65300095,10.5034782 C3.69116602,10.5034782 1.92250599,9.32169738 1.17174427,7.50919824 C0.420982546,5.6966991 0.835968798,3.61042235 2.22319558,2.22319557 C3.61042237,0.835968789 5.69669912,0.420982547 7.50919826,1.17174428 C9.32169739,1.92250601 10.5034782,3.69116604 10.5034782,5.65300097 C10.5006962,8.3306924 8.33069238,10.5006962 5.65300095,10.5034782 L5.65300095,10.5034782 Z" id="路径" fill="#6D6D6D"></path>
                    <path d="M5.65300095,8.82019606 C3.90380741,8.82019606 2.48580588,7.4021945 2.48580588,5.65300096 C2.48580588,3.90380741 3.90380743,2.48580588 5.65300098,2.48580588 C7.40219452,2.48580588 8.82019606,3.90380743 8.82019606,5.65300097 C8.8188044,7.40161776 7.40161774,8.81880441 5.65300095,8.82019606 L5.65300095,8.82019606 Z" id="路径" fill="url(#radialGradient-3)"></path>
                    <path d="M2.71545905,3.40189497 C2.71545905,3.72918209 2.89006463,4.03160787 3.17350359,4.19525143 C3.45694255,4.358895 3.80615375,4.358895 4.08959271,4.19525143 C4.37303168,4.03160787 4.54763726,3.72918209 4.54763726,3.40189497 C4.54763726,2.89595292 4.13749019,2.48580586 3.63154815,2.48580586 C3.12560611,2.48580586 2.71545905,2.89595292 2.71545905,3.40189497 L2.71545905,3.40189497 Z" id="路径" fill="#FFFFFF"></path>
                    <path d="M7.58864927,7.84353908 C7.58861616,7.99232803 7.6679751,8.12982885 7.79682458,8.20423289 C7.92567407,8.27863692 8.08443275,8.27863692 8.21328224,8.20423289 C8.34213172,8.12982885 8.42149066,7.99232803 8.42145755,7.84353908 C8.42149066,7.69475014 8.34213172,7.55724931 8.21328224,7.48284528 C8.08443275,7.40844125 7.92567407,7.40844125 7.79682458,7.48284528 C7.6679751,7.55724931 7.58861616,7.69475014 7.58864927,7.84353908 L7.58864927,7.84353908 Z" id="路径" fill="#FFFFFF"></path>
                </g>
                <path d="M35.8333333,10.5753112 C36.1094757,10.5753112 36.3333333,10.7991688 36.3333333,11.0753112 C36.3333333,11.3514536 36.1094757,11.5753112 35.8333333,11.5753112 L27.1666667,11.5753112 C26.8905243,11.5753112 26.6666667,11.3514536 26.6666667,11.0753112 C26.6666667,10.7991688 26.8905243,10.5753112 27.1666667,10.5753112 L35.8333333,10.5753112 Z M35.8333333,8.5753112 C36.1094757,8.5753112 36.3333333,8.79916882 36.3333333,9.0753112 C36.3333333,9.35145357 36.1094757,9.5753112 35.8333333,9.5753112 L27.1666667,9.5753112 C26.8905243,9.5753112 26.6666667,9.35145357 26.6666667,9.0753112 C26.6666667,8.79916882 26.8905243,8.5753112 27.1666667,8.5753112 L35.8333333,8.5753112 Z M35.8333333,6.5753112 C36.1094757,6.5753112 36.3333333,6.79916882 36.3333333,7.0753112 C36.3333333,7.35145357 36.1094757,7.5753112 35.8333333,7.5753112 L27.1666667,7.5753112 C26.8905243,7.5753112 26.6666667,7.35145357 26.6666667,7.0753112 C26.6666667,6.79916882 26.8905243,6.5753112 27.1666667,6.5753112 L35.8333333,6.5753112 Z" id="形状结合" fill="#666666"></path>
            </g>
        </g>
    </g>
</svg>