<?xml version="1.0" encoding="UTF-8"?>
<svg width="60px" height="60px" viewBox="0 0 60 60" version="1.1" xmlns="http://www.w3.org/2000/svg" xmlns:xlink="http://www.w3.org/1999/xlink">
    <title>icon/设备图/分控/off</title>
    <defs>
        <linearGradient x1="50%" y1="0%" x2="50%" y2="100%" id="linearGradient-1">
            <stop stop-color="#FFFFFF" offset="0%"></stop>
            <stop stop-color="#B3B3B3" offset="100%"></stop>
        </linearGradient>
        <path d="M37.9518072,1.44578313 C39.0163855,1.44578313 39.4669424,2.55231145 39.8795181,3.37349398 L39.8795181,11.3253012 C39.8795181,11.7245783 39.5559036,12.0481928 39.1566265,12.0481928 L0.843373494,12.0481928 C0.444096386,12.0481928 0.120481928,11.7245783 0.120481928,11.3253012 L0.120481928,3.37349398 C0.585300047,2.44844356 0.983614458,1.44578313 2.04819277,1.44578313 L37.9518072,1.44578313 Z" id="path-2"></path>
        <linearGradient x1="50%" y1="0%" x2="50%" y2="100%" id="linearGradient-4">
            <stop stop-color="#FFFFFF" offset="0%"></stop>
            <stop stop-color="#CFCFCF" offset="100%"></stop>
        </linearGradient>
        <linearGradient x1="50%" y1="0%" x2="50%" y2="100%" id="linearGradient-5">
            <stop stop-color="#FFFFFF" offset="0%"></stop>
            <stop stop-color="#B4B4B4" offset="100%"></stop>
        </linearGradient>
        <linearGradient x1="50%" y1="13.0331503%" x2="50%" y2="100%" id="linearGradient-6">
            <stop stop-color="#F0F0F0" offset="0%"></stop>
            <stop stop-color="#D1D1D1" offset="100%"></stop>
        </linearGradient>
    </defs>
    <g id="icon/设备图/分控/off" stroke="none" stroke-width="1" fill="none" fill-rule="evenodd">
        <g id="编组-4">
            <path d="M30,60 C46.5685425,60 60,46.5685425 60,30 C60,13.4314575 46.5685425,0 30,0 C13.4314575,0 0,13.4314575 0,30 C0,46.5685425 13.4314575,60 30,60 Z" id="椭圆形"></path>
            <g id="编组-24" transform="translate(10.000000, 23.666667)">
                <path d="M8.94156651,11.5999048 L8.94156651,12.0999048 C8.94156651,12.3761511 8.74148022,12.5999048 8.49538196,12.5999048 L6.02651159,12.5999048 C5.90781074,12.5999048 5.79400202,12.5471531 5.71026546,12.4533169 C5.62652889,12.3594806 5.57976745,12.2322969 5.58032206,12.0999048 L5.58032206,11.6001981 L8.94156651,11.5999048 Z M34.4196828,11.5999048 L34.4196828,12.0999048 C34.4196828,12.3761511 34.2195965,12.5999048 33.9734983,12.5999048 L31.5046279,12.5999048 C31.385927,12.5999048 31.2721183,12.5471531 31.1883818,12.4533169 C31.1046452,12.3594806 31.0578837,12.2322969 31.0584384,12.0999048 L31.0584384,11.6001981 L34.4196828,11.5999048 Z" id="形状结合" fill="#333333" fill-rule="nonzero"></path>
                <path d="M32.519012,0 C32.6028675,0 32.686241,0.0108433735 32.7672048,0.0325301205 L38.0722651,1.44578313 L1.92768675,1.44578313 L7.23298795,0.0325301205 C7.31395181,0.0108433735 7.39708434,0 7.48093976,0 L32.519012,0 Z" id="Fill-1" fill="#666666"></path>
                <mask id="mask-3" fill="white">
                    <use xlink:href="#path-2"></use>
                </mask>
                <use id="蒙版" fill="url(#linearGradient-1)" fill-rule="nonzero" xlink:href="#path-2"></use>
                <path d="M9.63437557,6.15599698 L9.63437557,7.66777743 L8.73437557,7.66777743 L8.73437557,6.15599698 L9.63437557,6.15599698 Z M11.6953421,6.15599698 L11.6953421,7.66777743 L10.7953421,7.66777743 L10.7953421,6.15599698 L11.6953421,6.15599698 Z M13.6953421,6.15599698 L13.6953421,7.66777743 L12.7953421,7.66777743 L12.7953421,6.15599698 L13.6953421,6.15599698 Z M15.6953421,6.15599698 L15.6953421,7.66777743 L14.7953421,7.66777743 L14.7953421,6.15599698 L15.6953421,6.15599698 Z M17.6953421,6.15599698 L17.6953421,7.66777743 L16.7953421,7.66777743 L16.7953421,6.15599698 L17.6953421,6.15599698 Z M19.6953421,6.15599698 L19.6953421,7.66777743 L18.7953421,7.66777743 L18.7953421,6.15599698 L19.6953421,6.15599698 Z" id="形状结合" stroke="#FFFFFF" stroke-width="0.1" fill="#666666" mask="url(#mask-3)"></path>
                <g id="编组-3" mask="url(#mask-3)">
                    <g transform="translate(28.425385, 4.911887)">
                        <rect id="矩形" stroke="#FFFFFF" stroke-width="0.3" fill="#4D4D4D" x="0.15" y="0.15" width="1.060909" height="3.3702015"></rect>
                        <rect id="矩形备份-13" stroke="none" fill="#999999" x="0.382807495" y="0.835100748" width="1" height="2"></rect>
                        <rect id="矩形备份-14" stroke="none" fill="#FFFFFF" x="0.994634285" y="-3.78956126e-14" width="1" height="3.6702015"></rect>
                    </g>
                </g>
                <g id="编组-2" mask="url(#mask-3)">
                    <g transform="translate(31.702224, 4.911887)">
                        <rect id="矩形" stroke="#FFFFFF" stroke-width="0.2" fill="#4D4D4D" x="0.1" y="0.1" width="3.4702015" height="3.4702015" rx="0.5"></rect>
                        <path d="M0.65366093,0.604167476 C0.722784236,0.604167476 0.778819746,0.660202987 0.778819746,0.729326293 L0.778819746,1.47900866 C0.778819746,1.54813197 0.722784236,1.60416748 0.65366093,1.60416748 C0.584537625,1.60416748 0.528502114,1.54813197 0.528502114,1.47900866 L0.528502114,0.729326293 C0.528502114,0.660202987 0.584537625,0.604167476 0.65366093,0.604167476 Z M1.28436285,0.604167476 C1.35348616,0.604167476 1.40952167,0.660202987 1.40952167,0.729326293 L1.40952167,1.47900866 C1.40952167,1.54813197 1.35348616,1.60416748 1.28436285,1.60416748 C1.21523955,1.60416748 1.15920404,1.54813197 1.15920404,1.47900866 L1.15920404,0.729326293 C1.15920404,0.660202987 1.21523955,0.604167476 1.28436285,0.604167476 Z M1.91506477,0.604167476 C1.98418808,0.604167476 2.04022359,0.660202987 2.04022359,0.729326293 L2.04022359,1.47900866 C2.04022359,1.54813197 1.98418808,1.60416748 1.91506477,1.60416748 C1.84594147,1.60416748 1.78990596,1.54813197 1.78990596,1.47900866 L1.78990596,0.729326293 C1.78990596,0.660202987 1.84594147,0.604167476 1.91506477,0.604167476 Z M2.54576669,0.604167476 C2.61489,0.604167476 2.67092551,0.660202987 2.67092551,0.729326293 L2.67092551,1.47900866 C2.67092551,1.54813197 2.61489,1.60416748 2.54576669,1.60416748 C2.47664339,1.60416748 2.42060788,1.54813197 2.42060788,1.47900866 L2.42060788,0.729326293 C2.42060788,0.660202987 2.47664339,0.604167476 2.54576669,0.604167476 Z M3.17646861,0.604167476 C3.24559192,0.604167476 3.30162743,0.660202987 3.30162743,0.729326293 L3.30162743,1.47900866 C3.30162743,1.54813197 3.24559192,1.60416748 3.17646861,1.60416748 C3.10734531,1.60416748 3.0513098,1.54813197 3.0513098,1.47900866 L3.0513098,0.729326293 C3.0513098,0.660202987 3.10734531,0.604167476 3.17646861,0.604167476 Z" id="形状结合" stroke="none" fill="url(#linearGradient-4)"></path>
                        <path d="M6.06348305e-13,2.43754481 L0.981218473,2.43754481 L0.981218473,3.10421147 L1.6371315,3.10421147 L1.6371315,3.6702015 L0.5,3.6702015 C0.223857625,3.6702015 6.062711e-13,3.44634387 6.06292794e-13,3.1702015 L6.06348305e-13,2.43754481 Z" id="形状结合" stroke="none" fill="url(#linearGradient-5)"></path>
                        <path d="M2.03307,2.43754481 L3.01428847,2.43754481 L3.01428847,3.10421147 L3.6702015,3.10421147 L3.6702015,3.6702015 L2.53307,3.6702015 C2.25692762,3.6702015 2.03307,3.44634387 2.03307,3.1702015 L2.03307,2.43754481 Z" id="形状结合备份" stroke="none" fill="url(#linearGradient-5)" transform="translate(2.851636, 3.053873) scale(-1, 1) translate(-2.851636, -3.053873) "></path>
                    </g>
                </g>
                <g id="编组" mask="url(#mask-3)">
                    <g transform="translate(4.080177, 5.413655)">
                        <rect id="矩形" stroke="#FFFFFF" stroke-width="0.5" fill="#FFFFFF" x="0.25" y="0.25" width="2.16666667" height="2.16666667" rx="1.08333333"></rect>
                        <rect id="矩形备份-10" stroke="none" fill="#666666" x="0.444444444" y="0.444444444" width="1.77777778" height="1.77777778" rx="0.888888889"></rect>
                    </g>
                </g>
                <polygon id="矩形" fill-opacity="0.1" fill="#000000" fill-rule="nonzero" mask="url(#mask-3)" points="0.120457831 11.4332381 39.879494 11.4332381 39.879494 11.5999048 0.120457831 11.5999048"></polygon>
                <polygon id="矩形备份-7" fill="url(#linearGradient-6)" fill-rule="nonzero" mask="url(#mask-3)" points="0.120457831 3.20301143 39.879494 3.20301143 39.879494 3.3696781 0.120457831 3.3696781"></polygon>
            </g>
        </g>
    </g>
</svg>