<?xml version="1.0" encoding="UTF-8"?>
<svg width="60px" height="60px" viewBox="0 0 60 60" version="1.1" xmlns="http://www.w3.org/2000/svg" xmlns:xlink="http://www.w3.org/1999/xlink">
    <title>icon/设备图/分控/on</title>
    <defs>
        <linearGradient x1="50%" y1="0%" x2="50%" y2="100%" id="linearGradient-1">
            <stop stop-color="#BABAC5" offset="0%"></stop>
            <stop stop-color="#454550" offset="100%"></stop>
        </linearGradient>
        <radialGradient cx="24.6982732%" cy="9.06850245%" fx="24.6982732%" fy="9.06850245%" r="263.921092%" gradientTransform="translate(0.246983,0.090685),scale(0.303928,1.000000),rotate(20.153747),translate(-0.246983,-0.090685)" id="radialGradient-2">
            <stop stop-color="#F5F5F8" offset="0%"></stop>
            <stop stop-color="#1E1D23" offset="100%"></stop>
        </radialGradient>
        <linearGradient x1="50%" y1="0%" x2="50%" y2="98.9729021%" id="linearGradient-3">
            <stop stop-color="#EDEFFF" offset="0%"></stop>
            <stop stop-color="#33334A" stop-opacity="0.2" offset="100%"></stop>
        </linearGradient>
        <path d="M37.9518072,1.44578313 C39.0163855,1.44578313 39.4669424,2.55231145 39.8795181,3.37349398 L39.8795181,12.8067827 C39.8795181,13.2060598 39.5559036,13.5296743 39.1566265,13.5296743 L0.843373494,13.5296743 C0.444096386,13.5296743 0.120481928,13.2060598 0.120481928,12.8067827 L0.120481928,3.37349398 C0.585300047,2.44844356 0.983614458,1.44578313 2.04819277,1.44578313 L37.9518072,1.44578313 Z" id="path-4"></path>
        <filter x="-28.9%" y="-95.2%" width="157.8%" height="290.3%" filterUnits="objectBoundingBox" id="filter-6">
            <feGaussianBlur stdDeviation="6.5" in="SourceAlpha" result="shadowBlurInner1"></feGaussianBlur>
            <feOffset dx="0" dy="10" in="shadowBlurInner1" result="shadowOffsetInner1"></feOffset>
            <feComposite in="shadowOffsetInner1" in2="SourceAlpha" operator="arithmetic" k2="-1" k3="1" result="shadowInnerInner1"></feComposite>
            <feColorMatrix values="0 0 0 0 0.924496936   0 0 0 0 0.920198171   0 0 0 0 1  0 0 0 0.4 0" type="matrix" in="shadowInnerInner1"></feColorMatrix>
        </filter>
        <linearGradient x1="50%" y1="0%" x2="50%" y2="100%" id="linearGradient-7">
            <stop stop-color="#FFFFFF" offset="0%"></stop>
            <stop stop-color="#C3C3C3" offset="100%"></stop>
        </linearGradient>
        <linearGradient x1="50%" y1="0%" x2="50%" y2="100%" id="linearGradient-8">
            <stop stop-color="#FFFFFF" offset="0%"></stop>
            <stop stop-color="#CFCFCF" offset="100%"></stop>
        </linearGradient>
        <linearGradient x1="50%" y1="0%" x2="50%" y2="100%" id="linearGradient-9">
            <stop stop-color="#FFFFFF" offset="0%"></stop>
            <stop stop-color="#B4B4B4" offset="100%"></stop>
        </linearGradient>
        <linearGradient x1="50%" y1="0%" x2="50%" y2="100%" id="linearGradient-10">
            <stop stop-color="#FFFBE7" offset="0%"></stop>
            <stop stop-color="#FFEB92" offset="100%"></stop>
        </linearGradient>
        <rect id="path-11" x="0.979733271" y="0.979733271" width="2.18868161" height="2.18868161" rx="1.0943408"></rect>
        <filter x="-4.6%" y="-4.6%" width="109.1%" height="118.3%" filterUnits="objectBoundingBox" id="filter-12">
            <feOffset dx="0" dy="0.2" in="SourceAlpha" result="shadowOffsetOuter1"></feOffset>
            <feColorMatrix values="0 0 0 0 0   0 0 0 0 0   0 0 0 0 0  0 0 0 0.3 0" type="matrix" in="shadowOffsetOuter1"></feColorMatrix>
        </filter>
    </defs>
    <g id="icon/设备图/分控/on" stroke="none" stroke-width="1" fill="none" fill-rule="evenodd">
        <g id="编组-24" transform="translate(10.000000, 22.666667)">
            <path d="M8.94156651,13.0813863 L8.94156651,13.5813863 C8.94156651,13.8576326 8.74148022,14.0813863 8.49538196,14.0813863 L6.02651159,14.0813863 C5.90781074,14.0813863 5.79400202,14.0286346 5.71026546,13.9347983 C5.62652889,13.8409621 5.57976745,13.7137783 5.58032206,13.5813863 L5.58032206,13.0816795 L8.94156651,13.0813863 Z M34.4196828,13.0813863 L34.4196828,13.5813863 C34.4196828,13.8576326 34.2195965,14.0813863 33.9734983,14.0813863 L31.5046279,14.0813863 C31.385927,14.0813863 31.2721183,14.0286346 31.1883818,13.9347983 C31.1046452,13.8409621 31.0578837,13.7137783 31.0584384,13.5813863 L31.0584384,13.0816795 L34.4196828,13.0813863 Z" id="形状结合" fill="#14141D" fill-rule="nonzero"></path>
            <path d="M32.519012,0 C32.6028675,0 32.686241,0.0108433735 32.7672048,0.0325301205 L38.0722651,1.44578313 L1.92768675,1.44578313 L7.23298795,0.0325301205 C7.31395181,0.0108433735 7.39708434,0 7.48093976,0 L32.519012,0 Z" id="Fill-1" fill="url(#linearGradient-1)" fill-rule="nonzero"></path>
            <mask id="mask-5" fill="white">
                <use xlink:href="#path-4"></use>
            </mask>
            <g id="蒙版">
                <use fill="url(#radialGradient-2)" fill-rule="evenodd" xlink:href="#path-4"></use>
                <use fill="black" fill-opacity="1" filter="url(#filter-6)" xlink:href="#path-4"></use>
                <path stroke="url(#linearGradient-3)" stroke-width="0.3" d="M37.9518072,1.59578313 C38.3156732,1.59578313 38.5986983,1.74144774 38.8308429,1.96044034 C39.1759084,2.28595643 39.4130399,2.76673798 39.6282463,3.20405874 L39.6282463,3.20405874 L39.7295181,12.8067827 L0.843373494,13.3796743 L0.270481928,3.40852295 C0.608322894,2.72451099 0.836638702,2.25667323 1.1693555,1.94528784 C1.39799334,1.73130862 1.6780763,1.59578313 2.04819277,1.59578313 L2.04819277,1.59578313 Z" stroke-linejoin="square"></path>
            </g>
            <path d="M9.63437557,5.85077609 L9.63437557,9.1581835 L8.73437557,9.1581835 L8.73437557,5.85077609 L9.63437557,5.85077609 Z M11.6953421,5.85077609 L11.6953421,9.1581835 L10.7953421,9.1581835 L10.7953421,5.85077609 L11.6953421,5.85077609 Z M13.6953421,5.85077609 L13.6953421,9.1581835 L12.7953421,9.1581835 L12.7953421,5.85077609 L13.6953421,5.85077609 Z M15.6953421,5.85077609 L15.6953421,9.1581835 L14.7953421,9.1581835 L14.7953421,5.85077609 L15.6953421,5.85077609 Z M17.6953421,5.85077609 L17.6953421,9.1581835 L16.7953421,9.1581835 L16.7953421,5.85077609 L17.6953421,5.85077609 Z M19.6953421,5.85077609 L19.6953421,9.1581835 L18.7953421,9.1581835 L18.7953421,5.85077609 L19.6953421,5.85077609 Z" id="形状结合" stroke="url(#linearGradient-7)" stroke-width="0.1" fill="#14141D" mask="url(#mask-5)"></path>
            <g id="编组-3" mask="url(#mask-5)">
                <g transform="translate(28.425385, 5.504480)">
                    <rect id="矩形" stroke="#FFFFFF" stroke-width="0.3" fill="#14141D" x="0.15" y="0.15" width="1.060909" height="3.3702015"></rect>
                    <rect id="矩形备份-13" stroke="none" fill="#FFFFFF" x="0.382807495" y="0.835100748" width="1" height="2"></rect>
                </g>
            </g>
            <g id="编组-2" mask="url(#mask-5)">
                <g transform="translate(31.702224, 5.504480)">
                    <rect id="矩形" stroke="#FFFFFF" stroke-width="0.2" fill="#14141D" x="0.1" y="0.1" width="3.4702015" height="3.4702015" rx="0.5"></rect>
                    <path d="M0.65366093,0.604167476 C0.722784236,0.604167476 0.778819746,0.660202987 0.778819746,0.729326293 L0.778819746,1.47900866 C0.778819746,1.54813197 0.722784236,1.60416748 0.65366093,1.60416748 C0.584537625,1.60416748 0.528502114,1.54813197 0.528502114,1.47900866 L0.528502114,0.729326293 C0.528502114,0.660202987 0.584537625,0.604167476 0.65366093,0.604167476 Z M1.28436285,0.604167476 C1.35348616,0.604167476 1.40952167,0.660202987 1.40952167,0.729326293 L1.40952167,1.47900866 C1.40952167,1.54813197 1.35348616,1.60416748 1.28436285,1.60416748 C1.21523955,1.60416748 1.15920404,1.54813197 1.15920404,1.47900866 L1.15920404,0.729326293 C1.15920404,0.660202987 1.21523955,0.604167476 1.28436285,0.604167476 Z M1.91506477,0.604167476 C1.98418808,0.604167476 2.04022359,0.660202987 2.04022359,0.729326293 L2.04022359,1.47900866 C2.04022359,1.54813197 1.98418808,1.60416748 1.91506477,1.60416748 C1.84594147,1.60416748 1.78990596,1.54813197 1.78990596,1.47900866 L1.78990596,0.729326293 C1.78990596,0.660202987 1.84594147,0.604167476 1.91506477,0.604167476 Z M2.54576669,0.604167476 C2.61489,0.604167476 2.67092551,0.660202987 2.67092551,0.729326293 L2.67092551,1.47900866 C2.67092551,1.54813197 2.61489,1.60416748 2.54576669,1.60416748 C2.47664339,1.60416748 2.42060788,1.54813197 2.42060788,1.47900866 L2.42060788,0.729326293 C2.42060788,0.660202987 2.47664339,0.604167476 2.54576669,0.604167476 Z M3.17646861,0.604167476 C3.24559192,0.604167476 3.30162743,0.660202987 3.30162743,0.729326293 L3.30162743,1.47900866 C3.30162743,1.54813197 3.24559192,1.60416748 3.17646861,1.60416748 C3.10734531,1.60416748 3.0513098,1.54813197 3.0513098,1.47900866 L3.0513098,0.729326293 C3.0513098,0.660202987 3.10734531,0.604167476 3.17646861,0.604167476 Z" id="形状结合" stroke="none" fill="url(#linearGradient-8)"></path>
                    <path d="M0.981218473,2.43754481 L0.981218473,3.10421147 L1.6371315,3.10421147 L1.6371315,3.6702015 L0.5,3.6702015 C0.223857625,3.6702015 -1.06145042e-12,3.44634387 -1.06170628e-12,3.1702015 L-1.06165077e-12,2.43754481 L0.981218473,2.43754481 Z M3.6702015,2.43754481 L3.6702015,3.1702015 C3.6702015,3.44634387 3.44634387,3.6702015 3.1702015,3.6702015 L3.1702015,3.6702015 L2.03307,3.6702015 L2.03307,3.10421147 L2.68898302,3.10421147 L2.68898302,2.43754481 L3.6702015,2.43754481 Z" id="形状结合" stroke="none" fill="url(#linearGradient-9)"></path>
                </g>
            </g>
            <g id="编组" mask="url(#mask-5)">
                <g transform="translate(3.339436, 5.265506)">
                    <rect id="矩形" fill-opacity="0.3" fill="#000000" fill-rule="evenodd" x="0.43769398" y="0.43769398" width="3.27276019" height="3.27276019" rx="1.63638009"></rect>
                    <g id="矩形备份-10" fill="none" fill-rule="nonzero">
                        <use fill="black" fill-opacity="1" filter="url(#filter-12)" xlink:href="#path-11"></use>
                        <use fill="url(#linearGradient-10)" xlink:href="#path-11"></use>
                    </g>
                </g>
            </g>
            <polygon id="矩形" fill="#14141D" fill-rule="nonzero" mask="url(#mask-5)" points="0.120457831 12.9147196 39.879494 12.9147196 39.879494 13.0813863 0.120457831 13.0813863"></polygon>
        </g>
    </g>
</svg>