<?xml version="1.0" encoding="UTF-8"?>
<svg width="60px" height="60px" viewBox="0 0 60 60" version="1.1" xmlns="http://www.w3.org/2000/svg" xmlns:xlink="http://www.w3.org/1999/xlink">
    <title>icon/设备图/交换机/off</title>
    <defs>
        <linearGradient x1="50%" y1="0%" x2="50%" y2="100%" id="linearGradient-1">
            <stop stop-color="#DEDEDE" offset="0%"></stop>
            <stop stop-color="#BABABA" offset="100%"></stop>
        </linearGradient>
    </defs>
    <g id="icon/设备图/交换机/off" stroke="none" stroke-width="1" fill="none" fill-rule="evenodd">
        <g id="编组-2">
            <path d="M30,60 C46.5685425,60 60,46.5685425 60,30 C60,13.4314575 46.5685425,0 30,0 C13.4314575,0 0,13.4314575 0,30 C0,46.5685425 13.4314575,60 30,60 Z" id="椭圆形"></path>
        </g>
        <g id="编组" transform="translate(9.500000, 19.000000)">
            <path d="M39.0809361,21.9600537 L1.89508543,21.9600537 C0.848503254,21.9600537 0,21.1115504 0,20.0653239 L0,10.9800091 L40.9753103,10.9800091 L40.9753103,20.0653239 C40.9753103,21.1115504 40.1268071,21.9600537 39.0809361,21.9600537" id="Fill-1" fill="#666666"></path>
            <path d="M40.9753814,10.9800446 L7.11234916e-05,10.9800446 L6.29378889,1.26457568 C6.80445556,0.476171776 7.67963012,-7.81597009e-14 8.61881582,-7.81597009e-14 L32.3569923,-7.81597009e-14 C33.2958224,-7.81597009e-14 34.170997,0.476171776 34.6820193,1.26457568 L40.9753814,10.9800446 Z" id="Fill-3" fill="url(#linearGradient-1)"></path>
            <path d="M23.6968087,5.95527035 L23.8190594,7.18075697 C21.6796712,7.14246051 20.9461666,6.79779239 20.0292859,5.80208452 L19.9681606,5.72549161 L20.0292859,5.64889869 C20.9461666,4.76808018 21.5574204,4.46170852 23.5134325,4.46170852 L23.6356833,5.34252703 L27.0587045,4.07874396 L23.3300564,2.85325733 L23.4523072,3.65748293 C21.3740443,3.69577939 20.3960382,4.00215105 19.234656,5.07445185 C18.1343992,4.23192979 16.7285155,3.92555813 14.2223749,3.92555813 L14.0389988,3.92555813 L13.8556226,4.72978373 L14.1001241,4.72978373 C16.4840139,4.72978373 17.5842708,4.99785893 18.5011515,5.76378807 C17.4008946,6.60631012 16.1172617,6.91268178 13.5499958,6.91268178 L13.3666196,6.91268178 L13.1221181,7.79350029 L13.3666196,7.79350029 C16.2395124,7.79350029 17.8287723,7.41053571 19.1735306,6.45312429 C20.2737875,7.56372154 21.3129189,8.09987193 24.0024356,8.13816839 L24.1246863,8.98069044 L27.8533345,7.41053571 L23.6968087,5.95527035 L23.6968087,5.95527035 Z" id="路径" fill="#FFFFFF" fill-rule="nonzero"></path>
            <path d="M8.59781059,13.7709208 C8.9763751,13.7740609 9.28132015,14.082844 9.2799293,14.4614085 L9.2799293,14.4614085 L9.2799293,18.1493595 C9.2799293,18.539438 8.97114149,18.8562459 8.59781059,18.8562459 C8.2244797,18.8562459 7.91464994,18.539438 7.91464994,18.1493595 L7.91464994,18.1493595 L7.91464994,14.4614085 C7.91464994,14.0793549 8.2244797,13.7709208 8.59781059,13.7709208 Z M6.06278912,13.7709208 C6.4448427,13.7709208 6.76165061,14.0793549 6.76165061,14.4614085 L6.76165061,14.4614085 L6.76165061,18.1493595 C6.76165061,18.539438 6.4448427,18.8562459 6.06278912,18.8562459 C5.68945822,18.8562459 5.3810241,18.539438 5.3810241,18.1493595 L5.3810241,18.1493595 L5.3810241,14.4614085 C5.3810241,14.0793549 5.68945822,13.7709208 6.06278912,13.7709208 Z M11.1240047,13.7709208 C11.4980334,13.7709208 11.8144924,14.0793549 11.8144924,14.4614085 L11.8144924,14.4614085 L11.8144924,18.1493595 C11.8144924,18.539438 11.4983823,18.8562459 11.1240047,18.8562459 C10.7423,18.8562459 10.4338659,18.539438 10.4338659,18.1493595 L10.4338659,18.1493595 L10.4338659,14.4614085 C10.4338659,14.0793549 10.7423,13.7709208 11.1240047,13.7709208 Z" id="形状结合" fill="#FFFFFF"></path>
            <path d="M34.0922636,17.2150204 C33.5730895,17.2150204 33.1578897,16.8085433 33.1578897,16.3057678 C33.1578897,15.7935718 33.5730895,15.3870947 34.0922636,15.3870947 C34.5953881,15.3870947 35.002563,15.8019455 35.002563,16.3057678 C35.0001206,16.8071477 34.5936435,17.2125781 34.0922636,17.2150204 M34.0922636,14.022169 C32.8239853,14.022169 31.7933129,15.0462122 31.7933129,16.30507 C31.7933129,17.5639278 32.8239853,18.5956469 34.0922636,18.5956469 C35.3354206,18.5956469 36.3835384,17.555554 36.3835384,16.30507 C36.3835384,15.0462122 35.3441433,14.022169 34.0922636,14.022169" id="Fill-15" fill="#FFFFFF"></path>
        </g>
    </g>
</svg>