<?xml version="1.0" encoding="UTF-8"?>
<svg width="60px" height="60px" viewBox="0 0 60 60" version="1.1" xmlns="http://www.w3.org/2000/svg" xmlns:xlink="http://www.w3.org/1999/xlink">
    <title>icon/设备图/交换机/on</title>
    <defs>
        <circle id="path-1" cx="30" cy="30" r="30"></circle>
        <mask id="mask-2" maskContentUnits="userSpaceOnUse" maskUnits="objectBoundingBox" x="0" y="0" width="60" height="60" fill="white">
            <use xlink:href="#path-1"></use>
        </mask>
        <radialGradient cx="24.6982732%" cy="9.06850245%" fx="24.6982732%" fy="9.06850245%" r="295.356789%" gradientTransform="translate(0.246983,0.090685),scale(0.267967,1.000000),rotate(17.930914),translate(-0.246983,-0.090685)" id="radialGradient-3">
            <stop stop-color="#F5F5F8" offset="0%"></stop>
            <stop stop-color="#1E1D23" offset="100%"></stop>
        </radialGradient>
        <linearGradient x1="50%" y1="0%" x2="50%" y2="98.9729021%" id="linearGradient-4">
            <stop stop-color="#EDEFFF" offset="0%"></stop>
            <stop stop-color="#33334A" stop-opacity="0.2" offset="100%"></stop>
        </linearGradient>
        <path d="M39.9759819,10.7122387 L6.93887723e-05,10.7122387 L6.14028184,1.23373237 C6.63849323,0.46455783 7.49232207,-7.62533668e-14 8.4086008,-7.62533668e-14 L31.5677974,-7.62533668e-14 C32.4837292,-7.62533668e-14 33.337558,0.46455783 33.8361164,1.23373237 L39.9759819,10.7122387 Z" id="path-5"></path>
        <filter x="-28.8%" y="-107.4%" width="157.5%" height="314.7%" filterUnits="objectBoundingBox" id="filter-6">
            <feGaussianBlur stdDeviation="6.5" in="SourceAlpha" result="shadowBlurInner1"></feGaussianBlur>
            <feOffset dx="0" dy="10" in="shadowBlurInner1" result="shadowOffsetInner1"></feOffset>
            <feComposite in="shadowOffsetInner1" in2="SourceAlpha" operator="arithmetic" k2="-1" k3="1" result="shadowInnerInner1"></feComposite>
            <feColorMatrix values="0 0 0 0 0.924496936   0 0 0 0 0.920198171   0 0 0 0 1  0 0 0 0.4 0" type="matrix" in="shadowInnerInner1"></feColorMatrix>
        </filter>
        <linearGradient x1="50%" y1="0%" x2="50%" y2="100%" id="linearGradient-7">
            <stop stop-color="#FFE456" offset="0%"></stop>
            <stop stop-color="#FFFBE7" offset="100%"></stop>
        </linearGradient>
    </defs>
    <g id="icon/设备图/交换机/on" stroke="none" stroke-width="1" fill="none" fill-rule="evenodd">
        <g id="编组-2" opacity="0" stroke="" stroke-dasharray="2,2" stroke-width="6">
            <use id="椭圆形" mask="url(#mask-2)" xlink:href="#path-1"></use>
        </g>
        <g id="编组" transform="translate(10.000000, 19.268293)">
            <path d="M38.1277425,21.4244426 L1.84886384,21.4244426 C0.827808052,21.4244426 0,20.5966346 0,19.5759257 L0,10.712204 L39.9759125,10.712204 L39.9759125,19.5759257 C39.9759125,20.5966346 39.1481044,21.4244426 38.1277425,21.4244426" id="Fill-1" fill="#111225"></path>
            <g id="Fill-3">
                <use fill="url(#radialGradient-3)" fill-rule="evenodd" xlink:href="#path-5"></use>
                <use fill="black" fill-opacity="1" filter="url(#filter-6)" xlink:href="#path-5"></use>
                <path stroke="url(#linearGradient-4)" stroke-width="0.3" d="M31.5677974,0.15 C32.4329193,0.15 33.2393521,0.588826708 33.7102215,1.31528291 L33.7102215,1.31528291 L39.7000962,10.5622387 L0.275963545,10.5622387 L6.26617926,1.31527892 C6.73673866,0.588795504 7.54317046,0.15 8.4086008,0.15 L8.4086008,0.15 Z" stroke-linejoin="square"></path>
            </g>
            <path d="M23.1188377,5.81001986 L23.2381068,7.00561655 C21.1508987,6.96825415 20.4352845,6.63199257 19.5407668,5.66057027 L19.4811323,5.58584547 L19.5407668,5.51112068 C20.4352845,4.65178555 21.0316297,4.35288636 22.9399342,4.35288636 L23.0592032,5.21222149 L26.3987361,3.9792624 L22.7610307,2.78366569 L22.8802997,3.56827603 C20.8527261,3.60563843 19.8985739,3.90453761 18.7655181,4.95068473 C17.6920968,4.12871199 16.3205029,3.82981281 13.8754877,3.82981281 L13.6965842,3.82981281 L13.5176806,4.61442315 L13.7562187,4.61442315 C16.0819648,4.61442315 17.1553861,4.87595993 18.0499039,5.62320787 C16.9764826,6.4451806 15.7241577,6.74407978 13.2195081,6.74407978 L13.0406045,6.74407978 L12.8020664,7.60341492 L13.0406045,7.60341492 C15.8434268,7.60341492 17.3939242,7.22979094 18.7058836,6.29573101 C19.7793048,7.37924053 20.7930916,7.90231408 23.4170103,7.93967648 L23.5362794,8.76164921 L27.1739848,7.22979094 L23.1188377,5.81001986 L23.1188377,5.81001986 Z" id="路径" fill="#FFFFFF" fill-rule="nonzero"></path>
            <path d="M8.3881079,13.4350447 C8.75743912,13.4381082 9.05494649,13.73936 9.05358956,14.1086912 L9.05358956,14.1086912 L9.05358956,17.7066922 C9.05358956,18.0872566 8.75233316,18.3963374 8.3881079,18.3963374 C8.02388263,18.3963374 7.7216097,18.0872566 7.7216097,17.7066922 L7.7216097,17.7066922 L7.7216097,14.1086912 C7.7216097,13.735956 8.02388263,13.4350447 8.3881079,13.4350447 Z M5.91491621,13.4350447 C6.28765142,13.4350447 6.5967323,13.735956 6.5967323,14.1086912 L6.5967323,14.1086912 L6.5967323,17.7066922 C6.5967323,18.0872566 6.28765142,18.3963374 5.91491621,18.3963374 C5.55069095,18.3963374 5.24977961,18.0872566 5.24977961,17.7066922 L5.24977961,17.7066922 L5.24977961,14.1086912 C5.24977961,13.735956 5.55069095,13.4350447 5.91491621,13.4350447 Z M10.8526875,13.4350447 C11.2175936,13.4350447 11.5263341,13.735956 11.5263341,14.1086912 L11.5263341,14.1086912 L11.5263341,17.7066922 C11.5263341,18.0872566 11.217934,18.3963374 10.8526875,18.3963374 C10.4802927,18.3963374 10.1793814,18.0872566 10.1793814,17.7066922 L10.1793814,17.7066922 L10.1793814,14.1086912 C10.1793814,13.735956 10.4802927,13.4350447 10.8526875,13.4350447 Z" id="形状结合" fill="#FFFFFF"></path>
            <path d="M33.260745,16.7951419 C32.7542336,16.7951419 32.3491607,16.3985789 32.3491607,15.9080661 C32.3491607,15.4083627 32.7542336,15.0117997 33.260745,15.0117997 C33.7515981,15.0117997 34.1488419,15.4165322 34.1488419,15.9080661 C34.1464592,16.3972173 33.7498961,16.7927591 33.260745,16.7951419 M33.260745,13.6801649 C32.0234003,13.6801649 31.0178662,14.6792314 31.0178662,15.9073854 C31.0178662,17.1355393 32.0234003,18.1420946 33.260745,18.1420946 C34.4735811,18.1420946 35.496135,17.1273698 35.496135,15.9073854 C35.496135,14.6792314 34.482091,13.6801649 33.260745,13.6801649" id="Fill-15" fill="url(#linearGradient-7)" fill-rule="nonzero"></path>
        </g>
    </g>
</svg>