<?xml version="1.0" encoding="UTF-8"?>
<svg width="60px" height="60px" viewBox="0 0 60 60" version="1.1" xmlns="http://www.w3.org/2000/svg" xmlns:xlink="http://www.w3.org/1999/xlink">
    <title>icon/设备图/视频会议主机/off</title>
    <defs>
        <linearGradient x1="88.1298736%" y1="52.7243208%" x2="13.8769444%" y2="46.4164658%" id="linearGradient-1">
            <stop stop-color="#F9FAFF" offset="0%"></stop>
            <stop stop-color="#838383" offset="21.369646%"></stop>
            <stop stop-color="#696969" offset="43.9330201%"></stop>
            <stop stop-color="#F1F2FA" offset="100%"></stop>
        </linearGradient>
        <linearGradient x1="50%" y1="0%" x2="50%" y2="100%" id="linearGradient-2">
            <stop stop-color="#838383" offset="0%"></stop>
            <stop stop-color="#272727" offset="100%"></stop>
        </linearGradient>
        <radialGradient cx="50%" cy="50%" fx="50%" fy="50%" r="50%" id="radialGradient-3">
            <stop stop-color="#666666" offset="0%"></stop>
            <stop stop-color="#262626" offset="100%"></stop>
        </radialGradient>
        <linearGradient x1="50%" y1="0%" x2="50%" y2="100%" id="linearGradient-4">
            <stop stop-color="#FFFFFF" offset="0%"></stop>
            <stop stop-color="#B3B3B3" offset="100%"></stop>
        </linearGradient>
        <path d="M3.0271811,0 L44.9728189,0 C46.3535308,-3.04440971e-15 47.4728189,1.11928813 47.4728189,2.5 C47.4728189,2.65860633 47.4577254,2.81685276 47.4277425,2.97259933 L46.3477434,8.58266945 C46.1211822,9.75954463 45.0913043,10.6100701 43.8928198,10.6100701 L4.10718024,10.6100701 C2.90869571,10.6100701 1.87881784,9.75954463 1.65225665,8.58266945 L0.572257505,2.97259933 C0.311248102,1.61678246 1.19876491,0.306085805 2.55458177,0.0450764018 C2.71032834,0.0150935037 2.86857477,-4.149537e-16 3.0271811,0 Z" id="path-5"></path>
        <linearGradient x1="100%" y1="50%" x2="0%" y2="50%" id="linearGradient-7">
            <stop stop-color="#000000" offset="0%"></stop>
            <stop stop-color="#4F4F4F" offset="33.9789117%"></stop>
            <stop stop-color="#000000" offset="100%"></stop>
        </linearGradient>
        <linearGradient x1="50%" y1="0%" x2="50%" y2="100%" id="linearGradient-8">
            <stop stop-color="#BABAC5" offset="0%"></stop>
            <stop stop-color="#454550" offset="100%"></stop>
        </linearGradient>
    </defs>
    <g id="icon/设备图/视频会议主机/off" stroke="none" stroke-width="1" fill="none" fill-rule="evenodd">
        <g id="编组-2">
            <path d="M30,60 C46.5685425,60 60,46.5685425 60,30 C60,13.4314575 46.5685425,0 30,0 C13.4314575,0 0,13.4314575 0,30 C0,46.5685425 13.4314575,60 30,60 Z" id="椭圆形"></path>
        </g>
        <g id="编组-5" transform="translate(6.000000, 15.200000)">
            <path d="M24,0 C25.8698835,-3.43492018e-16 27.5712935,1.08073511 28.3660513,2.77331429 L30.1276596,6.52497518 L30.1276596,6.52497518 L17.8723404,6.52497518 L19.6339487,2.77331429 C20.4287065,1.08073511 22.1301165,3.43492018e-16 24,0 Z" id="矩形" fill="url(#linearGradient-1)"></path>
            <path d="M19.7159576,17.1082602 C18.7273252,17.1082602 17.9233762,16.2757139 17.9233762,15.252206 L17.9233762,7.38571181 C17.9233762,6.90335894 18.3008949,6.51241151 18.7666794,6.51241151 C19.2324638,6.51241151 19.6099825,6.90335894 19.6099825,7.38571181 L19.6099825,15.252206 C19.6099825,15.3124637 19.6574886,15.3616596 19.7159576,15.3616596 L28.3350782,15.3616596 C28.3935472,15.3616596 28.4410532,15.3124637 28.4410532,15.252206 L28.4410532,7.38571181 C28.4410532,6.90335894 28.818572,6.51241151 29.2843564,6.51241151 C29.7501409,6.51241151 30.1276596,6.90335894 30.1276596,7.38571181 L30.1276596,15.252206 C30.1276596,16.2757139 29.3237106,17.1082602 28.3350782,17.1082602 L19.7159576,17.1082602 Z" id="Fill-1" fill="url(#linearGradient-2)"></path>
            <g id="编组-3" transform="translate(17.872340, 1.259066)" fill-rule="nonzero">
                <path d="M6.12765957,12.2553191 C2.74344664,12.2553191 0,9.51187251 0,6.12765957 C0,2.74344664 2.74344664,-6.34953083e-15 6.12765957,-6.34953083e-15 C9.51187251,-6.34953083e-15 12.2553191,2.74344664 12.2553191,6.12765957 C12.2506954,9.50995542 9.50995542,12.2506954 6.12765957,12.2553191 L6.12765957,12.2553191 Z" id="路径" fill="#A7A7A7"></path>
                <path d="M6.12492487,12.2553191 C2.74142411,12.253809 -0.000503392721,9.51024924 0,6.12674818 C0.000503392721,2.74324712 2.74324714,0.000503380386 6.1267482,3.31536217e-12 C9.51024926,-0.000503380379 12.253809,2.74142413 12.2553191,6.1249249 C12.252304,9.50939847 9.50939844,12.252304 6.12492487,12.2553191 Z M6.12492487,0.278902178 C2.89546142,0.283431945 0.28085292,2.90456742 0.284371418,6.13403213 C0.287897025,9.36349684 2.90821652,11.9789231 6.13768217,11.9764106 C9.36714782,11.9738944 11.9833916,9.35439118 11.9818856,6.1249249 C11.9773591,2.8934191 9.35643384,0.276167839 6.12492487,0.276167839 L6.12492487,0.278902178 Z" id="形状" fill="#373840"></path>
                <path d="M6.1277342,11.2340426 C4.06242526,11.2340426 2.20047994,9.98993046 1.41012043,8.0818338 C0.619760918,6.17373715 1.05663499,3.97742289 2.51702895,2.51702893 C3.97742291,1.05663498 6.17373717,0.619760918 8.08183382,1.41012044 C9.98993048,2.20047996 11.2340426,4.06242528 11.2340426,6.12773422 C11.2311138,8.94665643 8.9466564,11.2311138 6.1277342,11.2340426 L6.1277342,11.2340426 Z" id="路径" fill="#6D6D6D"></path>
                <path d="M6.12765955,9.70212766 C4.15353534,9.70212766 2.55319149,8.10178377 2.55319149,6.12765956 C2.55319149,4.15353535 4.15353537,2.55319149 6.12765958,2.55319149 C8.10178379,2.55319149 9.70212766,4.15353537 9.70212766,6.12765957 C9.70055705,8.10113286 8.10113284,9.70055706 6.12765955,9.70212766 L6.12765955,9.70212766 Z" id="路径" fill="url(#radialGradient-3)"></path>
                <path d="M2.7088012,3.40468742 C2.7088012,3.7389381 2.88712179,4.04779847 3.17659137,4.21492381 C3.46606095,4.38204915 3.82270218,4.38204915 4.11217175,4.21492381 C4.40164133,4.04779847 4.57996192,3.7389381 4.57996192,3.40468742 C4.57996192,2.88798065 4.16108833,2.46910706 3.64438156,2.46910706 C3.12767479,2.46910706 2.7088012,2.88798065 2.7088012,3.40468742 L2.7088012,3.40468742 Z" id="路径" fill="#FFFFFF"></path>
                <path d="M7.68567632,7.9408346 C7.68564251,8.09278927 7.76668993,8.23321564 7.89828089,8.30920274 C8.02987186,8.38518984 8.19200838,8.38518984 8.32359935,8.30920274 C8.45519031,8.23321564 8.53623774,8.09278927 8.53620392,7.9408346 C8.53623774,7.78887994 8.45519031,7.64845356 8.32359935,7.57246646 C8.19200838,7.49647936 8.02987186,7.49647936 7.89828089,7.57246646 C7.76668993,7.64845356 7.68564251,7.78887994 7.68567632,7.9408346 L7.68567632,7.9408346 Z" id="路径" fill="#FFFFFF"></path>
            </g>
            <g id="矩形" transform="translate(0.000000, 17.320067)">
                <mask id="mask-6" fill="white">
                    <use xlink:href="#path-5"></use>
                </mask>
                <use id="蒙版" fill="url(#linearGradient-4)" fill-rule="nonzero" xlink:href="#path-5"></use>
                <rect mask="url(#mask-6)" x="-0.227563435" y="7.85761114" width="48" height="2.65556732"></rect>
                <rect fill="url(#linearGradient-7)" style="mix-blend-mode: soft-light;" mask="url(#mask-6)" x="17.8589586" y="4.79439676" width="12.2820829" height="1.0212766" rx="0.2"></rect>
                <path d="M12.7062807,10.6100701 L12.7062807,11.1207084 C12.7062807,11.4028323 12.5019372,11.6313467 12.2506028,11.6313467 L9.72920332,11.6313467 C9.60797693,11.6313467 9.49174674,11.5774726 9.40622855,11.4816399 C9.32071036,11.3858071 9.27295399,11.2559173 9.2735204,11.1207084 L9.2735204,10.6103696 L12.7062807,10.6100701 Z M38.7264846,10.6100701 L38.7264846,11.1207084 C38.7264846,11.4028323 38.5221411,11.6313467 38.2708067,11.6313467 L35.7494072,11.6313467 C35.6281808,11.6313467 35.5119506,11.5774726 35.4264324,11.4816399 C35.3409142,11.3858071 35.2931579,11.2559173 35.2937243,11.1207084 L35.2937243,10.6103696 L38.7264846,10.6100701 Z" id="形状结合" fill="#333333" fill-rule="nonzero"></path>
            </g>
            <path d="M45.044079,17.3163551 C44.3717864,17.0388952 43.6089663,16.9001653 42.7556189,16.9001653 L4.81127413,16.9001653 C4.22232668,16.9001653 3.48021704,17.1439287 3.00695673,17.3163551 L45.044079,17.3163551 Z" id="Fill-3备份" fill="url(#linearGradient-8)" fill-rule="nonzero"></path>
            <rect id="矩形" stroke="#FFFFFF" stroke-width="0.5" fill="#FFFFFF" x="5.65564052" y="20.9521351" width="3.34593313" height="3.34593313" rx="1.67296657"></rect>
            <rect id="矩形备份-10" fill="#666666" x="6.04662937" y="21.3431239" width="2.56395542" height="2.56395542" rx="1.28197771"></rect>
        </g>
    </g>
</svg>