<?xml version="1.0" encoding="UTF-8"?>
<svg width="60px" height="60px" viewBox="0 0 60 60" version="1.1" xmlns="http://www.w3.org/2000/svg" xmlns:xlink="http://www.w3.org/1999/xlink">
    <title>icon/设备图/视频矩阵/on</title>
    <defs>
        <circle id="path-1" cx="30" cy="30" r="30"></circle>
        <mask id="mask-2" maskContentUnits="userSpaceOnUse" maskUnits="objectBoundingBox" x="0" y="0" width="60" height="60" fill="white">
            <use xlink:href="#path-1"></use>
        </mask>
        <radialGradient cx="24.6982732%" cy="9.06850245%" fx="24.6982732%" fy="9.06850245%" r="175.925943%" gradientTransform="translate(0.246983,0.090685),scale(0.500000,1.000000),rotate(31.122780),translate(-0.246983,-0.090685)" id="radialGradient-3">
            <stop stop-color="#F5F5F8" offset="0%"></stop>
            <stop stop-color="#1E1D23" offset="100%"></stop>
        </radialGradient>
        <linearGradient x1="50%" y1="0%" x2="50%" y2="98.9729021%" id="linearGradient-4">
            <stop stop-color="#EDEFFF" offset="0%"></stop>
            <stop stop-color="#33334A" stop-opacity="0.2" offset="100%"></stop>
        </linearGradient>
        <rect id="path-5" x="0" y="0.777190141" width="40" height="20" rx="2"></rect>
        <filter x="-28.8%" y="-57.5%" width="157.5%" height="215.0%" filterUnits="objectBoundingBox" id="filter-6">
            <feGaussianBlur stdDeviation="6.5" in="SourceAlpha" result="shadowBlurInner1"></feGaussianBlur>
            <feOffset dx="0" dy="10" in="shadowBlurInner1" result="shadowOffsetInner1"></feOffset>
            <feComposite in="shadowOffsetInner1" in2="SourceAlpha" operator="arithmetic" k2="-1" k3="1" result="shadowInnerInner1"></feComposite>
            <feColorMatrix values="0 0 0 0 0.924496936   0 0 0 0 0.920198171   0 0 0 0 1  0 0 0 0.4 0" type="matrix" in="shadowInnerInner1"></feColorMatrix>
        </filter>
        <linearGradient x1="50%" y1="0%" x2="50%" y2="100%" id="linearGradient-7">
            <stop stop-color="#FFFFFF" offset="0%"></stop>
            <stop stop-color="#B3B3B3" offset="100%"></stop>
        </linearGradient>
        <linearGradient x1="50%" y1="0%" x2="50%" y2="100%" id="linearGradient-8">
            <stop stop-color="#BABAC5" offset="0%"></stop>
            <stop stop-color="#454550" offset="100%"></stop>
        </linearGradient>
        <linearGradient x1="50%" y1="0%" x2="50%" y2="100%" id="linearGradient-9">
            <stop stop-color="#FFE456" offset="0%"></stop>
            <stop stop-color="#FFFBE7" offset="100%"></stop>
        </linearGradient>
    </defs>
    <g id="icon/设备图/视频矩阵/on" stroke="none" stroke-width="1" fill="none" fill-rule="evenodd">
        <g id="编组-2">
            <use id="椭圆形" stroke="" mask="url(#mask-2)" stroke-width="6" opacity="0" stroke-dasharray="2,2" xlink:href="#path-1"></use>
            <g id="编组" transform="translate(10.000000, 19.285714)">
                <g id="矩形">
                    <use fill="url(#radialGradient-3)" fill-rule="evenodd" xlink:href="#path-5"></use>
                    <use fill="black" fill-opacity="1" filter="url(#filter-6)" xlink:href="#path-5"></use>
                    <rect stroke="url(#linearGradient-4)" stroke-width="0.3" stroke-linejoin="square" x="0.15" y="0.927190141" width="39.7" height="19.7" rx="2"></rect>
                </g>
                <rect id="矩形" fill="url(#linearGradient-7)" fill-rule="nonzero" x="3.66635024" y="1.59842227" width="32.6672995" height="18.3575357"></rect>
                <path d="M31.3146459,-1.47437618e-14 C31.390434,-1.47437618e-14 31.4657866,0.00582892606 31.5389613,0.0174867782 L36.3336498,0.777190141 L3.66635024,0.777190141 L8.46125647,0.0174867782 C8.53443122,0.00582892606 8.609566,-1.47437618e-14 8.68535414,-1.47437618e-14 L31.3146459,-1.47437618e-14 Z" id="Fill-1" fill="url(#linearGradient-8)" fill-rule="nonzero"></path>
                <path d="M18.6710888,12.8686331 C18.9274221,12.8686331 19.1352212,13.0924907 19.1352212,13.3686331 C19.1352212,13.6447755 18.9274221,13.8686331 18.6710888,13.8686331 C18.4147556,13.8686331 18.2069565,13.6447755 18.2069565,13.3686331 C18.2069565,13.0924907 18.4147556,12.8686331 18.6710888,12.8686331 Z M21.2238168,12.8686331 C21.48015,12.8686331 21.6879491,13.0924907 21.6879491,13.3686331 C21.6879491,13.6447755 21.48015,13.8686331 21.2238168,13.8686331 C20.9674836,13.8686331 20.7596844,13.6447755 20.7596844,13.3686331 C20.7596844,13.0924907 20.9674836,12.8686331 21.2238168,12.8686331 Z M23.7765447,12.8686331 C24.032878,12.8686331 24.2406771,13.0924907 24.2406771,13.3686331 C24.2406771,13.6447755 24.032878,13.8686331 23.7765447,13.8686331 C23.5202115,13.8686331 23.3124124,13.6447755 23.3124124,13.3686331 C23.3124124,13.0924907 23.5202115,12.8686331 23.7765447,12.8686331 Z M26.3292727,12.8686331 C26.5856059,12.8686331 26.793405,13.0924907 26.793405,13.3686331 C26.793405,13.6447755 26.5856059,13.8686331 26.3292727,13.8686331 C26.0729395,13.8686331 25.8651403,13.6447755 25.8651403,13.3686331 C25.8651403,13.0924907 26.0729395,12.8686331 26.3292727,12.8686331 Z M28.8820006,12.8686331 C29.1383339,12.8686331 29.346133,13.0924907 29.346133,13.3686331 C29.346133,13.6447755 29.1383339,13.8686331 28.8820006,13.8686331 C28.6256674,13.8686331 28.4178683,13.6447755 28.4178683,13.3686331 C28.4178683,13.0924907 28.6256674,12.8686331 28.8820006,12.8686331 Z M31.4347286,12.8686331 C31.6910618,12.8686331 31.8988609,13.0924907 31.8988609,13.3686331 C31.8988609,13.6447755 31.6910618,13.8686331 31.4347286,13.8686331 C31.1783954,13.8686331 30.9705962,13.6447755 30.9705962,13.3686331 C30.9705962,13.0924907 31.1783954,12.8686331 31.4347286,12.8686331 Z M33.9874565,12.8686331 C34.2437898,12.8686331 34.4515889,13.0924907 34.4515889,13.3686331 C34.4515889,13.6447755 34.2437898,13.8686331 33.9874565,13.8686331 C33.7311233,13.8686331 33.5233242,13.6447755 33.5233242,13.3686331 C33.5233242,13.0924907 33.7311233,12.8686331 33.9874565,12.8686331 Z M18.6710888,11.0121037 C18.9274221,11.0121037 19.1352212,11.2359613 19.1352212,11.5121037 C19.1352212,11.788246 18.9274221,12.0121037 18.6710888,12.0121037 C18.4147556,12.0121037 18.2069565,11.788246 18.2069565,11.5121037 C18.2069565,11.2359613 18.4147556,11.0121037 18.6710888,11.0121037 Z M21.2238168,11.0121037 C21.48015,11.0121037 21.6879491,11.2359613 21.6879491,11.5121037 C21.6879491,11.788246 21.48015,12.0121037 21.2238168,12.0121037 C20.9674836,12.0121037 20.7596844,11.788246 20.7596844,11.5121037 C20.7596844,11.2359613 20.9674836,11.0121037 21.2238168,11.0121037 Z M23.7765447,11.0121037 C24.032878,11.0121037 24.2406771,11.2359613 24.2406771,11.5121037 C24.2406771,11.788246 24.032878,12.0121037 23.7765447,12.0121037 C23.5202115,12.0121037 23.3124124,11.788246 23.3124124,11.5121037 C23.3124124,11.2359613 23.5202115,11.0121037 23.7765447,11.0121037 Z M26.3292727,11.0121037 C26.5856059,11.0121037 26.793405,11.2359613 26.793405,11.5121037 C26.793405,11.788246 26.5856059,12.0121037 26.3292727,12.0121037 C26.0729395,12.0121037 25.8651403,11.788246 25.8651403,11.5121037 C25.8651403,11.2359613 26.0729395,11.0121037 26.3292727,11.0121037 Z M28.8820006,11.0121037 C29.1383339,11.0121037 29.346133,11.2359613 29.346133,11.5121037 C29.346133,11.788246 29.1383339,12.0121037 28.8820006,12.0121037 C28.6256674,12.0121037 28.4178683,11.788246 28.4178683,11.5121037 C28.4178683,11.2359613 28.6256674,11.0121037 28.8820006,11.0121037 Z M31.4347286,11.0121037 C31.6910618,11.0121037 31.8988609,11.2359613 31.8988609,11.5121037 C31.8988609,11.788246 31.6910618,12.0121037 31.4347286,12.0121037 C31.1783954,12.0121037 30.9705962,11.788246 30.9705962,11.5121037 C30.9705962,11.2359613 31.1783954,11.0121037 31.4347286,11.0121037 Z M33.9874565,11.0121037 C34.2437898,11.0121037 34.4515889,11.2359613 34.4515889,11.5121037 C34.4515889,11.788246 34.2437898,12.0121037 33.9874565,12.0121037 C33.7311233,12.0121037 33.5233242,11.788246 33.5233242,11.5121037 C33.5233242,11.2359613 33.7311233,11.0121037 33.9874565,11.0121037 Z M18.6710888,9.15557424 C18.9274221,9.15557424 19.1352212,9.37943187 19.1352212,9.65557424 C19.1352212,9.93171662 18.9274221,10.1555742 18.6710888,10.1555742 C18.4147556,10.1555742 18.2069565,9.93171662 18.2069565,9.65557424 C18.2069565,9.37943187 18.4147556,9.15557424 18.6710888,9.15557424 Z M21.2238168,9.15557424 C21.48015,9.15557424 21.6879491,9.37943187 21.6879491,9.65557424 C21.6879491,9.93171662 21.48015,10.1555742 21.2238168,10.1555742 C20.9674836,10.1555742 20.7596844,9.93171662 20.7596844,9.65557424 C20.7596844,9.37943187 20.9674836,9.15557424 21.2238168,9.15557424 Z M23.7765447,9.15557424 C24.032878,9.15557424 24.2406771,9.37943187 24.2406771,9.65557424 C24.2406771,9.93171662 24.032878,10.1555742 23.7765447,10.1555742 C23.5202115,10.1555742 23.3124124,9.93171662 23.3124124,9.65557424 C23.3124124,9.37943187 23.5202115,9.15557424 23.7765447,9.15557424 Z M26.3292727,9.15557424 C26.5856059,9.15557424 26.793405,9.37943187 26.793405,9.65557424 C26.793405,9.93171662 26.5856059,10.1555742 26.3292727,10.1555742 C26.0729395,10.1555742 25.8651403,9.93171662 25.8651403,9.65557424 C25.8651403,9.37943187 26.0729395,9.15557424 26.3292727,9.15557424 Z M28.8820006,9.15557424 C29.1383339,9.15557424 29.346133,9.37943187 29.346133,9.65557424 C29.346133,9.93171662 29.1383339,10.1555742 28.8820006,10.1555742 C28.6256674,10.1555742 28.4178683,9.93171662 28.4178683,9.65557424 C28.4178683,9.37943187 28.6256674,9.15557424 28.8820006,9.15557424 Z M31.4347286,9.15557424 C31.6910618,9.15557424 31.8988609,9.37943187 31.8988609,9.65557424 C31.8988609,9.93171662 31.6910618,10.1555742 31.4347286,10.1555742 C31.1783954,10.1555742 30.9705962,9.93171662 30.9705962,9.65557424 C30.9705962,9.37943187 31.1783954,9.15557424 31.4347286,9.15557424 Z M33.9874565,9.15557424 C34.2437898,9.15557424 34.4515889,9.37943187 34.4515889,9.65557424 C34.4515889,9.93171662 34.2437898,10.1555742 33.9874565,10.1555742 C33.7311233,10.1555742 33.5233242,9.93171662 33.5233242,9.65557424 C33.5233242,9.37943187 33.7311233,9.15557424 33.9874565,9.15557424 Z M18.6710888,7.20310221 C18.9274221,7.20310221 19.1352212,7.42695984 19.1352212,7.70310221 C19.1352212,7.97924459 18.9274221,8.20310221 18.6710888,8.20310221 C18.4147556,8.20310221 18.2069565,7.97924459 18.2069565,7.70310221 C18.2069565,7.42695984 18.4147556,7.20310221 18.6710888,7.20310221 Z M21.2238168,7.20310221 C21.48015,7.20310221 21.6879491,7.42695984 21.6879491,7.70310221 C21.6879491,7.97924459 21.48015,8.20310221 21.2238168,8.20310221 C20.9674836,8.20310221 20.7596844,7.97924459 20.7596844,7.70310221 C20.7596844,7.42695984 20.9674836,7.20310221 21.2238168,7.20310221 Z M23.7765447,7.20310221 C24.032878,7.20310221 24.2406771,7.42695984 24.2406771,7.70310221 C24.2406771,7.97924459 24.032878,8.20310221 23.7765447,8.20310221 C23.5202115,8.20310221 23.3124124,7.97924459 23.3124124,7.70310221 C23.3124124,7.42695984 23.5202115,7.20310221 23.7765447,7.20310221 Z M26.3292727,7.20310221 C26.5856059,7.20310221 26.793405,7.42695984 26.793405,7.70310221 C26.793405,7.97924459 26.5856059,8.20310221 26.3292727,8.20310221 C26.0729395,8.20310221 25.8651403,7.97924459 25.8651403,7.70310221 C25.8651403,7.42695984 26.0729395,7.20310221 26.3292727,7.20310221 Z M28.8820006,7.20310221 C29.1383339,7.20310221 29.346133,7.42695984 29.346133,7.70310221 C29.346133,7.97924459 29.1383339,8.20310221 28.8820006,8.20310221 C28.6256674,8.20310221 28.4178683,7.97924459 28.4178683,7.70310221 C28.4178683,7.42695984 28.6256674,7.20310221 28.8820006,7.20310221 Z M31.4347286,7.20310221 C31.6910618,7.20310221 31.8988609,7.42695984 31.8988609,7.70310221 C31.8988609,7.97924459 31.6910618,8.20310221 31.4347286,8.20310221 C31.1783954,8.20310221 30.9705962,7.97924459 30.9705962,7.70310221 C30.9705962,7.42695984 31.1783954,7.20310221 31.4347286,7.20310221 Z M33.9874565,7.20310221 C34.2437898,7.20310221 34.4515889,7.42695984 34.4515889,7.70310221 C34.4515889,7.97924459 34.2437898,8.20310221 33.9874565,8.20310221 C33.7311233,8.20310221 33.5233242,7.97924459 33.5233242,7.70310221 C33.5233242,7.42695984 33.7311233,7.20310221 33.9874565,7.20310221 Z" id="形状结合" fill="#111225"></path>
                <rect id="矩形" fill="url(#linearGradient-9)" fill-rule="nonzero" x="6.29570163" y="7.20722973" width="8.87694162" height="4.01893355" rx="0.5"></rect>
                <path d="M2.20097883,16.3296637 C2.53234968,16.3296637 2.80097883,16.5982929 2.80097883,16.9296637 C2.80097883,17.2610346 2.53234968,17.5296637 2.20097883,17.5296637 L1.80097883,17.5296637 C1.46960798,17.5296637 1.20097883,17.2610346 1.20097883,16.9296637 C1.20097883,16.5982929 1.46960798,16.3296637 1.80097883,16.3296637 L2.20097883,16.3296637 Z M38.1990212,16.3296637 C38.530392,16.3296637 38.7990212,16.5982929 38.7990212,16.9296637 C38.7990212,17.2610346 38.530392,17.5296637 38.1990212,17.5296637 L37.7990212,17.5296637 C37.4676503,17.5296637 37.1990212,17.2610346 37.1990212,16.9296637 C37.1990212,16.5982929 37.4676503,16.3296637 37.7990212,16.3296637 L38.1990212,16.3296637 Z M2.20097883,4.02471656 C2.53234968,4.02471656 2.80097883,4.29334571 2.80097883,4.62471656 C2.80097883,4.95608741 2.53234968,5.22471656 2.20097883,5.22471656 L1.80097883,5.22471656 C1.46960798,5.22471656 1.20097883,4.95608741 1.20097883,4.62471656 C1.20097883,4.29334571 1.46960798,4.02471656 1.80097883,4.02471656 L2.20097883,4.02471656 Z M38.1990212,4.02471656 C38.530392,4.02471656 38.7990212,4.29334571 38.7990212,4.62471656 C38.7990212,4.95608741 38.530392,5.22471656 38.1990212,5.22471656 L37.7990212,5.22471656 C37.4676503,5.22471656 37.1990212,4.95608741 37.1990212,4.62471656 C37.1990212,4.29334571 37.4676503,4.02471656 37.7990212,4.02471656 L38.1990212,4.02471656 Z" id="形状结合" fill="#FFFFFF"></path>
            </g>
        </g>
        <path d="M18.1561182,32.520483 C18.4322606,32.520483 18.6561182,32.7443407 18.6561182,33.020483 C18.6561182,33.2966254 18.4322606,33.520483 18.1561182,33.520483 C17.8799758,33.520483 17.6561182,33.2966254 17.6561182,33.020483 C17.6561182,32.7443407 17.8799758,32.520483 18.1561182,32.520483 Z M20.8145414,32.520483 C21.0906838,32.520483 21.3145414,32.7443407 21.3145414,33.020483 C21.3145414,33.2966254 21.0906838,33.520483 20.8145414,33.520483 C20.538399,33.520483 20.3145414,33.2966254 20.3145414,33.020483 C20.3145414,32.7443407 20.538399,32.520483 20.8145414,32.520483 Z M23.4729646,32.520483 C23.7491069,32.520483 23.9729646,32.7443407 23.9729646,33.020483 C23.9729646,33.2966254 23.7491069,33.520483 23.4729646,33.520483 C23.1968222,33.520483 22.9729646,33.2966254 22.9729646,33.020483 C22.9729646,32.7443407 23.1968222,32.520483 23.4729646,32.520483 Z" id="形状结合" fill="#111225"></path>
    </g>
</svg>