<?xml version="1.0" encoding="UTF-8"?>
<svg width="60px" height="60px" viewBox="0 0 60 60" version="1.1" xmlns="http://www.w3.org/2000/svg" xmlns:xlink="http://www.w3.org/1999/xlink">
    <title>icon/设备图/视频矩阵/off</title>
    <defs>
        <linearGradient x1="50%" y1="0%" x2="50%" y2="100%" id="linearGradient-1">
            <stop stop-color="#FFFFFF" offset="0%"></stop>
            <stop stop-color="#B3B3B3" offset="100%"></stop>
        </linearGradient>
    </defs>
    <g id="icon/设备图/视频矩阵/off" stroke="none" stroke-width="1" fill="none" fill-rule="evenodd">
        <g id="编组-2">
            <path d="M30,60 C46.5685425,60 60,46.5685425 60,30 C60,13.4314575 46.5685425,0 30,0 C13.4314575,0 0,13.4314575 0,30 C0,46.5685425 13.4314575,60 30,60 Z" id="椭圆形"></path>
            <g id="编组" transform="translate(10.000000, 20.000000)">
                <rect id="矩形" fill="#666666" x="0" y="0.777190141" width="40" height="20" rx="2"></rect>
                <rect id="矩形" fill="url(#linearGradient-1)" fill-rule="nonzero" x="3.66635024" y="0.777190141" width="32.6672995" height="20"></rect>
                <path d="M31.3146459,-1.47437618e-14 C31.390434,-1.47437618e-14 31.4657866,0.00582892606 31.5389613,0.0174867782 L36.3336498,0.777190141 L3.66635024,0.777190141 L8.46125647,0.0174867782 C8.53443122,0.00582892606 8.609566,-1.47437618e-14 8.68535414,-1.47437618e-14 L31.3146459,-1.47437618e-14 Z" id="Fill-1" fill="#696969"></path>
                <path d="M6.8,14.8598757 C7.2418278,14.8598757 7.6,15.2180479 7.6,15.6598757 C7.6,16.1017035 7.2418278,16.4598757 6.8,16.4598757 C6.3581722,16.4598757 6,16.1017035 6,15.6598757 C6,15.2180479 6.3581722,14.8598757 6.8,14.8598757 Z M11.2,14.8598757 C11.6418278,14.8598757 12,15.2180479 12,15.6598757 C12,16.1017035 11.6418278,16.4598757 11.2,16.4598757 C10.7581722,16.4598757 10.4,16.1017035 10.4,15.6598757 C10.4,15.2180479 10.7581722,14.8598757 11.2,14.8598757 Z M15.6,14.8598757 C16.0418278,14.8598757 16.4,15.2180479 16.4,15.6598757 C16.4,16.1017035 16.0418278,16.4598757 15.6,16.4598757 C15.1581722,16.4598757 14.8,16.1017035 14.8,15.6598757 C14.8,15.2180479 15.1581722,14.8598757 15.6,14.8598757 Z M20,14.8598757 C20.4418278,14.8598757 20.8,15.2180479 20.8,15.6598757 C20.8,16.1017035 20.4418278,16.4598757 20,16.4598757 C19.5581722,16.4598757 19.2,16.1017035 19.2,15.6598757 C19.2,15.2180479 19.5581722,14.8598757 20,14.8598757 Z M24.4,14.8598757 C24.8418278,14.8598757 25.2,15.2180479 25.2,15.6598757 C25.2,16.1017035 24.8418278,16.4598757 24.4,16.4598757 C23.9581722,16.4598757 23.6,16.1017035 23.6,15.6598757 C23.6,15.2180479 23.9581722,14.8598757 24.4,14.8598757 Z M28.8,14.8598757 C29.2418278,14.8598757 29.6,15.2180479 29.6,15.6598757 C29.6,16.1017035 29.2418278,16.4598757 28.8,16.4598757 C28.3581722,16.4598757 28,16.1017035 28,15.6598757 C28,15.2180479 28.3581722,14.8598757 28.8,14.8598757 Z M33.2,14.8598757 C33.6418278,14.8598757 34,15.2180479 34,15.6598757 C34,16.1017035 33.6418278,16.4598757 33.2,16.4598757 C32.7581722,16.4598757 32.4,16.1017035 32.4,15.6598757 C32.4,15.2180479 32.7581722,14.8598757 33.2,14.8598757 Z M6.8,11.6598757 C7.2418278,11.6598757 7.6,12.0180479 7.6,12.4598757 C7.6,12.9017035 7.2418278,13.2598757 6.8,13.2598757 C6.3581722,13.2598757 6,12.9017035 6,12.4598757 C6,12.0180479 6.3581722,11.6598757 6.8,11.6598757 Z M11.2,11.6598757 C11.6418278,11.6598757 12,12.0180479 12,12.4598757 C12,12.9017035 11.6418278,13.2598757 11.2,13.2598757 C10.7581722,13.2598757 10.4,12.9017035 10.4,12.4598757 C10.4,12.0180479 10.7581722,11.6598757 11.2,11.6598757 Z M15.6,11.6598757 C16.0418278,11.6598757 16.4,12.0180479 16.4,12.4598757 C16.4,12.9017035 16.0418278,13.2598757 15.6,13.2598757 C15.1581722,13.2598757 14.8,12.9017035 14.8,12.4598757 C14.8,12.0180479 15.1581722,11.6598757 15.6,11.6598757 Z M20,11.6598757 C20.4418278,11.6598757 20.8,12.0180479 20.8,12.4598757 C20.8,12.9017035 20.4418278,13.2598757 20,13.2598757 C19.5581722,13.2598757 19.2,12.9017035 19.2,12.4598757 C19.2,12.0180479 19.5581722,11.6598757 20,11.6598757 Z M24.4,11.6598757 C24.8418278,11.6598757 25.2,12.0180479 25.2,12.4598757 C25.2,12.9017035 24.8418278,13.2598757 24.4,13.2598757 C23.9581722,13.2598757 23.6,12.9017035 23.6,12.4598757 C23.6,12.0180479 23.9581722,11.6598757 24.4,11.6598757 Z M28.8,11.6598757 C29.2418278,11.6598757 29.6,12.0180479 29.6,12.4598757 C29.6,12.9017035 29.2418278,13.2598757 28.8,13.2598757 C28.3581722,13.2598757 28,12.9017035 28,12.4598757 C28,12.0180479 28.3581722,11.6598757 28.8,11.6598757 Z M33.2,11.6598757 C33.6418278,11.6598757 34,12.0180479 34,12.4598757 C34,12.9017035 33.6418278,13.2598757 33.2,13.2598757 C32.7581722,13.2598757 32.4,12.9017035 32.4,12.4598757 C32.4,12.0180479 32.7581722,11.6598757 33.2,11.6598757 Z M6.8,8.4598757 C7.2418278,8.4598757 7.6,8.8180479 7.6,9.2598757 C7.6,9.7017035 7.2418278,10.0598757 6.8,10.0598757 C6.3581722,10.0598757 6,9.7017035 6,9.2598757 C6,8.8180479 6.3581722,8.4598757 6.8,8.4598757 Z M11.2,8.4598757 C11.6418278,8.4598757 12,8.8180479 12,9.2598757 C12,9.7017035 11.6418278,10.0598757 11.2,10.0598757 C10.7581722,10.0598757 10.4,9.7017035 10.4,9.2598757 C10.4,8.8180479 10.7581722,8.4598757 11.2,8.4598757 Z M15.6,8.4598757 C16.0418278,8.4598757 16.4,8.8180479 16.4,9.2598757 C16.4,9.7017035 16.0418278,10.0598757 15.6,10.0598757 C15.1581722,10.0598757 14.8,9.7017035 14.8,9.2598757 C14.8,8.8180479 15.1581722,8.4598757 15.6,8.4598757 Z M20,8.4598757 C20.4418278,8.4598757 20.8,8.8180479 20.8,9.2598757 C20.8,9.7017035 20.4418278,10.0598757 20,10.0598757 C19.5581722,10.0598757 19.2,9.7017035 19.2,9.2598757 C19.2,8.8180479 19.5581722,8.4598757 20,8.4598757 Z M24.4,8.4598757 C24.8418278,8.4598757 25.2,8.8180479 25.2,9.2598757 C25.2,9.7017035 24.8418278,10.0598757 24.4,10.0598757 C23.9581722,10.0598757 23.6,9.7017035 23.6,9.2598757 C23.6,8.8180479 23.9581722,8.4598757 24.4,8.4598757 Z M28.8,8.4598757 C29.2418278,8.4598757 29.6,8.8180479 29.6,9.2598757 C29.6,9.7017035 29.2418278,10.0598757 28.8,10.0598757 C28.3581722,10.0598757 28,9.7017035 28,9.2598757 C28,8.8180479 28.3581722,8.4598757 28.8,8.4598757 Z M33.2,8.4598757 C33.6418278,8.4598757 34,8.8180479 34,9.2598757 C34,9.7017035 33.6418278,10.0598757 33.2,10.0598757 C32.7581722,10.0598757 32.4,9.7017035 32.4,9.2598757 C32.4,8.8180479 32.7581722,8.4598757 33.2,8.4598757 Z M6.8,5.09450458 C7.2418278,5.09450458 7.6,5.45267678 7.6,5.89450458 C7.6,6.33633238 7.2418278,6.69450458 6.8,6.69450458 C6.3581722,6.69450458 6,6.33633238 6,5.89450458 C6,5.45267678 6.3581722,5.09450458 6.8,5.09450458 Z M11.2,5.09450458 C11.6418278,5.09450458 12,5.45267678 12,5.89450458 C12,6.33633238 11.6418278,6.69450458 11.2,6.69450458 C10.7581722,6.69450458 10.4,6.33633238 10.4,5.89450458 C10.4,5.45267678 10.7581722,5.09450458 11.2,5.09450458 Z M15.6,5.09450458 C16.0418278,5.09450458 16.4,5.45267678 16.4,5.89450458 C16.4,6.33633238 16.0418278,6.69450458 15.6,6.69450458 C15.1581722,6.69450458 14.8,6.33633238 14.8,5.89450458 C14.8,5.45267678 15.1581722,5.09450458 15.6,5.09450458 Z M20,5.09450458 C20.4418278,5.09450458 20.8,5.45267678 20.8,5.89450458 C20.8,6.33633238 20.4418278,6.69450458 20,6.69450458 C19.5581722,6.69450458 19.2,6.33633238 19.2,5.89450458 C19.2,5.45267678 19.5581722,5.09450458 20,5.09450458 Z M24.4,5.09450458 C24.8418278,5.09450458 25.2,5.45267678 25.2,5.89450458 C25.2,6.33633238 24.8418278,6.69450458 24.4,6.69450458 C23.9581722,6.69450458 23.6,6.33633238 23.6,5.89450458 C23.6,5.45267678 23.9581722,5.09450458 24.4,5.09450458 Z M28.8,5.09450458 C29.2418278,5.09450458 29.6,5.45267678 29.6,5.89450458 C29.6,6.33633238 29.2418278,6.69450458 28.8,6.69450458 C28.3581722,6.69450458 28,6.33633238 28,5.89450458 C28,5.45267678 28.3581722,5.09450458 28.8,5.09450458 Z M33.2,5.09450458 C33.6418278,5.09450458 34,5.45267678 34,5.89450458 C34,6.33633238 33.6418278,6.69450458 33.2,6.69450458 C32.7581722,6.69450458 32.4,6.33633238 32.4,5.89450458 C32.4,5.45267678 32.7581722,5.09450458 33.2,5.09450458 Z" id="形状结合" fill="#666666"></path>
                <path d="M2.20097883,16.3296637 C2.53234968,16.3296637 2.80097883,16.5982929 2.80097883,16.9296637 C2.80097883,17.2610346 2.53234968,17.5296637 2.20097883,17.5296637 L1.80097883,17.5296637 C1.46960798,17.5296637 1.20097883,17.2610346 1.20097883,16.9296637 C1.20097883,16.5982929 1.46960798,16.3296637 1.80097883,16.3296637 L2.20097883,16.3296637 Z M38.1990212,16.3296637 C38.530392,16.3296637 38.7990212,16.5982929 38.7990212,16.9296637 C38.7990212,17.2610346 38.530392,17.5296637 38.1990212,17.5296637 L37.7990212,17.5296637 C37.4676503,17.5296637 37.1990212,17.2610346 37.1990212,16.9296637 C37.1990212,16.5982929 37.4676503,16.3296637 37.7990212,16.3296637 L38.1990212,16.3296637 Z M2.20097883,4.02471656 C2.53234968,4.02471656 2.80097883,4.29334571 2.80097883,4.62471656 C2.80097883,4.95608741 2.53234968,5.22471656 2.20097883,5.22471656 L1.80097883,5.22471656 C1.46960798,5.22471656 1.20097883,4.95608741 1.20097883,4.62471656 C1.20097883,4.29334571 1.46960798,4.02471656 1.80097883,4.02471656 L2.20097883,4.02471656 Z M38.1990212,4.02471656 C38.530392,4.02471656 38.7990212,4.29334571 38.7990212,4.62471656 C38.7990212,4.95608741 38.530392,5.22471656 38.1990212,5.22471656 L37.7990212,5.22471656 C37.4676503,5.22471656 37.1990212,4.95608741 37.1990212,4.62471656 C37.1990212,4.29334571 37.4676503,4.02471656 37.7990212,4.02471656 L38.1990212,4.02471656 Z" id="形状结合" fill="#FFFFFF"></path>
            </g>
        </g>
    </g>
</svg>